{"glyphs":{"0":{"ha":857,"x_min":0,"x_max":0,"o":"m 429 -17 b 58 463 168 -17 58 231 b 429 940 58 696 168 940 b 799 463 689 940 799 696 b 429 -17 799 231 689 -17 m 429 128 b 633 463 579 128 633 286 b 429 796 633 640 581 796 b 224 463 278 796 224 640 b 429 128 224 286 278 128 "},"1":{"ha":528,"x_min":0,"x_max":0,"o":"m 267 0 l 267 717 l 115 558 l 21 657 l 288 926 l 429 926 l 429 0 "},"2":{"ha":826,"x_min":0,"x_max":0,"o":"m 69 0 l 69 129 b 571 656 429 401 571 521 b 401 796 571 753 486 796 b 151 686 293 796 211 753 l 57 792 b 400 940 139 892 269 940 b 735 656 579 940 735 840 b 331 143 735 483 578 331 l 740 143 l 740 0 "},"3":{"ha":797,"x_min":0,"x_max":0,"o":"m 383 -17 b 33 133 219 -17 97 50 l 122 240 b 378 128 182 171 279 128 b 571 269 500 128 571 185 b 365 401 571 361 499 401 b 260 399 326 401 274 400 l 260 546 b 365 544 275 544 329 544 b 557 667 475 544 557 582 b 369 796 557 751 472 796 b 129 693 274 796 196 761 l 46 794 b 385 940 118 879 231 940 b 718 692 585 940 718 846 b 518 479 718 567 613 494 b 733 254 607 469 733 397 b 383 -17 733 96 599 -17 "},"4":{"ha":806,"x_min":0,"x_max":0,"o":"m 481 0 l 481 210 l 39 210 l 39 340 l 419 926 l 643 926 l 643 353 l 767 353 l 767 210 l 643 210 l 643 0 m 481 781 l 199 353 l 481 353 "},"5":{"ha":833,"x_min":0,"x_max":0,"o":"m 422 -17 b 79 126 264 -17 154 39 l 172 239 b 421 128 233 167 318 128 b 611 292 539 128 611 200 b 425 456 611 390 539 456 b 222 376 347 456 282 432 l 107 410 l 107 926 l 714 926 l 714 783 l 269 783 l 269 517 b 479 596 315 560 390 596 b 776 297 636 596 776 488 b 422 -17 776 106 629 -17 "},"6":{"ha":835,"x_min":0,"x_max":0,"o":"m 440 -17 b 58 463 168 -17 58 204 b 467 940 58 729 199 940 b 732 838 581 940 669 900 l 657 715 b 467 796 608 765 554 796 b 222 490 311 796 222 653 b 222 464 222 482 222 474 b 471 594 265 526 363 594 b 782 294 638 594 782 492 b 440 -17 782 124 647 -17 m 431 128 b 617 289 553 128 617 215 b 428 454 617 403 528 454 b 225 346 349 454 271 413 b 431 128 233 246 289 128 "},"7":{"ha":739,"x_min":0,"x_max":0,"o":"m 168 0 l 518 783 l 38 783 l 38 926 l 706 926 l 706 814 l 347 0 "},"8":{"ha":828,"x_min":0,"x_max":0,"o":"m 414 -17 b 58 239 224 -17 58 72 b 267 478 58 356 154 440 b 74 697 163 511 74 581 b 414 940 74 869 250 940 b 754 697 578 940 754 869 b 561 478 754 581 665 511 b 769 239 674 440 769 356 b 414 -17 769 72 603 -17 m 414 543 b 589 672 471 553 589 586 b 414 796 589 751 514 796 b 239 672 314 796 239 751 b 414 543 239 586 358 553 m 414 128 b 604 260 517 128 604 178 b 414 406 604 356 471 397 b 224 260 356 397 224 356 b 414 128 224 178 308 128 "},"9":{"ha":835,"x_min":0,"x_max":0,"o":"m 369 -15 b 103 88 254 -15 165 26 l 179 211 b 369 129 228 160 281 129 b 614 435 538 129 614 283 b 613 461 614 443 614 453 b 364 332 571 399 474 332 b 54 631 197 332 54 433 b 396 942 54 803 189 942 b 778 464 668 942 778 721 b 369 -15 778 196 638 -15 m 408 471 b 611 581 488 471 564 514 b 404 797 601 681 547 797 b 218 636 282 797 218 711 b 408 471 218 522 307 471 "},"Ð":{"ha":1022,"x_min":0,"x_max":0,"o":"m 135 0 l 135 397 l 14 397 l 14 515 l 135 515 l 135 926 l 479 926 b 964 464 769 926 964 735 b 481 0 964 190 769 0 m 297 397 l 297 143 l 479 143 b 797 464 681 143 797 288 b 481 783 797 642 686 783 l 297 783 l 297 515 l 518 515 l 518 397 "},"ð":{"ha":797,"x_min":0,"x_max":0,"o":"m 125 740 l 281 808 b 186 868 249 829 218 849 l 265 986 b 431 875 324 950 379 914 l 576 939 l 607 869 l 497 821 b 743 347 646 690 743 536 b 399 -17 743 135 613 -17 b 54 318 190 -17 54 125 b 354 650 54 511 182 650 b 575 525 446 650 519 611 b 356 757 532 611 450 689 l 154 668 m 399 113 b 592 318 524 113 592 208 b 399 522 592 426 524 522 b 206 318 275 522 206 426 b 399 113 206 208 275 113 "},"Ł":{"ha":736,"x_min":0,"x_max":0,"o":"m 14 419 l 122 482 l 122 926 l 285 926 l 285 576 l 403 644 l 403 508 l 285 440 l 285 143 l 693 143 l 693 0 l 122 0 l 122 347 l 14 285 "},"ł":{"ha":415,"x_min":0,"x_max":0,"o":"m 14 407 l 135 476 l 135 926 l 281 926 l 281 560 l 403 631 l 403 522 l 281 451 l 281 0 l 135 0 l 135 367 l 14 297 "},"Š":{"ha":825,"x_min":0,"x_max":0,"o":"m 338 1011 l 204 1211 l 297 1211 l 404 1078 l 508 1211 l 600 1211 l 471 1011 m 417 -17 b 39 131 246 -17 122 44 l 131 257 b 424 128 193 189 294 128 b 608 256 557 128 608 193 b 69 669 608 450 69 329 b 407 942 69 824 203 942 b 753 811 550 942 668 894 l 661 690 b 392 797 588 764 489 797 b 236 682 297 797 236 750 b 775 271 236 508 775 615 b 417 -17 775 117 665 -17 "},"š":{"ha":656,"x_min":0,"x_max":0,"o":"m 325 -17 b 38 89 210 -17 107 21 l 104 193 b 331 100 151 144 244 100 b 464 189 418 100 464 136 b 58 485 464 321 58 226 b 322 688 58 594 153 688 b 582 594 436 688 522 647 l 521 492 b 322 572 481 536 407 572 b 199 489 246 572 199 536 b 604 193 199 371 604 460 b 325 -17 604 74 506 -17 m 260 772 l 126 972 l 219 972 l 326 839 l 431 972 l 522 972 l 393 772 "},"Ý":{"ha":885,"x_min":0,"x_max":0,"o":"m 447 1011 l 343 1011 l 538 1211 l 676 1211 m 363 0 l 363 385 l 3 926 l 189 926 l 443 531 l 697 926 l 883 926 l 525 385 l 525 0 "},"ý":{"ha":699,"x_min":0,"x_max":0,"o":"m 88 -132 b 143 -143 103 -139 126 -143 b 240 -85 190 -143 221 -129 l 274 -8 l -3 671 l 154 671 l 350 168 l 546 671 l 701 671 l 378 -121 b 149 -272 332 -235 253 -271 b 67 -262 128 -272 86 -268 m 350 772 l 246 772 l 440 972 l 579 972 "},"Þ":{"ha":846,"x_min":0,"x_max":0,"o":"m 99 0 l 99 926 l 261 926 l 261 771 l 507 771 b 808 479 701 771 808 636 b 507 190 808 321 700 190 l 261 190 l 261 0 m 485 333 b 642 479 576 333 642 392 b 485 628 642 568 576 628 l 261 628 l 261 333 l 485 333 "},"þ":{"ha":804,"x_min":0,"x_max":0,"o":"m 456 -17 b 240 93 371 -17 296 22 l 240 -256 l 94 -256 l 94 926 l 240 926 l 240 579 b 456 688 290 646 368 688 b 753 336 629 688 753 557 b 456 -17 753 115 629 -17 m 413 113 b 603 336 528 113 603 206 b 413 558 603 467 528 558 b 240 469 344 558 274 519 l 240 204 b 413 113 272 154 344 113 "},"Ž":{"ha":818,"x_min":0,"x_max":0,"o":"m 344 1011 l 211 1211 l 304 1211 l 411 1078 l 515 1211 l 607 1211 l 478 1011 m 63 0 l 63 132 l 535 783 l 63 783 l 63 926 l 747 926 l 747 796 l 272 143 l 757 143 l 757 0 "},"ž":{"ha":661,"x_min":0,"x_max":0,"o":"m 65 0 l 65 111 l 396 544 l 65 544 l 65 671 l 592 671 l 592 565 l 256 128 l 597 128 l 597 0 m 257 772 l 124 972 l 217 972 l 324 839 l 428 972 l 519 972 l 390 772 "},"½":{"ha":1168,"x_min":0,"x_max":0,"o":"m 267 0 l 174 0 l 767 926 l 860 926 m 689 0 l 689 83 b 996 388 917 244 996 314 b 892 474 996 447 949 474 b 739 404 826 474 767 440 l 679 475 b 894 564 732 536 818 564 b 1108 396 1011 564 1108 508 b 851 90 1108 296 1014 207 l 1113 90 l 1113 0 m 171 371 l 171 783 l 79 688 l 14 756 l 186 926 l 283 926 l 283 371 "},"¼":{"ha":1119,"x_min":0,"x_max":0,"o":"m 267 0 l 174 0 l 767 926 l 860 926 m 1004 128 l 1004 0 l 893 0 l 893 128 l 619 128 l 619 207 l 849 556 l 1004 556 l 1004 217 l 1079 217 l 1079 128 m 893 460 l 731 217 l 893 217 m 171 371 l 171 783 l 79 688 l 14 756 l 186 926 l 283 926 l 283 371 "},"¹":{"ha":367,"x_min":0,"x_max":0,"o":"m 171 585 l 171 997 l 79 901 l 14 969 l 186 1140 l 283 1140 l 283 585 "},"¾":{"ha":1254,"x_min":0,"x_max":0,"o":"m 401 0 l 308 0 l 901 926 l 994 926 m 1138 128 l 1138 0 l 1026 0 l 1026 128 l 753 128 l 753 207 l 982 556 l 1138 556 l 1138 217 l 1213 217 l 1213 128 m 1026 460 l 864 217 l 1026 217 m 493 524 b 271 361 493 429 407 361 b 51 450 168 361 90 400 l 108 522 b 268 451 147 476 211 451 b 381 531 340 451 381 483 b 249 611 381 592 324 611 b 190 610 225 611 199 611 l 190 699 b 249 697 200 697 225 697 b 372 772 324 697 372 718 b 261 844 372 821 322 844 b 111 782 203 844 153 825 l 58 847 b 272 935 103 897 174 935 b 483 785 403 935 483 876 b 360 658 483 711 419 668 b 493 524 415 653 493 610 "},"³":{"ha":547,"x_min":0,"x_max":0,"o":"m 493 738 b 271 575 493 643 407 575 b 51 664 168 575 90 614 l 108 736 b 268 665 147 690 211 665 b 381 744 340 665 381 697 b 249 825 381 806 324 825 b 190 824 225 825 199 825 l 190 913 b 249 911 200 911 225 911 b 372 986 324 911 372 932 b 261 1058 372 1035 322 1058 b 111 996 203 1058 153 1039 l 58 1061 b 272 1149 103 1111 174 1149 b 483 999 403 1149 483 1090 b 360 872 483 925 419 882 b 493 738 415 867 493 824 "},"²":{"ha":547,"x_min":0,"x_max":0,"o":"m 67 585 l 67 668 b 374 972 294 829 374 899 b 269 1058 374 1032 326 1058 b 117 989 204 1058 144 1025 l 57 1060 b 272 1149 110 1121 196 1149 b 486 981 389 1149 486 1093 b 229 675 486 881 392 792 l 490 675 l 490 585 "},"¦":{"ha":297,"x_min":0,"x_max":0,"o":"m 99 -28 l 99 411 l 199 411 l 199 -28 m 99 515 l 99 954 l 199 954 l 199 515 "},"−":{"ha":697,"x_min":0,"x_max":0,"o":"m 40 418 l 40 511 l 657 511 l 657 418 "},"×":{"ha":697,"x_min":0,"x_max":0,"o":"m 349 399 l 149 197 l 82 264 l 283 464 l 82 665 l 149 731 l 349 531 l 550 731 l 615 665 l 415 464 l 615 264 l 550 197 "}," ":{"ha":358,"x_min":0,"x_max":0,"o":""},"!":{"ha":339,"x_min":0,"x_max":0,"o":"m 107 285 l 81 926 l 258 926 l 233 285 m 171 -14 b 74 83 118 -14 74 31 b 171 179 74 135 118 179 b 267 83 224 179 267 135 b 171 -14 267 31 224 -14 "},"\"":{"ha":528,"x_min":0,"x_max":0,"o":"m 115 543 b 67 858 115 543 67 835 b 149 940 67 904 104 940 b 231 858 194 940 231 904 b 182 543 231 835 182 543 m 346 543 b 297 858 346 543 297 835 b 379 940 297 904 333 940 b 461 858 425 940 461 904 b 413 543 461 835 413 543 "},"#":{"ha":843,"x_min":0,"x_max":0,"o":"m 336 0 l 418 243 l 276 243 l 196 0 l 85 0 l 167 243 l 26 243 l 57 339 l 199 339 l 282 588 l 140 588 l 169 683 l 314 683 l 394 926 l 506 926 l 425 683 l 565 683 l 646 926 l 757 926 l 675 683 l 817 683 l 789 588 l 644 588 l 560 339 l 707 339 l 676 243 l 528 243 l 447 0 m 533 588 l 393 588 l 310 339 l 449 339 "},"$":{"ha":840,"x_min":0,"x_max":0,"o":"m 374 -14 b 50 131 231 -3 124 54 l 142 257 b 374 132 193 200 274 147 l 374 401 b 81 669 231 438 81 489 b 374 939 81 811 194 924 l 374 1067 l 485 1067 l 485 938 b 764 811 597 925 692 881 l 672 690 b 485 789 619 743 553 775 l 485 549 b 786 271 629 511 786 457 b 485 -14 786 129 693 4 l 485 -139 l 374 -139 m 619 256 b 485 372 619 318 561 349 l 485 131 b 619 256 581 144 619 201 m 247 682 b 374 578 247 628 300 600 l 374 796 b 247 682 296 786 247 743 "},"%":{"ha":1038,"x_min":0,"x_max":0,"o":"m 269 481 b 39 710 132 481 39 581 b 269 940 39 840 132 940 b 500 710 408 940 500 840 b 269 481 500 581 408 481 m 179 0 l 771 926 l 865 926 l 272 0 m 768 -17 b 538 213 631 -17 538 83 b 768 443 538 343 631 443 b 999 213 906 443 999 343 b 768 -17 999 83 906 -17 m 269 574 b 393 710 342 574 393 629 b 269 849 393 792 342 849 b 147 710 199 849 147 792 b 269 574 147 629 199 574 m 768 76 b 892 213 840 76 892 132 b 768 351 892 294 840 351 b 644 213 696 351 644 294 b 768 76 644 132 696 76 "},"&":{"ha":896,"x_min":0,"x_max":0,"o":"m 681 0 b 599 81 658 21 629 49 b 339 -17 529 22 444 -17 b 42 247 175 -17 42 72 b 243 518 42 390 136 464 b 178 722 204 588 178 658 b 429 940 178 846 285 940 b 657 751 554 940 657 872 b 426 494 657 611 542 550 b 518 379 458 450 492 410 b 610 272 549 342 579 306 b 701 467 654 339 685 413 l 819 413 b 692 182 788 338 746 256 b 872 0 747 124 806 64 m 358 100 b 518 165 418 100 471 126 b 404 294 471 215 428 264 b 301 426 369 335 333 381 b 196 260 240 386 196 338 b 358 100 196 158 272 100 m 324 718 b 369 579 324 676 342 628 b 528 743 457 621 528 665 b 435 833 528 800 488 833 b 324 718 374 833 324 786 "},"'":{"ha":297,"x_min":0,"x_max":0,"o":"m 115 543 b 67 858 115 543 67 835 b 149 940 67 904 104 940 b 231 858 194 940 231 904 b 182 543 231 835 182 543 "},"(":{"ha":383,"x_min":0,"x_max":0,"o":"m 269 -276 b 58 338 138 -117 58 114 b 269 951 58 561 138 792 l 360 883 b 217 338 267 711 217 557 b 360 -207 217 121 267 -36 "},")":{"ha":385,"x_min":0,"x_max":0,"o":"m 25 -207 b 167 338 117 -36 167 121 b 25 883 167 557 117 711 l 115 951 b 325 338 246 792 325 561 b 115 -276 325 114 246 -117 "},"*":{"ha":482,"x_min":0,"x_max":0,"o":"m 203 522 l 210 678 l 79 594 l 40 661 l 178 732 l 40 803 l 79 869 l 210 785 l 203 940 l 279 940 l 272 785 l 403 869 l 442 803 l 303 732 l 442 661 l 403 594 l 272 678 l 279 522 "},"+":{"ha":697,"x_min":0,"x_max":0,"o":"m 400 422 l 400 133 l 297 133 l 297 422 l 40 422 l 40 515 l 297 515 l 297 794 l 400 794 l 400 515 l 657 515 l 657 422 "},",":{"ha":340,"x_min":0,"x_max":0,"o":"m 275 53 b 146 -185 275 -43 222 -131 l 79 -131 b 179 0 124 -104 171 -47 b 156 -4 176 -1 165 -4 b 74 85 110 -4 74 33 b 168 179 74 136 115 179 b 275 53 225 179 275 133 "},"-":{"ha":417,"x_min":0,"x_max":0,"o":"m 42 274 l 42 399 l 375 399 l 375 274 "},".":{"ha":342,"x_min":0,"x_max":0,"o":"m 171 -15 b 74 83 118 -15 74 31 b 171 179 74 135 118 179 b 268 83 224 179 268 135 b 171 -15 268 31 224 -15 "},"/":{"ha":438,"x_min":0,"x_max":0,"o":"m 0 -28 l 329 954 l 438 954 l 108 -28 "},":":{"ha":329,"x_min":0,"x_max":0,"o":"m 171 488 b 74 583 118 488 74 532 b 171 681 74 636 118 681 b 268 583 224 681 268 636 b 171 488 268 532 224 488 m 171 -15 b 74 83 118 -15 74 31 b 171 179 74 135 118 179 b 268 83 224 179 268 135 b 171 -15 268 31 224 -15 "},";":{"ha":340,"x_min":0,"x_max":0,"o":"m 171 488 b 74 585 118 488 74 532 b 171 681 74 638 118 681 b 268 585 224 681 268 638 b 171 488 268 532 224 488 m 275 57 b 146 -181 275 -39 222 -126 l 79 -126 b 179 4 124 -100 171 -43 b 156 1 176 3 165 1 b 74 89 110 1 74 38 b 168 183 74 140 115 183 b 275 57 225 183 275 138 "},"<":{"ha":697,"x_min":0,"x_max":0,"o":"m 40 413 l 40 518 l 657 806 l 657 694 l 151 464 l 657 238 l 657 125 "},"=":{"ha":697,"x_min":0,"x_max":0,"o":"m 40 550 l 40 643 l 657 643 l 657 550 m 40 285 l 40 379 l 657 379 l 657 285 "},">":{"ha":697,"x_min":0,"x_max":0,"o":"m 40 125 l 40 238 l 547 464 l 40 694 l 40 806 l 657 518 l 657 413 "},"?":{"ha":638,"x_min":0,"x_max":0,"o":"m 263 272 b 214 392 229 304 214 346 b 438 696 214 561 438 578 b 306 796 438 750 394 796 b 113 699 219 796 158 758 l 18 803 b 321 940 89 890 196 940 b 603 722 496 940 603 847 b 356 376 603 517 356 500 b 386 314 356 354 367 328 l 263 272 m 313 -15 b 215 83 260 -15 215 31 b 313 179 215 135 260 179 b 410 83 365 179 410 135 b 313 -15 410 31 365 -15 "},"@":{"ha":1088,"x_min":0,"x_max":0,"o":"m 489 -97 b 49 339 236 -97 49 93 b 600 886 49 638 311 886 b 1038 454 865 886 1038 692 b 778 118 1038 229 897 118 b 647 225 697 118 654 169 l 646 235 b 438 118 597 165 518 118 b 222 349 304 118 222 214 b 542 693 222 538 379 693 b 718 593 629 693 689 649 l 733 672 l 864 672 l 789 317 b 786 286 788 310 786 293 b 843 219 786 242 811 219 b 983 456 897 219 983 282 b 596 835 983 678 831 835 b 101 342 329 835 101 601 b 496 -47 101 122 267 -47 b 750 31 592 -47 675 -18 l 778 -10 b 489 -97 692 -65 592 -97 m 485 224 b 661 329 567 224 626 279 l 697 504 b 572 588 683 540 643 588 b 358 358 449 588 358 475 b 485 224 358 279 406 224 "},"A":{"ha":935,"x_min":0,"x_max":0,"o":"m 749 0 l 681 179 l 256 179 l 188 0 l 3 0 l 367 926 l 569 926 l 933 0 m 468 764 l 301 322 l 635 322 "},"B":{"ha":901,"x_min":0,"x_max":0,"o":"m 99 0 l 99 926 l 554 926 b 818 690 725 926 818 821 b 657 478 818 575 743 496 b 836 251 757 463 836 364 b 567 0 836 107 742 0 m 522 544 b 651 664 604 544 651 593 b 522 783 651 732 604 783 l 261 783 l 261 544 l 522 544 m 529 143 b 669 272 617 143 669 192 b 529 401 669 342 621 401 l 261 401 l 261 143 l 529 143 "},"C":{"ha":947,"x_min":0,"x_max":0,"o":"m 544 -17 b 58 463 271 -17 58 178 b 544 942 58 749 271 942 b 915 735 731 942 847 846 l 778 663 b 544 797 733 740 643 797 b 225 463 361 797 225 658 b 544 128 225 269 361 128 b 778 263 643 128 733 186 l 917 193 b 544 -17 846 82 731 -17 "},"D":{"ha":986,"x_min":0,"x_max":0,"o":"m 99 0 l 99 926 l 443 926 b 928 464 733 926 928 735 b 444 0 928 190 733 0 m 443 143 b 761 464 644 143 761 288 b 444 783 761 642 650 783 l 261 783 l 261 143 l 443 143 "},"E":{"ha":801,"x_min":0,"x_max":0,"o":"m 99 0 l 99 926 l 733 926 l 733 783 l 261 783 l 261 544 l 724 544 l 724 401 l 261 401 l 261 143 l 733 143 l 733 0 "},"F":{"ha":782,"x_min":0,"x_max":0,"o":"m 99 0 l 99 926 l 733 926 l 733 783 l 261 783 l 261 544 l 724 544 l 724 401 l 261 401 l 261 0 "},"G":{"ha":996,"x_min":0,"x_max":0,"o":"m 544 -18 b 58 463 275 -18 58 172 b 544 942 58 754 275 942 b 917 750 725 942 843 856 l 785 674 b 544 797 735 743 647 797 b 225 463 361 797 225 658 b 544 128 225 269 361 128 b 764 211 639 128 722 171 l 764 354 l 486 354 l 486 497 l 925 497 l 925 151 b 544 -18 835 50 704 -18 "},"H":{"ha":1004,"x_min":0,"x_max":0,"o":"m 743 0 l 743 406 l 261 406 l 261 0 l 99 0 l 99 926 l 261 926 l 261 549 l 743 549 l 743 926 l 906 926 l 906 0 "},"I":{"ha":360,"x_min":0,"x_max":0,"o":"m 99 0 l 99 926 l 261 926 l 261 0 "},"J":{"ha":669,"x_min":0,"x_max":0,"o":"m 258 -17 b 11 82 163 -17 78 13 l 88 206 b 246 128 124 164 175 128 b 408 296 344 128 408 196 l 408 926 l 571 926 l 571 294 b 258 -17 571 83 438 -17 "},"K":{"ha":863,"x_min":0,"x_max":0,"o":"m 653 0 l 343 392 l 261 296 l 261 0 l 99 0 l 99 926 l 261 926 l 261 486 l 624 926 l 825 926 l 449 490 l 854 0 "},"L":{"ha":703,"x_min":0,"x_max":0,"o":"m 88 0 l 88 926 l 250 926 l 250 143 l 658 143 l 658 0 "},"M":{"ha":1160,"x_min":0,"x_max":0,"o":"m 899 0 l 899 715 l 615 0 l 546 0 l 261 715 l 261 0 l 99 0 l 99 926 l 328 926 l 581 290 l 832 926 l 1061 926 l 1061 0 "},"N":{"ha":1000,"x_min":0,"x_max":0,"o":"m 744 0 l 261 663 l 261 0 l 99 0 l 99 926 l 265 926 l 739 285 l 739 926 l 901 926 l 901 0 "},"O":{"ha":1063,"x_min":0,"x_max":0,"o":"m 532 -17 b 58 463 254 -17 58 186 b 532 942 58 739 254 942 b 1006 463 808 942 1006 739 b 532 -17 1006 186 808 -17 m 532 128 b 839 463 718 128 839 272 b 532 797 839 654 718 797 b 225 463 344 797 225 654 b 532 128 225 272 344 128 "},"P":{"ha":846,"x_min":0,"x_max":0,"o":"m 99 0 l 99 926 l 507 926 b 808 636 701 926 808 794 b 507 347 808 479 700 347 l 261 347 l 261 0 m 485 490 b 642 636 576 490 642 549 b 485 783 642 725 576 783 l 261 783 l 261 490 l 485 490 "},"Q":{"ha":1063,"x_min":0,"x_max":0,"o":"m 532 -17 b 58 463 254 -17 58 186 b 532 942 58 739 254 942 b 1006 463 808 942 1006 739 b 882 129 1006 329 960 214 l 958 43 l 846 -51 l 765 39 b 532 -17 697 3 618 -17 m 532 128 b 663 156 581 128 624 138 l 547 286 l 661 381 l 776 250 b 839 463 817 307 839 381 b 532 797 839 654 718 797 b 225 463 344 797 225 654 b 532 128 225 272 344 128 "},"R":{"ha":874,"x_min":0,"x_max":0,"o":"m 628 0 l 424 346 l 261 346 l 261 0 l 99 0 l 99 926 l 506 926 b 810 636 689 926 810 808 b 589 364 810 472 701 382 l 817 0 m 485 489 b 643 638 576 489 643 547 b 485 783 643 726 576 783 l 261 783 l 261 489 l 485 489 "},"S":{"ha":825,"x_min":0,"x_max":0,"o":"m 417 -17 b 39 131 246 -17 122 44 l 131 257 b 424 128 193 189 294 128 b 608 256 557 128 608 193 b 69 669 608 450 69 329 b 407 942 69 824 203 942 b 753 811 550 942 668 894 l 661 690 b 392 797 588 764 489 797 b 236 682 297 797 236 750 b 775 271 236 508 775 615 b 417 -17 775 117 665 -17 "},"T":{"ha":801,"x_min":0,"x_max":0,"o":"m 319 0 l 319 783 l 39 783 l 39 926 l 763 926 l 763 783 l 482 783 l 482 0 "},"U":{"ha":1000,"x_min":0,"x_max":0,"o":"m 500 -17 b 99 367 232 -17 99 138 l 99 926 l 264 926 l 264 371 b 500 128 264 224 346 128 b 736 371 654 128 736 224 l 736 926 l 901 926 l 901 367 b 500 -17 901 138 769 -17 "},"V":{"ha":935,"x_min":0,"x_max":0,"o":"m 367 0 l 3 926 l 188 926 l 468 178 l 749 926 l 933 926 l 569 0 "},"W":{"ha":1254,"x_min":0,"x_max":0,"o":"m 807 0 l 628 685 l 447 0 l 274 0 l 10 926 l 190 926 l 371 214 l 563 926 l 692 926 l 883 214 l 1064 926 l 1246 926 l 981 0 "},"X":{"ha":918,"x_min":0,"x_max":0,"o":"m 719 0 l 460 363 l 200 0 l 6 0 l 351 475 l 26 926 l 221 926 l 460 588 l 697 926 l 893 926 l 567 476 l 914 0 "},"Y":{"ha":885,"x_min":0,"x_max":0,"o":"m 363 0 l 363 385 l 3 926 l 189 926 l 443 531 l 697 926 l 883 926 l 525 385 l 525 0 "},"Z":{"ha":818,"x_min":0,"x_max":0,"o":"m 63 0 l 63 132 l 535 783 l 63 783 l 63 926 l 747 926 l 747 796 l 272 143 l 757 143 l 757 0 "},"[":{"ha":368,"x_min":0,"x_max":0,"o":"m 61 -264 l 61 942 l 343 942 l 343 842 l 169 842 l 169 -164 l 343 -164 l 343 -264 "},"\\":{"ha":438,"x_min":0,"x_max":0,"o":"m 0 954 l 108 954 l 438 -28 l 329 -28 "},"]":{"ha":368,"x_min":0,"x_max":0,"o":"m 25 -264 l 25 -164 l 199 -164 l 199 842 l 25 842 l 25 942 l 307 942 l 307 -264 "},"^":{"ha":607,"x_min":0,"x_max":0,"o":"m 469 463 l 304 825 l 139 463 l 26 463 l 251 926 l 358 926 l 581 463 "},"_":{"ha":783,"x_min":0,"x_max":0,"o":"m -4 -156 l -4 -56 l 788 -56 l 788 -156 "},"`":{"ha":333,"x_min":0,"x_max":0,"o":"m 229 772 l 0 972 l 139 972 l 333 772 "},"a":{"ha":746,"x_min":0,"x_max":0,"o":"m 506 0 l 506 74 b 288 -17 456 15 376 -17 b 56 206 179 -17 56 58 b 288 425 56 361 178 425 b 506 339 379 425 456 396 l 506 439 b 349 564 506 517 440 564 b 150 478 274 564 207 536 l 89 579 b 371 688 167 654 264 688 b 651 446 521 688 651 625 l 651 0 m 346 83 b 506 153 408 83 471 107 l 506 256 b 346 325 471 301 408 325 b 201 204 264 325 201 276 b 346 83 201 131 264 83 "},"b":{"ha":807,"x_min":0,"x_max":0,"o":"m 240 201 b 414 113 274 151 344 113 b 603 336 529 113 603 206 b 414 558 603 465 529 558 b 240 468 344 558 274 518 l 240 201 m 94 0 l 94 926 l 240 926 l 240 578 b 456 688 294 650 372 688 b 754 336 629 688 754 553 b 456 -17 754 114 628 -17 b 240 92 369 -17 292 25 l 240 0 "},"c":{"ha":692,"x_min":0,"x_max":0,"o":"m 400 -17 b 54 336 197 -17 54 133 b 400 688 54 539 197 688 b 657 568 532 688 610 632 l 561 481 b 407 558 524 533 472 558 b 204 336 286 558 204 467 b 407 113 204 206 286 113 b 561 193 472 113 524 140 l 657 103 b 400 -17 610 40 532 -17 "},"d":{"ha":807,"x_min":0,"x_max":0,"o":"m 567 0 l 567 92 b 351 -17 515 25 439 -17 b 54 336 181 -17 54 114 b 351 688 54 553 179 688 b 567 578 436 688 514 650 l 567 926 l 713 926 l 713 0 m 394 113 b 567 203 463 113 535 153 l 567 468 b 394 558 535 518 463 558 b 204 336 278 558 204 465 b 394 113 204 206 278 113 "},"e":{"ha":774,"x_min":0,"x_max":0,"o":"m 406 -17 b 54 336 203 -17 54 124 b 394 688 54 531 196 688 b 724 324 596 688 724 535 l 724 288 l 207 288 b 419 103 218 188 293 103 b 611 178 486 103 563 129 l 678 82 b 406 -17 610 18 511 -17 m 583 392 b 393 568 579 471 525 568 b 206 392 269 568 211 472 l 583 392 "},"f":{"ha":429,"x_min":0,"x_max":0,"o":"m 131 0 l 131 544 l 19 544 l 19 671 l 131 671 l 131 708 b 342 940 131 854 215 940 b 503 882 403 940 463 925 l 446 792 b 369 821 426 810 401 821 b 276 708 311 821 276 783 l 276 671 l 413 671 l 413 544 l 276 544 l 276 0 "},"g":{"ha":807,"x_min":0,"x_max":0,"o":"m 368 -272 b 86 -172 254 -272 169 -247 l 154 -67 b 368 -153 210 -129 279 -153 b 567 35 464 -153 567 -108 l 567 111 b 351 -1 515 43 439 -1 b 54 343 181 -1 54 122 b 351 688 54 561 178 688 b 567 578 436 688 513 650 l 567 671 l 713 671 l 713 35 b 368 -272 713 -207 532 -272 m 394 129 b 567 218 463 129 533 169 l 567 469 b 394 558 533 518 463 558 b 204 343 278 558 204 472 b 394 129 204 214 278 129 "},"h":{"ha":789,"x_min":0,"x_max":0,"o":"m 549 0 l 549 422 b 414 558 549 528 496 558 b 242 469 339 558 275 514 l 242 0 l 96 0 l 96 926 l 242 926 l 242 581 b 478 688 286 633 372 688 b 694 475 622 688 694 613 l 694 0 "},"i":{"ha":335,"x_min":0,"x_max":0,"o":"m 168 753 b 78 843 118 753 78 793 b 168 933 78 893 118 933 b 258 843 218 933 258 893 b 168 753 258 793 218 753 m 94 0 l 94 671 l 240 671 l 240 0 "},"j":{"ha":335,"x_min":0,"x_max":0,"o":"m 168 753 b 78 843 118 753 78 793 b 168 933 78 893 118 933 b 258 843 218 933 258 893 b 168 753 258 793 218 753 m 18 -272 b -140 -224 -60 -272 -94 -257 l -97 -115 b -4 -153 -72 -137 -46 -153 b 94 -39 54 -153 94 -118 l 94 671 l 240 671 l 240 -39 b 18 -272 240 -182 167 -272 "},"k":{"ha":732,"x_min":0,"x_max":0,"o":"m 539 0 l 335 278 l 240 181 l 240 0 l 94 0 l 94 926 l 240 926 l 240 347 l 536 671 l 717 671 l 439 367 l 722 0 "},"l":{"ha":335,"x_min":0,"x_max":0,"o":"m 94 0 l 94 926 l 240 926 l 240 0 "},"m":{"ha":1158,"x_min":0,"x_max":0,"o":"m 918 0 l 918 438 b 807 558 918 510 886 558 b 651 469 742 558 681 514 l 651 0 l 506 0 l 506 438 b 396 558 506 510 475 558 b 240 469 331 558 271 513 l 240 0 l 94 0 l 94 671 l 240 671 l 240 581 b 460 688 269 621 357 688 b 643 565 560 688 621 638 b 871 688 681 625 769 688 b 1064 485 993 688 1064 621 l 1064 0 "},"n":{"ha":789,"x_min":0,"x_max":0,"o":"m 549 0 l 549 419 b 413 558 549 525 494 558 b 240 469 339 558 275 514 l 240 0 l 94 0 l 94 671 l 240 671 l 240 581 b 478 688 285 633 372 688 b 694 472 622 688 694 610 l 694 0 "},"o":{"ha":797,"x_min":0,"x_max":0,"o":"m 399 -17 b 54 336 185 -17 54 144 b 399 688 54 529 185 688 b 743 336 613 688 743 529 b 399 -17 743 144 613 -17 m 399 113 b 592 336 524 113 592 217 b 399 558 592 454 524 558 b 206 336 275 558 206 454 b 399 113 206 217 275 113 "},"p":{"ha":804,"x_min":0,"x_max":0,"o":"m 456 -17 b 240 93 371 -17 296 22 l 240 -256 l 94 -256 l 94 671 l 240 671 l 240 579 b 456 688 290 646 368 688 b 753 336 629 688 753 557 b 456 -17 753 115 629 -17 m 413 113 b 603 336 528 113 603 206 b 413 558 603 467 528 558 b 240 469 344 558 274 519 l 240 204 b 413 113 272 154 344 113 "},"q":{"ha":804,"x_min":0,"x_max":0,"o":"m 392 113 b 564 204 460 113 532 154 l 564 469 b 392 558 531 519 460 558 b 201 336 276 558 201 467 b 392 113 201 206 276 113 m 349 -17 b 51 336 175 -17 51 115 b 349 688 51 557 175 688 b 564 579 436 688 514 646 l 564 671 l 710 671 l 710 -256 l 564 -256 l 564 93 b 349 -17 508 22 433 -17 "},"r":{"ha":482,"x_min":0,"x_max":0,"o":"m 94 0 l 94 671 l 240 671 l 240 574 b 458 688 292 638 372 688 l 458 543 b 414 547 446 546 432 547 b 240 457 351 547 269 506 l 240 0 "},"s":{"ha":656,"x_min":0,"x_max":0,"o":"m 325 -17 b 38 89 210 -17 107 21 l 104 193 b 331 100 151 144 244 100 b 464 189 418 100 464 136 b 58 485 464 321 58 226 b 322 688 58 594 153 688 b 582 594 436 688 522 647 l 521 492 b 322 572 481 536 407 572 b 199 489 246 572 199 536 b 604 193 199 371 604 460 b 325 -17 604 74 506 -17 "},"t":{"ha":443,"x_min":0,"x_max":0,"o":"m 297 -17 b 125 157 183 -17 125 44 l 125 544 l 14 544 l 14 671 l 125 671 l 125 854 l 271 854 l 271 671 l 407 671 l 407 544 l 271 544 l 271 193 b 335 113 271 147 293 113 b 399 138 363 113 388 125 l 433 26 b 297 -17 407 3 364 -17 "},"u":{"ha":788,"x_min":0,"x_max":0,"o":"m 547 0 l 547 89 b 311 -17 500 36 417 -17 b 94 196 167 -17 94 60 l 94 671 l 240 671 l 240 250 b 376 113 240 146 293 113 b 547 200 450 113 514 156 l 547 671 l 693 671 l 693 0 "},"v":{"ha":699,"x_min":0,"x_max":0,"o":"m 271 0 l -3 671 l 154 671 l 350 168 l 546 671 l 701 671 l 428 0 "},"w":{"ha":1049,"x_min":0,"x_max":0,"o":"m 681 0 l 524 492 l 368 0 l 215 0 l 7 671 l 158 671 l 300 183 l 460 671 l 589 671 l 747 183 l 889 671 l 1042 671 l 833 0 "},"x":{"ha":690,"x_min":0,"x_max":0,"o":"m 519 0 l 346 247 l 171 0 l 7 0 l 254 344 l 22 671 l 186 671 l 344 444 l 504 671 l 668 671 l 436 344 l 683 0 "},"y":{"ha":699,"x_min":0,"x_max":0,"o":"m 88 -132 b 143 -143 103 -139 126 -143 b 240 -85 190 -143 221 -129 l 274 -8 l -3 671 l 154 671 l 350 168 l 546 671 l 701 671 l 378 -121 b 149 -272 332 -235 253 -271 b 67 -262 128 -272 86 -268 "},"z":{"ha":661,"x_min":0,"x_max":0,"o":"m 65 0 l 65 111 l 396 544 l 65 544 l 65 671 l 592 671 l 592 565 l 256 128 l 597 128 l 597 0 "},"{":{"ha":385,"x_min":0,"x_max":0,"o":"m 276 -264 b 79 -58 175 -264 79 -186 l 79 201 b 7 296 79 253 56 296 l 7 382 b 79 476 56 382 79 425 l 79 735 b 276 942 79 863 175 942 l 361 942 l 361 842 l 276 842 b 186 736 228 842 186 800 l 186 463 b 124 339 186 404 169 358 b 186 215 169 319 186 274 l 186 -57 b 276 -164 186 -119 228 -164 l 361 -164 l 361 -264 "},"|":{"ha":297,"x_min":0,"x_max":0,"o":"m 99 -28 l 99 954 l 199 954 l 199 -28 "},"}":{"ha":385,"x_min":0,"x_max":0,"o":"m 24 -164 l 108 -164 b 199 -57 157 -164 199 -119 l 199 215 b 261 339 199 274 215 319 b 199 463 215 358 199 404 l 199 736 b 108 842 199 800 157 842 l 24 842 l 24 942 l 108 942 b 306 735 210 942 306 863 l 306 476 b 378 382 306 425 329 382 l 378 296 b 306 201 329 296 306 253 l 306 -58 b 108 -264 306 -186 210 -264 l 24 -264 "},"~":{"ha":704,"x_min":0,"x_max":0,"o":"m 668 915 b 468 579 653 749 615 579 b 238 832 290 579 332 832 b 140 578 176 832 151 714 l 38 590 b 238 925 51 757 92 925 b 468 671 415 925 374 671 b 567 926 529 671 554 789 "},"Ä":{"ha":935,"x_min":0,"x_max":0,"o":"m 696 1083 b 614 1003 696 1039 660 1003 b 533 1083 569 1003 533 1039 b 614 1165 533 1129 569 1165 b 696 1083 660 1165 696 1129 m 406 1083 b 324 1003 406 1039 369 1003 b 242 1083 279 1003 242 1039 b 324 1165 242 1129 279 1165 b 406 1083 369 1165 406 1129 m 749 0 l 681 179 l 256 179 l 188 0 l 3 0 l 367 926 l 569 926 l 933 0 m 468 764 l 301 322 l 635 322 "},"Å":{"ha":935,"x_min":0,"x_max":0,"o":"m 469 963 b 326 1104 392 963 326 1026 b 469 1247 326 1182 392 1247 b 610 1104 547 1247 610 1182 b 469 963 610 1026 547 963 m 469 1032 b 540 1104 508 1032 540 1065 b 469 1176 540 1144 508 1176 b 397 1104 429 1176 397 1144 b 469 1032 397 1065 429 1032 m 749 0 l 681 179 l 256 179 l 188 0 l 3 0 l 367 926 l 569 926 l 933 0 m 468 764 l 301 322 l 635 322 "},"Ç":{"ha":947,"x_min":0,"x_max":0,"o":"m 536 -264 b 389 -221 474 -264 418 -243 l 421 -157 b 533 -197 456 -185 494 -197 b 610 -147 574 -197 610 -181 b 565 -106 610 -121 594 -106 b 517 -126 546 -106 528 -114 l 461 -94 l 490 -14 b 58 463 243 10 58 197 b 544 942 58 749 271 942 b 915 735 731 942 847 846 l 778 663 b 544 797 733 740 643 797 b 225 463 361 797 225 658 b 544 128 225 269 361 128 b 778 263 643 128 733 186 l 917 193 b 564 -17 849 86 739 -10 l 544 -68 b 594 -53 558 -58 576 -53 b 686 -149 646 -53 686 -92 b 536 -264 686 -219 619 -264 "},"É":{"ha":801,"x_min":0,"x_max":0,"o":"m 417 1011 l 313 1011 l 507 1211 l 646 1211 m 99 0 l 99 926 l 733 926 l 733 783 l 261 783 l 261 544 l 724 544 l 724 401 l 261 401 l 261 143 l 733 143 l 733 0 "},"Ñ":{"ha":1000,"x_min":0,"x_max":0,"o":"m 578 1008 b 413 1117 482 1008 471 1117 b 356 1017 381 1117 356 1086 l 275 1017 b 418 1203 275 1131 325 1203 b 583 1094 515 1203 525 1094 b 642 1194 615 1094 642 1125 l 721 1194 b 578 1008 721 1081 671 1008 m 744 0 l 261 663 l 261 0 l 99 0 l 99 926 l 265 926 l 739 285 l 739 926 l 901 926 l 901 0 "},"Ö":{"ha":1063,"x_min":0,"x_max":0,"o":"m 760 1083 b 678 1003 760 1039 724 1003 b 597 1083 633 1003 597 1039 b 678 1165 597 1129 633 1165 b 760 1083 724 1165 760 1129 m 469 1083 b 388 1003 469 1039 433 1003 b 306 1083 343 1003 306 1039 b 388 1165 306 1129 343 1165 b 469 1083 433 1165 469 1129 m 532 -17 b 58 463 254 -17 58 186 b 532 942 58 739 254 942 b 1006 463 808 942 1006 739 b 532 -17 1006 186 808 -17 m 532 128 b 839 463 718 128 839 272 b 532 797 839 654 718 797 b 225 463 344 797 225 654 b 532 128 225 272 344 128 "},"Ü":{"ha":1000,"x_min":0,"x_max":0,"o":"m 729 1083 b 647 1003 729 1039 693 1003 b 567 1083 603 1003 567 1039 b 647 1165 567 1129 603 1165 b 729 1083 693 1165 729 1129 m 439 1083 b 357 1003 439 1039 403 1003 b 275 1083 313 1003 275 1039 b 357 1165 275 1129 313 1165 b 439 1083 403 1165 439 1129 m 500 -17 b 99 367 232 -17 99 138 l 99 926 l 264 926 l 264 371 b 500 128 264 224 346 128 b 736 371 654 128 736 224 l 736 926 l 901 926 l 901 367 b 500 -17 901 138 769 -17 "},"á":{"ha":746,"x_min":0,"x_max":0,"o":"m 506 0 l 506 74 b 288 -17 456 15 376 -17 b 56 206 179 -17 56 58 b 288 425 56 361 178 425 b 506 339 379 425 456 396 l 506 439 b 349 564 506 517 440 564 b 150 478 274 564 207 536 l 89 579 b 371 688 167 654 264 688 b 651 446 521 688 651 625 l 651 0 m 346 83 b 506 153 408 83 471 107 l 506 256 b 346 325 471 301 408 325 b 201 204 264 325 201 276 b 346 83 201 131 264 83 m 376 772 l 272 772 l 467 972 l 606 972 "},"à":{"ha":746,"x_min":0,"x_max":0,"o":"m 506 0 l 506 74 b 288 -17 456 15 376 -17 b 56 206 179 -17 56 58 b 288 425 56 361 178 425 b 506 339 379 425 456 396 l 506 439 b 349 564 506 517 440 564 b 150 478 274 564 207 536 l 89 579 b 371 688 167 654 264 688 b 651 446 521 688 651 625 l 651 0 m 346 83 b 506 153 408 83 471 107 l 506 256 b 346 325 471 301 408 325 b 201 204 264 325 201 276 b 346 83 201 131 264 83 m 372 772 l 143 972 l 282 972 l 476 772 "},"â":{"ha":746,"x_min":0,"x_max":0,"o":"m 506 0 l 506 74 b 288 -17 456 15 376 -17 b 56 206 179 -17 56 58 b 288 425 56 361 178 425 b 506 339 379 425 456 396 l 506 439 b 349 564 506 517 440 564 b 150 478 274 564 207 536 l 89 579 b 371 688 167 654 264 688 b 651 446 521 688 651 625 l 651 0 m 346 83 b 506 153 408 83 471 107 l 506 256 b 346 325 471 301 408 325 b 201 204 264 325 201 276 b 346 83 201 131 264 83 m 483 772 l 375 907 l 272 772 l 179 772 l 308 972 l 442 972 l 575 772 "},"ä":{"ha":746,"x_min":0,"x_max":0,"o":"m 506 0 l 506 74 b 288 -17 456 15 376 -17 b 56 206 179 -17 56 58 b 288 425 56 361 178 425 b 506 339 379 425 456 396 l 506 439 b 349 564 506 517 440 564 b 150 478 274 564 207 536 l 89 579 b 371 688 167 654 264 688 b 651 446 521 688 651 625 l 651 0 m 346 83 b 506 153 408 83 471 107 l 506 256 b 346 325 471 301 408 325 b 201 204 264 325 201 276 b 346 83 201 131 264 83 m 597 844 b 515 764 597 800 561 764 b 435 844 471 764 435 800 b 515 926 435 890 471 926 b 597 844 561 926 597 890 m 307 844 b 225 764 307 800 271 764 b 143 844 181 764 143 800 b 225 926 143 890 181 926 b 307 844 271 926 307 890 "},"ã":{"ha":746,"x_min":0,"x_max":0,"o":"m 506 0 l 506 74 b 288 -17 456 15 376 -17 b 56 206 179 -17 56 58 b 288 425 56 361 178 425 b 506 339 379 425 456 396 l 506 439 b 349 564 506 517 440 564 b 150 478 274 564 207 536 l 89 579 b 371 688 167 654 264 688 b 651 446 521 688 651 625 l 651 0 m 346 83 b 506 153 408 83 471 107 l 506 256 b 346 325 471 301 408 325 b 201 204 264 325 201 276 b 346 83 201 131 264 83 m 453 769 b 288 878 357 769 346 878 b 231 778 256 878 231 847 l 150 778 b 293 964 150 892 200 964 b 458 856 390 964 400 856 b 517 956 490 856 517 886 l 596 956 b 453 769 596 842 546 769 "},"å":{"ha":746,"x_min":0,"x_max":0,"o":"m 506 0 l 506 74 b 288 -17 456 15 376 -17 b 56 206 179 -17 56 58 b 288 425 56 361 178 425 b 506 339 379 425 456 396 l 506 439 b 349 564 506 517 440 564 b 150 478 274 564 207 536 l 89 579 b 371 688 167 654 264 688 b 651 446 521 688 651 625 l 651 0 m 346 83 b 506 153 408 83 471 107 l 506 256 b 346 325 471 301 408 325 b 201 204 264 325 201 276 b 346 83 201 131 264 83 m 375 756 b 232 897 297 756 232 819 b 375 1040 232 975 297 1040 b 515 897 453 1040 515 975 b 375 756 515 819 453 756 m 375 825 b 446 897 414 825 446 858 b 375 969 446 938 414 969 b 303 897 335 969 303 938 b 375 825 303 858 335 825 "},"ç":{"ha":692,"x_min":0,"x_max":0,"o":"m 404 -267 b 257 -224 342 -267 286 -246 l 289 -160 b 401 -200 324 -187 363 -200 b 478 -150 442 -200 478 -183 b 433 -108 478 -124 463 -108 b 385 -129 414 -108 396 -117 l 329 -97 l 358 -14 b 54 336 178 4 54 147 b 400 688 54 539 197 688 b 657 568 532 688 610 632 l 561 481 b 407 558 524 533 472 558 b 204 336 286 558 204 467 b 407 113 204 206 286 113 b 561 193 472 113 524 140 l 657 103 b 433 -15 614 46 546 -6 l 413 -71 b 463 -56 426 -61 444 -56 b 554 -151 514 -56 554 -94 b 404 -267 554 -222 488 -267 "},"é":{"ha":774,"x_min":0,"x_max":0,"o":"m 406 -17 b 54 336 203 -17 54 124 b 394 688 54 531 196 688 b 724 324 596 688 724 535 l 724 288 l 207 288 b 419 103 218 188 293 103 b 611 178 486 103 563 129 l 678 82 b 406 -17 610 18 511 -17 m 583 392 b 393 568 579 471 525 568 b 206 392 269 568 211 472 l 583 392 m 396 772 l 292 772 l 486 972 l 625 972 "},"è":{"ha":774,"x_min":0,"x_max":0,"o":"m 406 -17 b 54 336 203 -17 54 124 b 394 688 54 531 196 688 b 724 324 596 688 724 535 l 724 288 l 207 288 b 419 103 218 188 293 103 b 611 178 486 103 563 129 l 678 82 b 406 -17 610 18 511 -17 m 583 392 b 393 568 579 471 525 568 b 206 392 269 568 211 472 l 583 392 m 394 772 l 165 972 l 304 972 l 499 772 "},"ê":{"ha":774,"x_min":0,"x_max":0,"o":"m 406 -17 b 54 336 203 -17 54 124 b 394 688 54 531 196 688 b 724 324 596 688 724 535 l 724 288 l 207 288 b 419 103 218 188 293 103 b 611 178 486 103 563 129 l 678 82 b 406 -17 610 18 511 -17 m 583 392 b 393 568 579 471 525 568 b 206 392 269 568 211 472 l 583 392 m 503 772 l 394 907 l 292 772 l 199 772 l 328 972 l 461 972 l 594 772 "},"ë":{"ha":774,"x_min":0,"x_max":0,"o":"m 406 -17 b 54 336 203 -17 54 124 b 394 688 54 531 196 688 b 724 324 596 688 724 535 l 724 288 l 207 288 b 419 103 218 188 293 103 b 611 178 486 103 563 129 l 678 82 b 406 -17 610 18 511 -17 m 583 392 b 393 568 579 471 525 568 b 206 392 269 568 211 472 l 583 392 m 622 844 b 540 764 622 800 586 764 b 460 844 496 764 460 800 b 540 926 460 890 496 926 b 622 844 586 926 622 890 m 332 844 b 250 764 332 800 296 764 b 168 844 206 764 168 800 b 250 926 168 890 206 926 b 332 844 296 926 332 890 "},"í":{"ha":335,"x_min":0,"x_max":0,"o":"m 168 772 l 64 772 l 258 972 l 397 972 m 94 0 l 94 671 l 240 671 l 240 0 "},"ì":{"ha":335,"x_min":0,"x_max":0,"o":"m 167 772 l -62 972 l 76 972 l 271 772 m 94 0 l 94 671 l 240 671 l 240 0 "},"î":{"ha":335,"x_min":0,"x_max":0,"o":"m 274 772 l 165 907 l 63 772 l -31 772 l 99 972 l 232 972 l 365 772 m 94 0 l 94 671 l 240 671 l 240 0 "},"ï":{"ha":335,"x_min":0,"x_max":0,"o":"m 394 844 b 313 764 394 800 358 764 b 232 844 268 764 232 800 b 313 926 232 890 268 926 b 394 844 358 926 394 890 m 104 844 b 22 764 104 800 68 764 b -60 844 -22 764 -60 800 b 22 926 -60 890 -22 926 b 104 844 68 926 104 890 m 94 0 l 94 671 l 240 671 l 240 0 "},"ñ":{"ha":789,"x_min":0,"x_max":0,"o":"m 556 0 l 556 419 b 419 558 556 525 501 558 b 247 469 346 558 282 514 l 247 0 l 101 0 l 101 671 l 247 671 l 247 581 b 485 688 292 633 379 688 b 701 472 629 688 701 610 l 701 0 m 475 769 b 310 878 379 769 368 878 b 253 778 278 878 253 847 l 172 778 b 315 964 172 892 222 964 b 481 856 413 964 422 856 b 539 956 513 856 539 886 l 618 956 b 475 769 618 842 568 769 "},"ó":{"ha":797,"x_min":0,"x_max":0,"o":"m 399 -17 b 54 336 185 -17 54 144 b 399 688 54 529 185 688 b 743 336 613 688 743 529 b 399 -17 743 144 613 -17 m 399 113 b 592 336 524 113 592 217 b 399 558 592 454 524 558 b 206 336 275 558 206 454 b 399 113 206 217 275 113 m 399 772 l 294 772 l 489 972 l 628 972 "},"ò":{"ha":797,"x_min":0,"x_max":0,"o":"m 399 -17 b 54 336 185 -17 54 144 b 399 688 54 529 185 688 b 743 336 613 688 743 529 b 399 -17 743 144 613 -17 m 399 113 b 592 336 524 113 592 217 b 399 558 592 454 524 558 b 206 336 275 558 206 454 b 399 113 206 217 275 113 m 399 772 l 169 972 l 308 972 l 503 772 "},"ô":{"ha":797,"x_min":0,"x_max":0,"o":"m 399 -17 b 54 336 185 -17 54 144 b 399 688 54 529 185 688 b 743 336 613 688 743 529 b 399 -17 743 144 613 -17 m 399 113 b 592 336 524 113 592 217 b 399 558 592 454 524 558 b 206 336 275 558 206 454 b 399 113 206 217 275 113 m 507 772 l 399 907 l 296 772 l 203 772 l 332 972 l 465 972 l 599 772 "},"ö":{"ha":797,"x_min":0,"x_max":0,"o":"m 399 -17 b 54 336 185 -17 54 144 b 399 688 54 529 185 688 b 743 336 613 688 743 529 b 399 -17 743 144 613 -17 m 399 113 b 592 336 524 113 592 217 b 399 558 592 454 524 558 b 206 336 275 558 206 454 b 399 113 206 217 275 113 m 625 844 b 543 764 625 800 589 764 b 463 844 499 764 463 800 b 543 926 463 890 499 926 b 625 844 589 926 625 890 m 335 844 b 253 764 335 800 299 764 b 171 844 208 764 171 800 b 253 926 171 890 208 926 b 335 844 299 926 335 890 "},"õ":{"ha":797,"x_min":0,"x_max":0,"o":"m 399 -17 b 54 336 185 -17 54 144 b 399 688 54 529 185 688 b 743 336 613 688 743 529 b 399 -17 743 144 613 -17 m 399 113 b 592 336 524 113 592 217 b 399 558 592 454 524 558 b 206 336 275 558 206 454 b 399 113 206 217 275 113 m 479 769 b 314 878 383 769 372 878 b 257 778 282 878 257 847 l 176 778 b 319 964 176 892 226 964 b 485 856 417 964 426 856 b 543 956 517 856 543 886 l 622 956 b 479 769 622 842 572 769 "},"ú":{"ha":788,"x_min":0,"x_max":0,"o":"m 547 0 l 547 89 b 311 -17 500 36 417 -17 b 94 196 167 -17 94 60 l 94 671 l 240 671 l 240 250 b 376 113 240 146 293 113 b 547 200 450 113 514 156 l 547 671 l 693 671 l 693 0 m 396 772 l 292 772 l 486 972 l 625 972 "},"ù":{"ha":788,"x_min":0,"x_max":0,"o":"m 547 0 l 547 89 b 311 -17 500 36 417 -17 b 94 196 167 -17 94 60 l 94 671 l 240 671 l 240 250 b 376 113 240 146 293 113 b 547 200 450 113 514 156 l 547 671 l 693 671 l 693 0 m 397 772 l 168 972 l 307 972 l 501 772 "},"û":{"ha":788,"x_min":0,"x_max":0,"o":"m 547 0 l 547 89 b 311 -17 500 36 417 -17 b 94 196 167 -17 94 60 l 94 671 l 240 671 l 240 250 b 376 113 240 146 293 113 b 547 200 450 113 514 156 l 547 671 l 693 671 l 693 0 m 501 772 l 393 907 l 290 772 l 197 772 l 326 972 l 460 972 l 593 772 "},"ü":{"ha":788,"x_min":0,"x_max":0,"o":"m 547 0 l 547 89 b 311 -17 500 36 417 -17 b 94 196 167 -17 94 60 l 94 671 l 240 671 l 240 250 b 376 113 240 146 293 113 b 547 200 450 113 514 156 l 547 671 l 693 671 l 693 0 m 625 844 b 543 764 625 800 589 764 b 463 844 499 764 463 800 b 543 926 463 890 499 926 b 625 844 589 926 625 890 m 335 844 b 253 764 335 800 299 764 b 171 844 208 764 171 800 b 253 926 171 890 208 926 b 335 844 299 926 335 890 "},"†":{"ha":376,"x_min":0,"x_max":0,"o":"m 224 736 l 229 454 l 147 454 l 153 736 l 29 731 l 29 806 l 153 801 l 147 940 l 229 940 l 224 801 l 347 806 l 347 731 "},"°":{"ha":419,"x_min":0,"x_max":0,"o":"m 390 760 b 210 581 390 661 308 581 b 31 760 110 581 31 661 b 210 940 31 860 110 940 b 390 760 308 940 390 860 m 307 760 b 210 857 307 813 263 857 b 114 760 157 857 114 813 b 210 665 114 707 157 665 b 307 760 263 665 307 707 "},"¢":{"ha":692,"x_min":0,"x_max":0,"o":"m 342 -12 b 54 336 169 13 54 153 b 342 683 54 518 169 657 l 342 785 l 450 785 l 450 685 b 657 568 551 672 615 624 l 561 481 b 450 554 532 521 494 544 l 450 117 b 561 193 494 126 532 151 l 657 103 b 450 -14 615 49 551 -1 l 450 -139 l 342 -139 m 204 336 b 342 122 204 231 257 149 l 342 549 b 204 336 257 521 204 442 "},"£":{"ha":744,"x_min":0,"x_max":0,"o":"m 31 469 l 146 469 b 65 660 106 522 65 578 b 390 940 65 826 225 940 b 694 778 533 940 640 885 l 565 701 b 408 807 543 761 482 807 b 242 657 317 807 242 749 b 328 469 242 572 290 526 l 532 469 l 532 374 l 371 374 b 375 332 374 360 375 347 b 278 165 375 258 331 201 b 347 178 299 174 325 178 b 539 126 432 178 467 126 b 664 179 599 126 646 154 l 731 50 b 533 -18 692 11 628 -18 b 282 44 410 -18 375 44 b 121 -10 235 44 176 21 l 65 106 b 229 294 165 151 229 218 b 211 374 229 324 222 349 l 31 374 "},"§":{"ha":663,"x_min":0,"x_max":0,"o":"m 604 446 b 482 269 604 371 561 306 b 604 100 554 239 604 190 b 325 -112 604 -35 486 -112 b 39 -4 186 -112 100 -61 l 104 90 b 325 -10 149 42 229 -10 b 464 88 407 -10 464 26 b 58 397 464 238 58 143 b 204 571 58 492 132 550 b 58 746 113 604 58 658 b 321 940 58 854 161 940 b 582 844 453 940 535 894 l 521 758 b 328 838 474 810 399 838 b 199 747 250 838 199 803 b 604 446 199 613 604 708 m 460 422 b 326 533 460 490 394 517 b 199 417 226 510 199 468 b 364 304 199 343 281 324 b 460 422 426 332 460 367 "},"•":{"ha":497,"x_min":0,"x_max":0,"o":"m 408 336 b 250 179 408 250 338 179 b 92 336 163 179 92 250 b 250 494 92 424 163 494 b 408 336 338 494 408 424 "},"¶":{"ha":624,"x_min":0,"x_max":0,"o":"m 468 -139 l 468 850 l 353 850 l 353 -139 l 276 -139 l 276 449 b 38 688 144 449 38 556 b 276 926 38 819 144 926 l 544 926 l 544 -139 "},"ß":{"ha":865,"x_min":0,"x_max":0,"o":"m 842 196 b 572 -17 842 78 744 -17 b 306 93 438 -17 368 33 l 369 193 b 572 101 408 143 486 101 b 701 190 660 101 701 143 b 324 486 701 321 324 236 b 508 732 324 632 508 658 b 388 811 508 785 447 811 b 242 674 306 811 242 760 l 242 0 l 96 0 l 96 674 b 390 940 96 819 206 940 b 658 751 529 940 658 868 b 464 490 658 597 464 586 b 842 196 464 372 842 461 "},"®":{"ha":686,"x_min":0,"x_max":0,"o":"m 638 646 b 343 351 638 483 507 351 b 49 646 181 351 49 483 b 343 940 49 810 181 940 b 638 646 507 940 638 810 m 596 646 b 343 899 596 788 483 899 b 92 646 204 899 92 788 b 343 394 92 508 204 394 b 596 646 483 394 596 508 m 424 476 l 336 610 l 276 610 l 276 476 l 231 476 l 231 814 l 368 814 b 476 711 425 814 476 774 b 390 611 476 636 410 611 l 481 476 m 429 711 b 368 774 429 749 397 774 l 276 774 l 276 651 l 368 651 b 429 711 397 651 429 676 "},"©":{"ha":1081,"x_min":0,"x_max":0,"o":"m 1019 464 b 540 -15 1019 200 806 -15 b 61 464 276 -15 61 200 b 540 943 61 729 276 943 b 1019 464 806 943 1019 729 m 972 464 b 540 896 972 703 779 896 b 108 464 304 896 108 703 b 540 32 108 228 304 32 b 972 464 779 32 972 228 m 751 264 b 546 169 701 206 632 169 b 257 467 386 169 257 297 b 546 760 257 636 386 760 b 750 668 632 760 701 725 l 711 628 b 546 708 675 676 611 708 b 315 465 422 708 315 610 b 546 221 315 325 422 221 b 711 303 613 221 675 254 "},"™":{"ha":631,"x_min":0,"x_max":0,"o":"m 543 621 l 543 874 l 439 621 l 428 621 l 324 874 l 324 621 l 285 621 l 285 926 l 344 926 l 433 704 l 522 926 l 582 926 l 582 621 m 149 890 l 149 621 l 110 621 l 110 890 l 24 890 l 24 926 l 235 926 l 235 890 "},"´":{"ha":333,"x_min":0,"x_max":0,"o":"m 104 772 l 0 772 l 194 972 l 333 972 "},"¨":{"ha":396,"x_min":0,"x_max":0,"o":"m 425 844 b 343 764 425 800 389 764 b 263 844 299 764 263 800 b 343 926 263 890 299 926 b 425 844 389 926 425 890 m 135 844 b 53 764 135 800 99 764 b -29 844 8 764 -29 800 b 53 926 -29 890 8 926 b 135 844 99 926 135 890 "},"≠":{"ha":697,"x_min":0,"x_max":0,"o":"m 90 129 l 189 285 l 40 285 l 40 379 l 249 379 l 358 550 l 40 550 l 40 643 l 417 643 l 515 797 l 608 797 l 510 643 l 657 643 l 657 550 l 450 550 l 342 379 l 657 379 l 657 285 l 281 285 l 182 129 "},"Æ":{"ha":1333,"x_min":0,"x_max":0,"o":"m 632 0 l 632 179 l 290 179 l 183 0 l -3 0 l 567 926 l 1267 926 l 1267 783 l 794 783 l 794 544 l 1257 544 l 1257 401 l 794 401 l 794 143 l 1267 143 l 1267 0 m 632 764 l 367 322 l 632 322 "},"Ø":{"ha":1063,"x_min":0,"x_max":0,"o":"m 532 -17 b 283 47 438 -17 354 6 l 249 0 l 128 0 l 204 106 b 58 463 113 192 58 317 b 532 942 58 739 254 942 b 768 883 619 942 700 921 l 799 926 l 919 926 l 849 828 b 1006 463 947 742 1006 613 b 532 -17 1006 186 808 -17 m 532 128 b 839 463 718 128 839 272 b 756 701 839 557 808 642 l 372 169 b 532 128 417 143 471 128 m 225 463 b 297 235 225 374 250 294 l 679 761 b 532 797 636 785 588 797 b 225 463 344 797 225 654 "},"∞":{"ha":939,"x_min":0,"x_max":0,"o":"m 265 228 b 40 467 107 228 40 351 b 265 706 40 582 107 706 b 469 560 358 706 431 639 b 674 706 507 639 581 706 b 899 465 833 706 899 582 b 674 228 899 351 833 228 b 469 372 581 228 507 293 b 265 228 431 293 358 228 m 663 321 b 797 465 744 321 797 381 b 663 613 797 551 744 613 b 513 465 590 613 540 540 b 663 321 540 390 590 321 m 276 321 b 426 467 349 321 400 392 b 276 613 400 542 349 613 b 142 467 194 613 142 553 b 276 321 142 381 194 321 "},"±":{"ha":697,"x_min":0,"x_max":0,"o":"m 400 451 l 400 164 l 297 164 l 297 451 l 40 451 l 40 546 l 297 546 l 297 824 l 400 824 l 400 546 l 657 546 l 657 451 m 40 0 l 40 94 l 657 94 l 657 0 "},"≤":{"ha":697,"x_min":0,"x_max":0,"o":"m 40 433 l 40 539 l 657 826 l 657 715 l 151 485 l 657 258 l 657 146 m 40 0 l 40 94 l 657 94 l 657 0 "},"≥":{"ha":697,"x_min":0,"x_max":0,"o":"m 40 146 l 40 258 l 546 485 l 40 715 l 40 826 l 657 539 l 657 433 m 40 0 l 40 94 l 657 94 l 657 0 "},"¥":{"ha":885,"x_min":0,"x_max":0,"o":"m 363 0 l 363 164 l 32 164 l 32 258 l 363 258 l 363 385 l 32 385 l 32 479 l 300 479 l 3 926 l 189 926 l 443 531 l 697 926 l 883 926 l 588 479 l 854 479 l 854 385 l 525 385 l 525 258 l 854 258 l 854 164 l 525 164 l 525 0 "},"µ":{"ha":788,"x_min":0,"x_max":0,"o":"m 94 -256 l 94 671 l 240 671 l 240 250 b 376 111 240 146 293 111 b 547 200 450 111 514 156 l 547 671 l 693 671 l 693 0 l 547 0 l 547 89 b 311 -17 500 36 417 -17 b 240 -10 285 -17 261 -14 l 240 -256 "},"∂":{"ha":797,"x_min":0,"x_max":0,"o":"m 399 -17 b 54 318 185 -17 54 135 b 354 650 54 500 179 650 b 569 539 444 650 517 618 b 246 864 518 661 411 781 l 360 949 b 743 351 547 843 743 624 b 399 -17 743 135 613 -17 m 399 113 b 592 318 524 113 592 206 b 399 522 592 429 524 522 b 206 318 275 522 206 429 b 399 113 206 206 275 113 "},"∑":{"ha":808,"x_min":0,"x_max":0,"o":"m 567 414 l 264 18 l 740 18 l 740 -125 l 68 -125 l 68 18 l 367 413 l 69 785 l 69 926 l 740 926 l 740 783 l 272 783 "},"∏":{"ha":1047,"x_min":0,"x_max":0,"o":"m 697 -125 l 697 783 l 350 783 l 350 -125 l 188 -125 l 188 783 l 39 783 l 39 926 l 1008 926 l 1008 783 l 860 783 l 860 -125 "},"π":{"ha":826,"x_min":0,"x_max":0,"o":"m 540 0 l 540 565 l 288 565 l 288 0 l 140 0 l 140 565 l 39 565 l 39 694 l 788 694 l 788 565 l 688 565 l 688 0 "},"∫":{"ha":504,"x_min":0,"x_max":0,"o":"m 24 -139 l 24 -39 l 108 -39 b 199 68 157 -39 199 6 l 199 860 b 396 1067 199 988 294 1067 l 481 1067 l 481 967 l 396 967 b 306 861 347 967 306 925 l 306 68 b 108 -139 306 -61 210 -139 "},"ª":{"ha":531,"x_min":0,"x_max":0,"o":"m 349 453 l 349 500 b 203 442 319 468 272 442 b 49 586 129 442 49 492 b 203 728 49 683 129 728 b 349 674 272 728 319 704 l 349 738 b 246 818 349 788 304 818 b 115 758 200 818 151 800 l 72 829 b 263 900 125 878 193 900 b 456 735 364 900 456 860 l 456 453 m 247 511 b 349 556 286 511 326 526 l 349 617 b 247 661 326 646 286 661 b 156 586 196 661 156 633 b 247 511 156 538 196 511 "},"º":{"ha":563,"x_min":0,"x_max":0,"o":"m 281 442 b 47 671 138 442 47 547 b 281 900 47 796 138 900 b 515 671 426 900 515 796 b 281 442 515 547 426 442 m 281 529 b 406 671 360 529 406 589 b 281 811 406 754 360 811 b 160 671 204 811 160 754 b 281 529 160 589 204 529 "},"Ω":{"ha":1063,"x_min":0,"x_max":0,"o":"m 83 143 l 260 143 b 58 497 153 217 58 335 b 532 942 58 763 254 942 b 1006 497 810 942 1006 763 b 803 143 1006 335 910 217 l 981 143 l 981 0 l 625 0 l 625 143 b 839 464 743 175 839 296 b 532 796 839 636 739 796 b 225 464 325 796 225 636 b 439 143 225 296 321 175 l 439 0 l 83 0 "},"æ":{"ha":1219,"x_min":0,"x_max":0,"o":"m 653 288 b 865 106 664 188 739 106 b 1057 181 932 106 1008 133 l 1124 82 b 851 -17 1056 18 957 -17 b 574 113 728 -17 632 38 b 299 -17 522 47 431 -17 b 56 204 179 -17 56 57 b 288 425 56 351 167 425 b 506 340 376 425 454 397 l 506 439 b 349 564 506 517 440 564 b 150 478 274 564 207 536 l 89 579 b 371 688 167 654 264 688 b 600 563 492 688 568 646 b 847 688 647 632 722 688 b 1169 324 1042 688 1169 535 l 1169 288 m 1029 392 b 839 568 1025 471 971 568 b 651 392 715 568 657 474 m 522 179 b 506 253 514 194 506 228 b 346 325 471 300 408 325 b 201 204 264 325 201 276 b 346 83 201 131 264 83 b 522 179 408 83 481 107 "},"ø":{"ha":797,"x_min":0,"x_max":0,"o":"m 71 0 l 144 89 b 54 336 86 153 54 240 b 399 688 54 529 185 688 b 592 633 474 688 539 667 l 624 671 l 719 671 l 649 586 b 743 336 710 522 743 433 b 399 -17 743 144 613 -17 b 200 42 319 -17 253 4 l 165 0 m 399 113 b 592 336 524 113 592 217 b 556 472 592 386 579 433 l 288 149 b 399 113 318 126 354 113 m 206 336 b 239 203 206 288 217 240 l 504 526 b 399 558 476 546 440 558 b 206 336 275 558 206 454 "},"¿":{"ha":550,"x_min":0,"x_max":0,"o":"m 375 397 b 424 278 408 365 424 324 b 200 -28 424 108 200 92 b 332 -128 200 -82 243 -128 b 525 -31 418 -128 479 -89 l 619 -135 b 317 -272 549 -221 442 -272 b 35 -54 142 -272 35 -179 b 282 293 35 153 282 169 b 251 356 282 315 271 342 l 375 397 m 325 686 b 422 589 378 686 422 642 b 325 492 422 536 378 492 b 228 589 272 492 228 536 b 325 686 228 642 272 686 "},"¡":{"ha":339,"x_min":0,"x_max":0,"o":"m 106 388 l 232 388 l 258 -256 l 81 -256 m 72 589 b 169 686 72 642 117 686 b 265 589 222 686 265 642 b 169 493 265 538 222 493 b 72 589 117 493 72 538 "},"¬":{"ha":710,"x_min":0,"x_max":0,"o":"m 657 285 l 560 285 l 560 550 l 40 550 l 40 643 l 657 643 "},"√":{"ha":974,"x_min":0,"x_max":0,"o":"m 474 0 l 307 435 l 111 361 l 82 451 l 371 556 l 526 147 l 824 926 l 935 926 l 575 0 "},"ƒ":{"ha":618,"x_min":0,"x_max":0,"o":"m 21 -224 l 146 340 l 63 340 l 63 469 l 174 469 l 231 722 b 490 940 260 854 364 940 b 640 886 551 940 601 928 l 575 767 b 510 797 560 788 539 797 b 389 690 451 797 404 758 l 340 469 l 513 469 l 513 340 l 313 340 l 186 -224 "},"≈":{"ha":697,"x_min":0,"x_max":0,"o":"m 40 388 b 194 344 86 358 143 344 b 501 421 328 344 347 421 b 657 386 554 421 614 407 l 657 283 b 501 326 611 313 553 326 b 194 251 369 326 349 251 b 40 285 143 251 83 264 m 40 646 b 194 603 86 617 143 603 b 501 678 328 603 347 678 b 657 643 554 678 614 665 l 657 540 b 501 585 611 569 553 585 b 194 508 369 585 349 508 b 40 543 143 508 83 521 "},"Δ":{"ha":935,"x_min":0,"x_max":0,"o":"m 3 0 l 367 926 l 569 926 l 933 0 m 468 764 l 232 143 l 703 143 "},"«":{"ha":681,"x_min":0,"x_max":0,"o":"m 500 88 l 278 338 l 500 583 l 639 583 l 417 338 l 639 88 m 264 88 l 42 338 l 264 583 l 403 583 l 181 338 l 403 88 "},"»":{"ha":681,"x_min":0,"x_max":0,"o":"m 181 88 l 42 88 l 264 338 l 42 583 l 181 583 l 403 338 m 417 88 l 278 88 l 500 338 l 278 583 l 417 583 l 639 338 "},"…":{"ha":1021,"x_min":0,"x_max":0,"o":"m 267 83 b 171 -14 267 31 224 -14 b 74 83 118 -14 74 31 b 171 179 74 135 118 179 b 267 83 224 179 267 135 m 607 83 b 511 -14 607 31 564 -14 b 414 83 458 -14 414 31 b 511 179 414 135 458 179 b 607 83 564 179 607 135 m 947 83 b 851 -14 947 31 904 -14 b 754 83 799 -14 754 31 b 851 179 754 135 799 179 b 947 83 904 179 947 135 "}," ":{"ha":358,"x_min":0,"x_max":0,"o":""},"À":{"ha":935,"x_min":0,"x_max":0,"o":"m 469 1011 l 240 1211 l 379 1211 l 574 1011 m 749 0 l 681 179 l 256 179 l 188 0 l 3 0 l 367 926 l 569 926 l 933 0 m 468 764 l 301 322 l 635 322 "},"Ã":{"ha":935,"x_min":0,"x_max":0,"o":"m 549 1008 b 383 1117 453 1008 442 1117 b 326 1017 351 1117 326 1086 l 246 1017 b 389 1203 246 1131 296 1203 b 554 1094 486 1203 496 1094 b 613 1194 586 1094 613 1125 l 692 1194 b 549 1008 692 1081 642 1008 m 749 0 l 681 179 l 256 179 l 188 0 l 3 0 l 367 926 l 569 926 l 933 0 m 468 764 l 301 322 l 635 322 "},"Õ":{"ha":1063,"x_min":0,"x_max":0,"o":"m 613 1008 b 447 1117 517 1008 506 1117 b 390 1017 415 1117 390 1086 l 310 1017 b 453 1203 310 1131 360 1203 b 618 1094 550 1203 560 1094 b 676 1194 650 1094 676 1125 l 756 1194 b 613 1008 756 1081 706 1008 m 532 -17 b 58 463 254 -17 58 186 b 532 942 58 739 254 942 b 1006 463 808 942 1006 739 b 532 -17 1006 186 808 -17 m 532 128 b 839 463 718 128 839 272 b 532 797 839 654 718 797 b 225 463 344 797 225 654 b 532 128 225 272 344 128 "},"Œ":{"ha":1518,"x_min":0,"x_max":0,"o":"m 818 0 l 818 135 b 515 -17 751 35 631 -17 b 58 463 246 -17 58 185 b 515 940 58 740 246 940 b 818 793 631 940 751 892 l 818 926 l 1453 926 l 1453 783 l 981 783 l 981 544 l 1443 544 l 1443 401 l 981 401 l 981 143 l 1453 143 l 1453 0 m 818 611 b 538 796 768 733 663 796 b 225 463 344 796 225 654 b 538 128 225 272 344 128 b 818 317 663 128 768 193 "},"œ":{"ha":1313,"x_min":0,"x_max":0,"o":"m 744 288 b 958 103 756 188 832 103 b 1149 178 1024 103 1101 131 l 1215 82 b 943 -17 1149 18 1050 -17 b 667 150 785 -17 707 79 b 399 -17 626 82 550 -17 b 54 336 185 -17 54 144 b 399 688 54 529 185 688 b 667 521 550 688 628 588 b 932 688 704 589 785 688 b 1263 324 1133 688 1263 535 l 1263 288 m 1121 392 b 932 568 1118 471 1064 568 b 743 392 807 568 750 474 m 592 336 b 399 558 592 461 518 558 b 206 336 279 558 206 461 b 399 111 206 210 279 111 b 592 336 518 111 592 210 "},"–":{"ha":824,"x_min":0,"x_max":0,"o":"m 42 274 l 42 399 l 782 399 l 782 274 "},"—":{"ha":1157,"x_min":0,"x_max":0,"o":"m 42 274 l 42 399 l 1115 399 l 1115 274 "},"“":{"ha":597,"x_min":0,"x_max":0,"o":"m 64 704 b 194 942 64 800 118 888 l 260 888 b 160 757 215 861 169 804 b 183 761 164 758 175 761 b 267 674 231 761 267 725 b 172 578 267 621 224 578 b 64 704 115 578 64 624 m 321 704 b 451 942 321 800 375 888 l 517 888 b 417 757 472 861 426 804 b 440 761 421 758 432 761 b 524 674 488 761 524 725 b 429 578 524 621 481 578 b 321 704 372 578 321 624 "},"”":{"ha":597,"x_min":0,"x_max":0,"o":"m 532 814 b 403 578 532 718 479 632 l 336 631 b 436 761 381 657 428 714 b 413 758 433 760 422 758 b 331 846 367 758 331 794 b 425 940 331 897 372 940 b 532 814 482 940 532 894 m 275 814 b 146 578 275 718 222 632 l 79 631 b 179 761 124 657 171 714 b 156 758 176 760 165 758 b 74 846 110 758 74 794 b 168 940 74 897 115 940 b 275 814 225 940 275 894 "},"‘":{"ha":340,"x_min":0,"x_max":0,"o":"m 60 704 b 189 942 60 800 113 888 l 256 888 b 156 757 211 861 164 804 b 179 761 158 758 169 761 b 261 674 225 761 261 725 b 167 578 261 621 219 578 b 60 704 110 578 60 624 "},"’":{"ha":340,"x_min":0,"x_max":0,"o":"m 275 814 b 146 578 275 718 222 632 l 79 631 b 179 761 124 657 171 714 b 156 758 176 760 165 758 b 74 846 110 758 74 794 b 168 940 74 897 115 940 b 275 814 225 940 275 894 "},"÷":{"ha":710,"x_min":0,"x_max":0,"o":"m 431 724 b 356 646 431 682 397 646 b 279 724 314 646 279 682 b 356 797 279 765 314 797 b 431 724 397 797 431 765 m 40 422 l 40 515 l 669 515 l 669 422 m 431 211 b 356 135 431 169 397 135 b 279 211 314 135 279 169 b 356 286 279 253 314 286 b 431 211 397 286 431 253 "},"◊":{"ha":521,"x_min":0,"x_max":0,"o":"m 246 0 l 26 464 l 246 926 l 275 926 l 494 464 l 275 0 m 444 464 l 260 869 l 76 464 l 261 57 "},"ÿ":{"ha":699,"x_min":0,"x_max":0,"o":"m 88 -132 b 143 -143 103 -139 126 -143 b 240 -85 190 -143 221 -129 l 274 -8 l -3 671 l 154 671 l 350 168 l 546 671 l 701 671 l 378 -121 b 149 -272 332 -235 253 -271 b 67 -262 128 -272 86 -268 m 576 844 b 494 764 576 800 540 764 b 414 844 450 764 414 800 b 494 926 414 890 450 926 b 576 844 540 926 576 890 m 286 844 b 204 764 286 800 250 764 b 122 844 160 764 122 800 b 204 926 122 890 160 926 b 286 844 250 926 286 890 "},"Ÿ":{"ha":885,"x_min":0,"x_max":0,"o":"m 674 1083 b 592 1003 674 1039 638 1003 b 511 1083 547 1003 511 1039 b 592 1165 511 1129 547 1165 b 674 1083 638 1165 674 1129 m 383 1083 b 301 1003 383 1039 347 1003 b 219 1083 257 1003 219 1039 b 301 1165 219 1129 257 1165 b 383 1083 347 1165 383 1129 m 363 0 l 363 385 l 3 926 l 189 926 l 443 531 l 697 926 l 883 926 l 525 385 l 525 0 "},"⁄":{"ha":210,"x_min":0,"x_max":0,"o":"m -146 0 l -239 0 l 354 926 l 447 926 "},"€":{"ha":976,"x_min":0,"x_max":0,"o":"m 576 -17 b 110 319 351 -17 168 114 l 36 319 l 36 414 l 92 414 b 90 463 90 429 90 446 b 93 515 90 481 92 497 l 36 515 l 36 610 l 111 610 b 576 942 171 813 353 942 b 947 735 763 942 879 846 l 810 663 b 576 797 765 740 675 797 b 286 610 443 797 335 724 l 658 610 l 658 515 l 260 515 b 257 463 258 497 257 481 b 260 414 257 446 257 429 l 658 414 l 658 319 l 285 319 b 576 128 333 203 442 128 b 810 263 675 128 765 186 l 949 193 b 576 -17 878 82 763 -17 "},"‹":{"ha":444,"x_min":0,"x_max":0,"o":"m 264 88 l 42 338 l 264 583 l 403 583 l 181 338 l 403 88 "},"›":{"ha":444,"x_min":0,"x_max":0,"o":"m 181 88 l 42 88 l 264 338 l 42 583 l 181 583 l 403 338 "},"ﬁ":{"ha":764,"x_min":0,"x_max":0,"o":"m 131 0 l 131 544 l 19 544 l 19 671 l 131 671 l 131 708 b 342 940 131 858 219 940 b 460 915 389 940 429 932 l 428 806 b 369 821 413 815 393 821 b 276 708 311 821 276 783 l 276 671 l 413 671 l 413 544 l 276 544 l 276 0 m 597 753 b 507 843 547 753 507 793 b 597 933 507 893 547 933 b 688 843 647 933 688 893 b 597 753 688 793 647 753 m 524 0 l 524 671 l 669 671 l 669 0 "},"ﬂ":{"ha":764,"x_min":0,"x_max":0,"o":"m 131 0 l 131 544 l 19 544 l 19 671 l 131 671 l 131 708 b 342 940 131 858 219 940 b 460 915 389 940 429 932 l 428 806 b 369 821 413 815 393 821 b 276 708 311 821 276 783 l 276 671 l 413 671 l 413 544 l 276 544 l 276 0 m 524 0 l 524 926 l 669 926 l 669 0 "},"‡":{"ha":376,"x_min":0,"x_max":0,"o":"m 347 731 l 224 736 l 224 456 l 347 461 l 347 386 l 224 390 l 229 250 l 147 250 l 153 390 l 29 386 l 29 461 l 153 456 l 153 736 l 29 731 l 29 806 l 153 801 l 147 940 l 229 940 l 224 801 l 347 806 "},"·":{"ha":342,"x_min":0,"x_max":0,"o":"m 267 340 b 171 243 267 288 224 243 b 74 340 118 243 74 288 b 171 436 74 392 118 436 b 267 340 224 436 267 392 "},"‚":{"ha":340,"x_min":0,"x_max":0,"o":"m 275 53 b 146 -185 275 -43 222 -131 l 79 -131 b 179 0 124 -104 171 -47 b 156 -4 176 -1 165 -4 b 74 85 110 -4 74 33 b 168 179 74 136 115 179 b 275 53 225 179 275 133 "},"„":{"ha":597,"x_min":0,"x_max":0,"o":"m 275 53 b 146 -185 275 -43 222 -131 l 79 -131 b 179 0 124 -104 171 -47 b 156 -4 176 -1 165 -4 b 74 85 110 -4 74 33 b 168 179 74 136 115 179 b 275 53 225 179 275 133 m 532 53 b 403 -185 532 -43 479 -131 l 336 -131 b 436 0 381 -104 428 -47 b 413 -4 433 -1 422 -4 b 331 85 367 -4 331 33 b 425 179 331 136 372 179 b 532 53 482 179 532 133 "},"‰":{"ha":1536,"x_min":0,"x_max":0,"o":"m 500 710 b 269 481 500 581 408 481 b 39 710 132 481 39 581 b 269 940 39 840 132 940 b 500 710 408 940 500 840 m 272 0 l 179 0 l 771 926 l 865 926 m 999 213 b 768 -17 999 83 906 -17 b 538 213 631 -17 538 83 b 768 443 538 343 631 443 b 999 213 906 443 999 343 m 393 710 b 269 857 393 799 342 857 b 147 710 199 857 147 799 b 269 565 147 624 199 565 b 393 710 342 565 393 624 m 892 213 b 768 360 892 301 840 360 b 644 213 696 360 644 301 b 768 68 644 126 696 68 b 892 213 840 68 892 126 m 1497 213 b 1267 -17 1497 83 1404 -17 b 1036 213 1129 -17 1036 83 b 1267 443 1036 343 1129 443 b 1497 213 1404 443 1497 343 m 1390 213 b 1267 360 1390 301 1339 360 b 1143 213 1194 360 1143 301 b 1267 68 1143 126 1194 68 b 1390 213 1339 68 1390 126 "},"Â":{"ha":935,"x_min":0,"x_max":0,"o":"m 576 1011 l 468 1146 l 365 1011 l 272 1011 l 401 1211 l 535 1211 l 668 1011 m 749 0 l 681 179 l 256 179 l 188 0 l 3 0 l 367 926 l 569 926 l 933 0 m 468 764 l 301 322 l 635 322 "},"Ê":{"ha":801,"x_min":0,"x_max":0,"o":"m 522 1011 l 414 1146 l 311 1011 l 218 1011 l 347 1211 l 481 1211 l 614 1011 m 99 0 l 99 926 l 733 926 l 733 783 l 261 783 l 261 544 l 724 544 l 724 401 l 261 401 l 261 143 l 733 143 l 733 0 "},"Á":{"ha":935,"x_min":0,"x_max":0,"o":"m 469 1011 l 365 1011 l 560 1211 l 699 1211 m 749 0 l 681 179 l 256 179 l 188 0 l 3 0 l 367 926 l 569 926 l 933 0 m 468 764 l 301 322 l 635 322 "},"Ë":{"ha":801,"x_min":0,"x_max":0,"o":"m 644 1083 b 563 1003 644 1039 608 1003 b 482 1083 518 1003 482 1039 b 563 1165 482 1129 518 1165 b 644 1083 608 1165 644 1129 m 354 1083 b 272 1003 354 1039 318 1003 b 190 1083 228 1003 190 1039 b 272 1165 190 1129 228 1165 b 354 1083 318 1165 354 1129 m 99 0 l 99 926 l 733 926 l 733 783 l 261 783 l 261 544 l 724 544 l 724 401 l 261 401 l 261 143 l 733 143 l 733 0 "},"È":{"ha":801,"x_min":0,"x_max":0,"o":"m 417 1011 l 188 1211 l 326 1211 l 521 1011 m 99 0 l 99 926 l 733 926 l 733 783 l 261 783 l 261 544 l 724 544 l 724 401 l 261 401 l 261 143 l 733 143 l 733 0 "},"Í":{"ha":360,"x_min":0,"x_max":0,"o":"m 183 1011 l 79 1011 l 274 1211 l 413 1211 m 99 0 l 99 926 l 261 926 l 261 0 "},"Î":{"ha":360,"x_min":0,"x_max":0,"o":"m 286 1011 l 178 1146 l 75 1011 l -18 1011 l 111 1211 l 244 1211 l 378 1011 m 99 0 l 99 926 l 261 926 l 261 0 "},"Ï":{"ha":360,"x_min":0,"x_max":0,"o":"m 407 1082 b 325 1001 407 1038 371 1001 b 244 1082 281 1001 244 1038 b 325 1164 244 1128 281 1164 b 407 1082 371 1164 407 1128 m 117 1082 b 35 1001 117 1038 81 1001 b -47 1082 -10 1001 -47 1038 b 35 1164 -47 1128 -10 1164 b 117 1082 81 1164 117 1128 m 99 0 l 99 926 l 261 926 l 261 0 "},"Ì":{"ha":360,"x_min":0,"x_max":0,"o":"m 179 1011 l -50 1211 l 89 1211 l 283 1011 m 99 0 l 99 926 l 261 926 l 261 0 "},"Ó":{"ha":1063,"x_min":0,"x_max":0,"o":"m 533 1011 l 429 1011 l 624 1211 l 763 1211 m 532 -17 b 58 463 254 -17 58 186 b 532 942 58 739 254 942 b 1006 463 808 942 1006 739 b 532 -17 1006 186 808 -17 m 532 128 b 839 463 718 128 839 272 b 532 797 839 654 718 797 b 225 463 344 797 225 654 b 532 128 225 272 344 128 "},"Ô":{"ha":1063,"x_min":0,"x_max":0,"o":"m 642 1011 l 533 1146 l 431 1011 l 338 1011 l 467 1211 l 600 1211 l 733 1011 m 532 -17 b 58 463 254 -17 58 186 b 532 942 58 739 254 942 b 1006 463 808 942 1006 739 b 532 -17 1006 186 808 -17 m 532 128 b 839 463 718 128 839 272 b 532 797 839 654 718 797 b 225 463 344 797 225 654 b 532 128 225 272 344 128 "},"⌘":{"ha":926,"x_min":0,"x_max":0,"o":"m 308 311 l 213 311 b 118 214 158 311 118 267 b 213 117 118 160 160 117 b 308 214 267 117 308 160 m 308 714 b 214 811 308 768 267 811 b 118 714 160 811 118 768 b 214 617 118 661 160 617 l 308 617 m 558 368 l 558 558 l 368 558 l 368 368 m 810 214 b 715 311 810 267 768 311 l 618 311 l 618 214 b 714 117 618 160 661 117 b 810 214 768 117 810 160 m 810 714 b 714 811 810 768 767 811 b 618 714 661 811 618 768 l 618 617 l 715 617 b 810 714 768 617 810 661 m 868 214 b 714 58 868 129 799 58 b 558 214 629 58 558 129 l 558 311 l 368 311 l 368 214 b 213 58 368 129 297 58 b 58 214 128 58 58 129 b 213 368 58 299 128 368 l 308 368 l 308 558 l 214 558 b 58 714 129 558 58 629 b 214 868 58 799 129 868 b 368 714 299 868 368 799 l 368 617 l 558 617 l 558 714 b 714 868 558 799 629 868 b 868 714 799 868 868 799 b 714 558 868 629 799 558 l 618 558 l 618 368 l 714 368 b 868 214 799 368 868 299 "},"Ò":{"ha":1063,"x_min":0,"x_max":0,"o":"m 536 1011 l 307 1211 l 446 1211 l 640 1011 m 532 -17 b 58 463 254 -17 58 186 b 532 942 58 739 254 942 b 1006 463 808 942 1006 739 b 532 -17 1006 186 808 -17 m 532 128 b 839 463 718 128 839 272 b 532 797 839 654 718 797 b 225 463 344 797 225 654 b 532 128 225 272 344 128 "},"Ú":{"ha":1000,"x_min":0,"x_max":0,"o":"m 501 1011 l 397 1011 l 592 1211 l 731 1211 m 500 -17 b 99 367 232 -17 99 138 l 99 926 l 264 926 l 264 371 b 500 128 264 224 346 128 b 736 371 654 128 736 224 l 736 926 l 901 926 l 901 367 b 500 -17 901 138 769 -17 "},"Û":{"ha":1000,"x_min":0,"x_max":0,"o":"m 614 1011 l 506 1146 l 403 1011 l 310 1011 l 439 1211 l 572 1211 l 706 1011 m 500 -17 b 99 367 232 -17 99 138 l 99 926 l 264 926 l 264 371 b 500 128 264 224 346 128 b 736 371 654 128 736 224 l 736 926 l 901 926 l 901 367 b 500 -17 901 138 769 -17 "},"Ù":{"ha":1000,"x_min":0,"x_max":0,"o":"m 503 1011 l 274 1211 l 413 1211 l 607 1011 m 500 -17 b 99 367 232 -17 99 138 l 99 926 l 264 926 l 264 371 b 500 128 264 224 346 128 b 736 371 654 128 736 224 l 736 926 l 901 926 l 901 367 b 500 -17 901 138 769 -17 "},"ı":{"ha":335,"x_min":0,"x_max":0,"o":"m 94 0 l 94 671 l 240 671 l 240 0 "},"ˆ":{"ha":396,"x_min":0,"x_max":0,"o":"m 304 772 l 196 907 l 93 772 l 0 772 l 129 972 l 263 972 l 396 772 "},"˜":{"ha":446,"x_min":0,"x_max":0,"o":"m 303 769 b 138 878 207 769 196 878 b 81 778 106 878 81 847 l 0 778 b 143 964 0 892 50 964 b 308 856 240 964 250 856 b 367 956 340 856 367 886 l 446 956 b 303 769 446 842 396 769 "},"¯":{"ha":504,"x_min":0,"x_max":0,"o":"m 0 821 l 0 907 l 504 907 l 504 821 "},"˘":{"ha":488,"x_min":0,"x_max":0,"o":"m 488 899 b 244 776 432 824 344 776 b 0 899 146 776 57 824 l 68 956 b 244 863 107 900 169 863 b 422 956 319 863 381 897 l 488 899 "},"˙":{"ha":206,"x_min":0,"x_max":0,"o":"m 103 779 b 21 861 58 779 21 815 b 103 943 21 906 58 943 b 185 861 147 943 185 906 b 103 779 185 815 147 779 "},"˚":{"ha":283,"x_min":0,"x_max":0,"o":"m 143 765 b 0 907 65 765 0 829 b 143 1050 0 985 65 1050 b 283 907 221 1050 283 985 b 143 765 283 829 221 765 m 143 835 b 214 907 182 835 214 868 b 143 979 214 947 182 979 b 71 907 103 979 71 947 b 143 835 71 868 103 835 "},"¸":{"ha":297,"x_min":0,"x_max":0,"o":"m 147 -269 b 0 -226 85 -269 29 -249 l 32 -162 b 144 -203 67 -190 106 -203 b 221 -153 185 -203 221 -186 b 176 -111 221 -126 206 -111 b 128 -132 157 -111 139 -119 l 72 -100 l 114 15 l 190 15 l 156 -74 b 206 -58 169 -64 188 -58 b 297 -154 257 -58 297 -97 b 147 -269 297 -225 231 -269 "},"˝":{"ha":450,"x_min":0,"x_max":0,"o":"m 88 772 l 0 772 l 125 972 l 247 972 m 290 772 l 203 772 l 328 972 l 450 972 "},"˛":{"ha":261,"x_min":0,"x_max":0,"o":"m 261 -178 b 133 -258 238 -222 199 -258 b 0 -135 64 -258 0 -222 b 124 38 0 -64 49 -3 l 179 0 b 76 -129 111 -33 76 -76 b 133 -193 76 -174 101 -193 b 197 -140 167 -193 186 -172 "},"ˇ":{"ha":396,"x_min":0,"x_max":0,"o":"m 133 772 l 0 972 l 93 972 l 200 839 l 304 972 l 396 972 l 267 772 "},"":{"ha":429,"x_min":0,"x_max":0,"o":"m 131 0 l 131 544 l 19 544 l 19 671 l 131 671 l 131 708 b 342 940 131 858 219 940 b 460 915 389 940 429 932 l 428 806 b 369 821 413 815 393 821 b 276 708 311 821 276 783 l 276 671 l 413 671 l 413 544 l 276 544 l 276 0 "},"":{"ha":1236,"x_min":0,"x_max":0,"o":"m 131 0 l 131 544 l 19 544 l 19 671 l 131 671 l 131 708 b 342 940 131 858 219 940 b 460 915 389 940 429 932 l 428 806 b 369 821 413 815 393 821 b 276 708 311 821 276 783 l 276 671 l 413 671 l 413 544 l 276 544 l 276 0 m 669 201 b 843 113 703 151 774 113 b 1032 336 958 113 1032 206 b 843 558 1032 465 958 558 b 669 468 774 558 703 518 l 669 201 m 524 0 l 524 926 l 669 926 l 669 578 b 885 688 724 650 801 688 b 1183 336 1058 688 1183 553 b 885 -17 1183 114 1057 -17 b 669 92 799 -17 721 25 l 669 0 "},"":{"ha":1218,"x_min":0,"x_max":0,"o":"m 131 0 l 131 544 l 19 544 l 19 671 l 131 671 l 131 708 b 342 940 131 858 219 940 b 460 915 389 940 429 932 l 428 806 b 369 821 413 815 393 821 b 276 708 311 821 276 783 l 276 671 l 413 671 l 413 544 l 276 544 l 276 0 m 978 0 l 978 422 b 843 558 978 528 925 558 b 671 469 768 558 704 514 l 671 0 l 525 0 l 525 926 l 671 926 l 671 581 b 907 688 715 633 801 688 b 1124 475 1051 688 1124 613 l 1124 0 "},"":{"ha":1160,"x_min":0,"x_max":0,"o":"m 131 0 l 131 544 l 19 544 l 19 671 l 131 671 l 131 708 b 342 940 131 858 219 940 b 460 915 389 940 429 932 l 428 806 b 369 821 413 815 393 821 b 276 708 311 821 276 783 l 276 671 l 413 671 l 413 544 l 276 544 l 276 0 m 968 0 l 764 278 l 669 181 l 669 0 l 524 0 l 524 926 l 669 926 l 669 347 l 965 671 l 1146 671 l 868 367 l 1151 0 "},"":{"ha":397,"x_min":0,"x_max":0,"o":"m 267 -17 b 94 157 154 -17 94 44 l 94 926 l 240 926 l 240 193 b 304 113 240 147 263 113 b 369 138 332 113 358 125 l 404 26 b 267 -17 378 3 335 -17 "},"":{"ha":807,"x_min":0,"x_max":0,"o":"m 567 0 l 567 92 b 351 -17 515 25 439 -17 b 54 336 181 -17 54 114 b 351 688 54 553 179 688 b 567 578 436 688 513 650 l 567 671 l 713 671 l 713 0 m 394 113 b 567 203 463 113 535 153 l 567 468 b 394 558 535 518 463 558 b 204 336 278 558 204 465 b 394 113 204 206 278 113 "},"":{"ha":788,"x_min":0,"x_max":0,"o":"m 358 -272 b 88 -172 246 -272 161 -240 l 156 -67 b 358 -153 204 -128 282 -153 b 547 33 476 -153 547 -86 l 547 111 b 311 6 500 58 417 6 b 94 218 167 6 94 82 l 94 671 l 240 671 l 240 272 b 376 135 240 168 293 135 b 547 222 450 135 514 178 l 547 671 l 693 671 l 693 33 b 358 -272 693 -168 551 -272 "},"":{"ha":996,"x_min":0,"x_max":0,"o":"m 531 -18 b 58 463 275 -18 58 172 b 544 942 58 754 275 942 b 917 750 725 942 843 856 l 785 674 b 544 797 735 743 647 797 b 225 463 361 797 225 658 b 544 128 225 269 361 128 b 815 356 701 128 789 233 l 486 356 l 486 499 l 992 499 b 531 -18 992 185 822 -18 "},"":{"ha":885,"x_min":0,"x_max":0,"o":"m 461 -17 b 54 382 236 -17 54 143 b 468 781 54 622 236 781 b 782 628 611 781 717 713 l 660 554 b 468 647 618 608 550 647 b 208 382 318 647 208 536 b 468 117 208 229 318 117 b 683 292 572 117 664 181 l 436 292 l 436 417 l 846 417 b 461 -17 846 140 689 -17 "},"":{"ha":1025,"x_min":0,"x_max":0,"o":"m 790 1119 b 547 997 735 1044 647 997 b 303 1119 449 997 360 1044 l 371 1176 b 547 1083 410 1121 472 1083 b 725 1176 622 1083 683 1118 l 790 1119 m 531 -18 b 58 463 275 -18 58 172 b 544 942 58 754 275 942 b 917 750 725 942 843 856 l 785 674 b 544 797 735 743 647 797 b 225 463 361 797 225 658 b 544 128 225 269 361 128 b 815 356 701 128 789 233 l 486 356 l 486 499 l 992 499 b 531 -18 992 185 822 -18 "},"":{"ha":879,"x_min":0,"x_max":0,"o":"m 714 954 b 471 832 658 879 571 832 b 226 954 372 832 283 879 l 294 1011 b 471 918 333 956 396 918 b 649 1011 546 918 607 953 l 714 954 m 461 -17 b 54 382 236 -17 54 143 b 468 781 54 622 236 781 b 782 628 611 781 717 713 l 660 554 b 468 647 618 608 550 647 b 208 382 318 647 208 536 b 468 117 208 229 318 117 b 683 292 572 117 664 181 l 436 292 l 436 417 l 846 417 b 461 -17 846 140 689 -17 "},"":{"ha":1025,"x_min":0,"x_max":0,"o":"m 633 -192 b 525 -390 633 -272 588 -346 l 472 -347 b 556 -233 511 -324 550 -274 b 538 -236 554 -235 544 -236 b 469 -165 499 -236 469 -207 b 546 -87 469 -122 504 -87 b 633 -192 592 -87 633 -125 m 531 -18 b 58 463 275 -18 58 172 b 544 942 58 754 275 942 b 917 750 725 942 843 856 l 785 674 b 544 797 735 743 647 797 b 225 463 361 797 225 658 b 544 128 225 269 361 128 b 815 356 701 128 789 233 l 486 356 l 486 499 l 992 499 b 531 -18 992 185 822 -18 "},"":{"ha":885,"x_min":0,"x_max":0,"o":"m 558 -192 b 450 -390 558 -272 513 -346 l 397 -347 b 481 -233 436 -324 475 -274 b 463 -236 479 -235 469 -236 b 394 -165 424 -236 394 -207 b 471 -87 394 -122 429 -87 b 558 -192 517 -87 558 -125 m 461 -17 b 54 382 236 -17 54 143 b 468 781 54 622 236 781 b 782 628 611 781 717 713 l 660 554 b 468 647 618 608 550 647 b 208 382 318 647 208 536 b 468 117 208 229 318 117 b 683 292 572 117 664 181 l 436 292 l 436 417 l 846 417 b 461 -17 846 140 689 -17 "},"":{"ha":436,"x_min":0,"x_max":0,"o":"m 14 407 l 135 476 l 135 926 l 281 926 l 281 560 l 403 631 l 403 522 l 281 451 l 281 193 b 344 113 281 147 303 113 b 410 138 372 113 399 125 l 444 26 b 307 -17 418 3 375 -17 b 135 157 194 -17 135 44 l 135 367 l 14 297 "},"":{"ha":397,"x_min":0,"x_max":0,"o":"m 168 1011 l 64 1011 l 258 1211 l 397 1211 m 267 -17 b 94 157 154 -17 94 44 l 94 926 l 240 926 l 240 193 b 304 113 240 147 263 113 b 369 138 332 113 358 125 l 404 26 b 267 -17 378 3 335 -17 "},"":{"ha":397,"x_min":0,"x_max":0,"o":"m 274 -192 b 165 -390 274 -272 228 -346 l 113 -347 b 196 -233 151 -324 190 -274 b 178 -236 194 -235 185 -236 b 110 -165 139 -236 110 -207 b 186 -87 110 -122 144 -87 b 274 -192 232 -87 274 -125 m 267 -17 b 94 157 154 -17 94 44 l 94 926 l 240 926 l 240 193 b 304 113 240 147 263 113 b 369 138 332 113 358 125 l 404 26 b 267 -17 378 3 335 -17 "},"":{"ha":460,"x_min":0,"x_max":0,"o":"m 489 840 b 381 642 489 760 443 686 l 328 685 b 411 799 367 708 406 758 b 393 796 410 797 400 796 b 325 867 354 796 325 825 b 401 944 325 910 360 944 b 489 840 447 944 489 907 m 267 -17 b 94 157 154 -17 94 44 l 94 926 l 240 926 l 240 193 b 304 113 240 147 263 113 b 369 138 332 113 358 125 l 404 26 b 267 -17 378 3 335 -17 "},"":{"ha":807,"x_min":0,"x_max":0,"o":"m 414 772 l 310 772 l 504 972 l 643 972 m 567 0 l 567 92 b 351 -17 515 25 439 -17 b 54 336 181 -17 54 114 b 351 688 54 553 179 688 b 567 578 436 688 513 650 l 567 671 l 713 671 l 713 0 m 394 113 b 567 203 463 113 535 153 l 567 468 b 394 558 535 518 463 558 b 204 336 278 558 204 465 b 394 113 204 206 278 113 "},"":{"ha":807,"x_min":0,"x_max":0,"o":"m 415 772 l 186 972 l 325 972 l 519 772 m 567 0 l 567 92 b 351 -17 515 25 439 -17 b 54 336 181 -17 54 114 b 351 688 54 553 179 688 b 567 578 436 688 513 650 l 567 671 l 713 671 l 713 0 m 394 113 b 567 203 463 113 535 153 l 567 468 b 394 558 535 518 463 558 b 204 336 278 558 204 465 b 394 113 204 206 278 113 "},"":{"ha":807,"x_min":0,"x_max":0,"o":"m 519 772 l 411 907 l 308 772 l 215 772 l 344 972 l 478 972 l 611 772 m 567 0 l 567 92 b 351 -17 515 25 439 -17 b 54 336 181 -17 54 114 b 351 688 54 553 179 688 b 567 578 436 688 513 650 l 567 671 l 713 671 l 713 0 m 394 113 b 567 203 463 113 535 153 l 567 468 b 394 558 535 518 463 558 b 204 336 278 558 204 465 b 394 113 204 206 278 113 "},"":{"ha":807,"x_min":0,"x_max":0,"o":"m 640 844 b 558 764 640 800 604 764 b 478 844 514 764 478 800 b 558 926 478 890 514 926 b 640 844 604 926 640 890 m 350 844 b 268 764 350 800 314 764 b 186 844 224 764 186 800 b 268 926 186 890 224 926 b 350 844 314 926 350 890 m 567 0 l 567 92 b 351 -17 515 25 439 -17 b 54 336 181 -17 54 114 b 351 688 54 553 179 688 b 567 578 436 688 513 650 l 567 671 l 713 671 l 713 0 m 394 113 b 567 203 463 113 535 153 l 567 468 b 394 558 535 518 463 558 b 204 336 278 558 204 465 b 394 113 204 206 278 113 "},"":{"ha":807,"x_min":0,"x_max":0,"o":"m 494 769 b 329 878 399 769 388 878 b 272 778 297 878 272 847 l 192 778 b 335 964 192 892 242 964 b 500 856 432 964 442 856 b 558 956 532 856 558 886 l 638 956 b 494 769 638 842 588 769 m 567 0 l 567 92 b 351 -17 515 25 439 -17 b 54 336 181 -17 54 114 b 351 688 54 553 179 688 b 567 578 436 688 513 650 l 567 671 l 713 671 l 713 0 m 394 113 b 567 203 463 113 535 153 l 567 468 b 394 558 535 518 463 558 b 204 336 278 558 204 465 b 394 113 204 206 278 113 "},"":{"ha":807,"x_min":0,"x_max":0,"o":"m 413 765 b 269 907 335 765 269 829 b 413 1050 269 985 335 1050 b 553 907 490 1050 553 985 b 413 765 553 829 490 765 m 413 835 b 483 907 451 835 483 868 b 413 979 483 947 451 979 b 340 907 372 979 340 947 b 413 835 340 868 372 835 m 567 0 l 567 92 b 351 -17 515 25 439 -17 b 54 336 181 -17 54 114 b 351 688 54 553 179 688 b 567 578 436 688 513 650 l 567 671 l 713 671 l 713 0 m 394 113 b 567 203 463 113 535 153 l 567 468 b 394 558 535 518 463 558 b 204 336 278 558 204 465 b 394 113 204 206 278 113 "},"":{"ha":807,"x_min":0,"x_max":0,"o":"m 163 821 l 163 907 l 667 907 l 667 821 m 567 0 l 567 92 b 351 -17 515 25 439 -17 b 54 336 181 -17 54 114 b 351 688 54 553 179 688 b 567 578 436 688 513 650 l 567 671 l 713 671 l 713 0 m 394 113 b 567 203 463 113 535 153 l 567 468 b 394 558 535 518 463 558 b 204 336 278 558 204 465 b 394 113 204 206 278 113 "},"":{"ha":807,"x_min":0,"x_max":0,"o":"m 657 899 b 414 776 601 824 514 776 b 169 899 315 776 226 824 l 238 956 b 414 863 276 900 339 863 b 592 956 489 863 550 897 l 657 899 m 567 0 l 567 92 b 351 -17 515 25 439 -17 b 54 336 181 -17 54 114 b 351 688 54 553 179 688 b 567 578 436 688 513 650 l 567 671 l 713 671 l 713 0 m 394 113 b 567 203 463 113 535 153 l 567 468 b 394 558 535 518 463 558 b 204 336 278 558 204 465 b 394 113 204 206 278 113 "},"":{"ha":807,"x_min":0,"x_max":0,"o":"m 713 0 b 610 -129 644 -33 610 -76 b 667 -193 610 -174 635 -193 b 731 -140 700 -193 719 -172 l 794 -178 b 667 -258 771 -222 732 -258 b 533 -135 597 -258 533 -222 b 601 0 533 -83 558 -36 l 567 0 l 567 92 b 351 -17 515 25 439 -17 b 54 336 181 -17 54 114 b 351 688 54 553 179 688 b 567 578 436 688 513 650 l 567 671 l 713 671 l 713 0 m 394 113 b 567 203 463 113 535 153 l 567 468 b 394 558 535 518 463 558 b 204 336 278 558 204 465 b 394 113 204 206 278 113 "},"":{"ha":788,"x_min":0,"x_max":0,"o":"m 393 772 l 289 772 l 483 972 l 622 972 m 358 -272 b 88 -172 246 -272 161 -240 l 156 -67 b 358 -153 204 -128 282 -153 b 547 33 476 -153 547 -86 l 547 111 b 311 6 500 58 417 6 b 94 218 167 6 94 82 l 94 671 l 240 671 l 240 272 b 376 135 240 168 293 135 b 547 222 450 135 514 178 l 547 671 l 693 671 l 693 33 b 358 -272 693 -168 551 -272 "},"":{"ha":788,"x_min":0,"x_max":0,"o":"m 617 844 b 535 764 617 800 581 764 b 454 844 490 764 454 800 b 535 926 454 890 490 926 b 617 844 581 926 617 890 m 326 844 b 244 764 326 800 290 764 b 163 844 200 764 163 800 b 244 926 163 890 200 926 b 326 844 290 926 326 890 m 358 -272 b 88 -172 246 -272 161 -240 l 156 -67 b 358 -153 204 -128 282 -153 b 547 33 476 -153 547 -86 l 547 111 b 311 6 500 58 417 6 b 94 218 167 6 94 82 l 94 671 l 240 671 l 240 272 b 376 135 240 168 293 135 b 547 222 450 135 514 178 l 547 671 l 693 671 l 693 33 b 358 -272 693 -168 551 -272 "},"":{"ha":1282,"x_min":0,"x_max":0,"o":"m 567 0 l 567 92 b 351 -17 515 25 439 -17 b 54 336 181 -17 54 114 b 351 688 54 553 179 688 b 567 578 436 688 513 650 l 567 671 l 713 671 l 713 561 b 942 688 760 639 836 688 b 1232 324 1119 688 1232 535 l 1232 288 l 713 288 b 926 106 724 188 800 106 b 1117 181 992 106 1069 132 l 1183 82 b 951 -17 1129 26 1046 -17 b 713 110 844 -17 763 29 l 713 0 m 394 113 b 567 203 463 113 535 153 l 567 468 b 394 558 535 518 463 558 b 204 336 278 558 204 465 b 394 113 204 206 278 113 m 1090 392 b 901 568 1088 471 1033 568 b 713 392 776 568 719 472 l 1090 392 "},"":{"ha":857,"x_min":0,"x_max":0,"o":"m 429 -17 b 222 51 344 -17 276 10 l 189 0 l 72 0 l 153 125 b 58 463 88 217 58 342 b 429 940 58 696 168 940 b 632 874 511 940 579 915 l 667 926 l 783 926 l 703 800 b 799 463 768 708 799 585 b 429 -17 799 231 689 -17 m 429 128 b 633 463 579 128 633 286 b 607 651 633 531 625 597 l 304 179 b 429 128 335 147 376 128 m 224 463 b 249 276 224 394 231 331 l 551 747 b 429 796 521 778 481 796 b 224 463 278 796 224 640 "},"":{"ha":1025,"x_min":0,"x_max":0,"o":"m 647 1011 l 539 1146 l 436 1011 l 343 1011 l 472 1211 l 606 1211 l 739 1011 m 531 -18 b 58 463 275 -18 58 172 b 544 942 58 754 275 942 b 917 750 725 942 843 856 l 785 674 b 544 797 735 743 647 797 b 225 463 361 797 225 658 b 544 128 225 269 361 128 b 815 356 701 128 789 233 l 486 356 l 486 499 l 992 499 b 531 -18 992 185 822 -18 "},"":{"ha":1025,"x_min":0,"x_max":0,"o":"m 540 1003 b 458 1085 496 1003 458 1039 b 540 1167 458 1129 496 1167 b 622 1085 585 1167 622 1129 b 540 1003 622 1039 585 1003 m 531 -18 b 58 463 275 -18 58 172 b 544 942 58 754 275 942 b 917 750 725 942 843 856 l 785 674 b 544 797 735 743 647 797 b 225 463 361 797 225 658 b 544 128 225 269 361 128 b 815 356 701 128 789 233 l 486 356 l 486 499 l 992 499 b 531 -18 992 185 822 -18 "},"":{"ha":861,"x_min":0,"x_max":0,"o":"m 461 -17 b 54 382 236 -17 54 143 b 468 781 54 622 236 781 b 782 628 611 781 717 713 l 660 554 b 468 647 618 608 550 647 b 208 382 318 647 208 536 b 468 117 208 229 318 117 b 683 292 572 117 664 181 l 436 292 l 436 417 l 846 417 b 461 -17 846 140 689 -17 m 568 842 l 460 976 l 357 842 l 264 842 l 393 1042 l 526 1042 l 660 842 "},"":{"ha":861,"x_min":0,"x_max":0,"o":"m 461 -17 b 54 382 236 -17 54 143 b 468 781 54 622 236 781 b 782 628 611 781 717 713 l 660 554 b 468 647 618 608 550 647 b 208 382 318 647 208 536 b 468 117 208 229 318 117 b 683 292 572 117 664 181 l 436 292 l 436 417 l 846 417 b 461 -17 846 140 689 -17 m 469 863 b 388 944 425 863 388 899 b 469 1026 388 989 425 1026 b 551 944 514 1026 551 989 b 469 863 551 899 514 863 "},"":{"ha":1219,"x_min":0,"x_max":0,"o":"m 567 0 l 567 92 b 351 -17 515 25 439 -17 b 54 336 181 -17 54 114 b 351 688 54 553 179 688 b 567 578 436 688 513 650 l 567 671 l 713 671 l 713 561 b 942 688 760 639 836 688 b 1232 324 1119 688 1232 535 l 1232 288 l 713 288 b 926 106 724 188 800 106 b 1117 181 992 106 1069 132 l 1183 82 b 951 -17 1129 26 1046 -17 b 713 110 844 -17 763 29 l 713 0 m 394 113 b 567 203 463 113 535 153 l 567 468 b 394 558 535 518 463 558 b 204 336 278 558 204 465 b 394 113 204 206 278 113 m 1090 392 b 901 568 1088 471 1033 568 b 713 392 776 568 719 472 l 1090 392 m 625 772 l 521 772 l 715 972 l 854 972 "},"":{"ha":788,"x_min":0,"x_max":0,"o":"m 503 772 l 394 907 l 292 772 l 199 772 l 328 972 l 461 972 l 594 772 m 358 -272 b 88 -172 246 -272 161 -240 l 156 -67 b 358 -153 204 -128 282 -153 b 547 33 476 -153 547 -86 l 547 111 b 311 6 500 58 417 6 b 94 218 167 6 94 82 l 94 671 l 240 671 l 240 272 b 376 135 240 168 293 135 b 547 222 450 135 514 178 l 547 671 l 693 671 l 693 33 b 358 -272 693 -168 551 -272 "},"":{"ha":488,"x_min":0,"x_max":0,"o":"m 267 -17 b 94 157 154 -17 94 44 l 94 926 l 240 926 l 240 193 b 304 113 240 147 263 113 b 369 138 332 113 358 125 l 404 26 b 267 -17 378 3 335 -17 m 508 340 b 413 243 508 288 465 243 b 315 340 360 243 315 288 b 413 436 315 392 360 436 b 508 340 465 436 508 392 "},"":{"ha":825,"x_min":0,"x_max":0,"o":"m 131 0 l 131 544 l 19 544 l 19 671 l 131 671 l 131 708 b 342 940 131 858 219 940 b 460 915 389 940 429 932 l 428 806 b 369 821 413 815 393 821 b 276 708 311 821 276 783 l 276 671 l 413 671 l 413 544 l 276 544 l 276 0 m 696 -17 b 524 157 583 -17 524 44 l 524 926 l 669 926 l 669 193 b 733 113 669 147 692 113 b 799 138 761 113 788 125 l 833 26 b 696 -17 807 3 764 -17 "},"":{"ha":1254,"x_min":0,"x_max":0,"o":"m 131 0 l 131 544 l 19 544 l 19 671 l 131 671 l 131 708 b 342 940 131 854 215 940 b 503 882 403 940 463 925 l 446 792 b 369 821 426 810 401 821 b 276 708 311 821 276 783 l 276 671 l 413 671 l 413 544 l 276 544 l 276 0 m 560 0 l 560 544 l 449 544 l 449 671 l 560 671 l 560 708 b 771 940 560 858 649 940 b 889 915 818 940 858 932 l 857 806 b 799 821 842 815 822 821 b 706 708 740 821 706 783 l 706 671 l 842 671 l 842 544 l 706 544 l 706 0 m 1124 -17 b 951 157 1011 -17 951 44 l 951 926 l 1097 926 l 1097 193 b 1161 113 1097 147 1119 113 b 1226 138 1189 113 1215 125 l 1261 26 b 1124 -17 1235 3 1192 -17 "},"¤":{"ha":725,"x_min":0,"x_max":0,"o":"m 635 150 l 557 229 b 363 158 503 183 432 158 b 168 229 292 158 222 183 l 89 150 l 50 190 l 128 268 b 58 463 83 324 58 393 b 128 657 58 533 83 603 l 50 736 l 89 775 l 168 697 b 363 767 222 743 292 767 b 557 697 432 767 503 742 l 635 775 l 675 736 l 597 657 b 667 463 642 603 667 533 b 597 268 667 393 642 324 l 675 190 m 600 463 b 363 700 600 594 493 700 b 125 463 232 700 125 594 b 363 225 125 332 232 225 b 600 463 493 225 600 332 "},"Ā":{"ha":935,"x_min":0,"x_max":0,"o":"m 749 0 l 681 179 l 256 179 l 188 0 l 3 0 l 367 926 l 569 926 l 933 0 m 468 764 l 301 322 l 635 322 m 215 1039 l 215 1125 l 719 1125 l 719 1039 "},"ā":{"ha":746,"x_min":0,"x_max":0,"o":"m 506 0 l 506 74 b 288 -17 456 15 376 -17 b 56 206 179 -17 56 58 b 288 425 56 361 178 425 b 506 339 379 425 456 396 l 506 439 b 349 564 506 517 440 564 b 150 478 274 564 207 536 l 89 579 b 371 688 167 654 264 688 b 651 446 521 688 651 625 l 651 0 m 346 83 b 506 153 408 83 471 107 l 506 256 b 346 325 471 301 408 325 b 201 204 264 325 201 276 b 346 83 201 131 264 83 m 118 800 l 118 886 l 622 886 l 622 800 "},"Ă":{"ha":935,"x_min":0,"x_max":0,"o":"m 749 0 l 681 179 l 256 179 l 188 0 l 3 0 l 367 926 l 569 926 l 933 0 m 468 764 l 301 322 l 635 322 m 711 1119 b 468 997 656 1044 568 997 b 224 1119 369 997 281 1044 l 292 1176 b 468 1083 331 1121 393 1083 b 646 1176 543 1083 604 1118 l 711 1119 "},"ă":{"ha":746,"x_min":0,"x_max":0,"o":"m 506 0 l 506 74 b 288 -17 456 15 376 -17 b 56 206 179 -17 56 58 b 288 425 56 361 178 425 b 506 339 379 425 456 396 l 506 439 b 349 564 506 517 440 564 b 150 478 274 564 207 536 l 89 579 b 371 688 167 654 264 688 b 651 446 521 688 651 625 l 651 0 m 346 83 b 506 153 408 83 471 107 l 506 256 b 346 325 471 301 408 325 b 201 204 264 325 201 276 b 346 83 201 131 264 83 m 614 899 b 371 776 558 824 471 776 b 126 899 272 776 183 824 l 194 956 b 371 863 233 900 296 863 b 549 956 446 863 507 897 l 614 899 "},"Ą":{"ha":935,"x_min":0,"x_max":0,"o":"m 1015 -178 b 888 -258 992 -222 953 -258 b 754 -135 818 -258 754 -222 b 822 0 754 -83 779 -36 l 749 0 l 681 179 l 256 179 l 188 0 l 3 0 l 367 926 l 569 926 l 933 0 b 831 -129 865 -33 831 -76 b 888 -193 831 -174 856 -193 b 951 -140 921 -193 940 -172 m 468 764 l 301 322 l 635 322 "},"ą":{"ha":746,"x_min":0,"x_max":0,"o":"m 733 -178 b 606 -258 710 -222 671 -258 b 472 -135 536 -258 472 -222 b 540 0 472 -83 497 -36 l 506 0 l 506 74 b 288 -17 456 15 376 -17 b 56 206 179 -17 56 58 b 288 425 56 361 178 425 b 506 339 379 425 456 396 l 506 439 b 349 564 506 517 440 564 b 150 478 274 564 207 536 l 89 579 b 371 688 167 654 264 688 b 651 446 521 688 651 625 l 651 0 b 549 -129 583 -33 549 -76 b 606 -193 549 -174 574 -193 b 669 -140 639 -193 658 -172 m 346 83 b 506 153 408 83 471 107 l 506 256 b 346 325 471 301 408 325 b 201 204 264 325 201 276 b 346 83 201 131 264 83 "},"Ć":{"ha":947,"x_min":0,"x_max":0,"o":"m 544 -17 b 58 463 271 -17 58 178 b 544 942 58 749 271 942 b 915 735 731 942 847 846 l 778 663 b 544 797 733 740 643 797 b 225 463 361 797 225 658 b 544 128 225 269 361 128 b 778 263 643 128 733 186 l 917 193 b 544 -17 846 82 731 -17 m 543 1011 l 439 1011 l 633 1211 l 772 1211 "},"ć":{"ha":692,"x_min":0,"x_max":0,"o":"m 400 -17 b 54 336 197 -17 54 133 b 400 688 54 539 197 688 b 657 568 532 688 610 632 l 561 481 b 407 558 524 533 472 558 b 204 336 286 558 204 467 b 407 113 204 206 286 113 b 561 193 472 113 524 140 l 657 103 b 400 -17 610 40 532 -17 m 408 772 l 304 772 l 499 972 l 638 972 "},"Ĉ":{"ha":947,"x_min":0,"x_max":0,"o":"m 544 -17 b 58 463 271 -17 58 178 b 544 942 58 749 271 942 b 915 735 731 942 847 846 l 778 663 b 544 797 733 740 643 797 b 225 463 361 797 225 658 b 544 128 225 269 361 128 b 778 263 643 128 733 186 l 917 193 b 544 -17 846 82 731 -17 m 650 1011 l 542 1146 l 439 1011 l 346 1011 l 475 1211 l 608 1211 l 742 1011 "},"ĉ":{"ha":692,"x_min":0,"x_max":0,"o":"m 400 -17 b 54 336 197 -17 54 133 b 400 688 54 539 197 688 b 657 568 532 688 610 632 l 561 481 b 407 558 524 533 472 558 b 204 336 286 558 204 467 b 407 113 204 206 286 113 b 561 193 472 113 524 140 l 657 103 b 400 -17 610 40 532 -17 m 515 772 l 407 907 l 304 772 l 211 772 l 340 972 l 474 972 l 607 772 "},"Ċ":{"ha":947,"x_min":0,"x_max":0,"o":"m 544 -17 b 58 463 271 -17 58 178 b 544 942 58 749 271 942 b 915 735 731 942 847 846 l 778 663 b 544 797 733 740 643 797 b 225 463 361 797 225 658 b 544 128 225 269 361 128 b 778 263 643 128 733 186 l 917 193 b 544 -17 846 82 731 -17 m 547 1003 b 465 1085 503 1003 465 1039 b 547 1167 465 1129 503 1167 b 629 1085 592 1167 629 1129 b 547 1003 629 1039 592 1003 "},"ċ":{"ha":692,"x_min":0,"x_max":0,"o":"m 400 -17 b 54 336 197 -17 54 133 b 400 688 54 539 197 688 b 657 568 532 688 610 632 l 561 481 b 407 558 524 533 472 558 b 204 336 286 558 204 467 b 407 113 204 206 286 113 b 561 193 472 113 524 140 l 657 103 b 400 -17 610 40 532 -17 m 401 779 b 319 861 357 779 319 815 b 401 943 319 906 357 943 b 483 861 446 943 483 906 b 401 779 483 815 446 779 "},"Č":{"ha":947,"x_min":0,"x_max":0,"o":"m 544 -17 b 58 463 271 -17 58 178 b 544 942 58 749 271 942 b 915 735 731 942 847 846 l 778 663 b 544 797 733 740 643 797 b 225 463 361 797 225 658 b 544 128 225 269 361 128 b 778 263 643 128 733 186 l 917 193 b 544 -17 846 82 731 -17 m 479 1011 l 346 1211 l 439 1211 l 546 1078 l 650 1211 l 742 1211 l 613 1011 "},"č":{"ha":692,"x_min":0,"x_max":0,"o":"m 400 -17 b 54 336 197 -17 54 133 b 400 688 54 539 197 688 b 657 568 532 688 610 632 l 561 481 b 407 558 524 533 472 558 b 204 336 286 558 204 467 b 407 113 204 206 286 113 b 561 193 472 113 524 140 l 657 103 b 400 -17 610 40 532 -17 m 344 772 l 211 972 l 304 972 l 411 839 l 515 972 l 607 972 l 478 772 "},"Ď":{"ha":986,"x_min":0,"x_max":0,"o":"m 99 0 l 99 926 l 443 926 b 928 464 733 926 928 735 b 444 0 928 190 733 0 m 443 143 b 761 464 644 143 761 288 b 444 783 761 642 650 783 l 261 783 l 261 143 l 443 143 m 432 1011 l 299 1211 l 392 1211 l 499 1078 l 603 1211 l 694 1211 l 565 1011 "},"ď":{"ha":932,"x_min":0,"x_max":0,"o":"m 567 0 l 567 92 b 351 -17 515 25 439 -17 b 54 336 181 -17 54 114 b 351 688 54 553 179 688 b 567 578 436 688 514 650 l 567 926 l 713 926 l 713 0 m 394 113 b 567 203 463 113 535 153 l 567 468 b 394 558 535 518 463 558 b 204 336 278 558 204 465 b 394 113 204 206 278 113 m 938 840 b 829 642 938 760 892 686 l 776 685 b 860 799 815 708 854 758 b 842 796 858 797 849 796 b 774 867 803 796 774 825 b 850 944 774 910 808 944 b 938 840 896 944 938 907 "},"Đ":{"ha":1022,"x_min":0,"x_max":0,"o":"m 135 0 l 135 397 l 14 397 l 14 515 l 135 515 l 135 926 l 479 926 b 964 464 769 926 964 735 b 481 0 964 190 769 0 m 297 397 l 297 143 l 479 143 b 797 464 681 143 797 288 b 481 783 797 642 686 783 l 297 783 l 297 515 l 518 515 l 518 397 "},"đ":{"ha":814,"x_min":0,"x_max":0,"o":"m 567 0 l 567 92 b 351 -17 515 25 439 -17 b 54 336 181 -17 54 114 b 351 688 54 553 179 688 b 567 578 436 688 514 650 l 567 738 l 358 738 l 358 824 l 567 824 l 567 926 l 713 926 l 713 824 l 800 824 l 800 738 l 713 738 l 713 0 m 394 113 b 567 203 463 113 535 153 l 567 468 b 394 558 535 518 463 558 b 204 336 278 558 204 465 b 394 113 204 206 278 113 "},"Ē":{"ha":801,"x_min":0,"x_max":0,"o":"m 99 0 l 99 926 l 733 926 l 733 783 l 261 783 l 261 544 l 724 544 l 724 401 l 261 401 l 261 143 l 733 143 l 733 0 m 160 1039 l 160 1125 l 664 1125 l 664 1039 "},"ē":{"ha":774,"x_min":0,"x_max":0,"o":"m 406 -17 b 54 336 203 -17 54 124 b 394 688 54 531 196 688 b 724 324 596 688 724 535 l 724 288 l 207 288 b 419 103 218 188 293 103 b 611 178 486 103 563 129 l 678 82 b 406 -17 610 18 511 -17 m 583 392 b 393 568 579 471 525 568 b 206 392 269 568 211 472 l 583 392 m 136 800 l 136 886 l 640 886 l 640 800 "},"Ĕ":{"ha":801,"x_min":0,"x_max":0,"o":"m 99 0 l 99 926 l 733 926 l 733 783 l 261 783 l 261 544 l 724 544 l 724 401 l 261 401 l 261 143 l 733 143 l 733 0 m 656 1119 b 413 997 600 1044 513 997 b 168 1119 314 997 225 1044 l 236 1176 b 413 1083 275 1121 338 1083 b 590 1176 488 1083 549 1118 l 656 1119 "},"ĕ":{"ha":774,"x_min":0,"x_max":0,"o":"m 406 -17 b 54 336 203 -17 54 124 b 394 688 54 531 196 688 b 724 324 596 688 724 535 l 724 288 l 207 288 b 419 103 218 188 293 103 b 611 178 486 103 563 129 l 678 82 b 406 -17 610 18 511 -17 m 583 392 b 393 568 579 471 525 568 b 206 392 269 568 211 472 l 583 392 m 640 899 b 397 776 585 824 497 776 b 153 899 299 776 210 824 l 221 956 b 397 863 260 900 322 863 b 575 956 472 863 533 897 l 640 899 "},"Ė":{"ha":801,"x_min":0,"x_max":0,"o":"m 99 0 l 99 926 l 733 926 l 733 783 l 261 783 l 261 544 l 724 544 l 724 401 l 261 401 l 261 143 l 733 143 l 733 0 m 421 1003 b 339 1085 376 1003 339 1039 b 421 1167 339 1129 376 1167 b 503 1085 465 1167 503 1129 b 421 1003 503 1039 465 1003 "},"ė":{"ha":774,"x_min":0,"x_max":0,"o":"m 406 -17 b 54 336 203 -17 54 124 b 394 688 54 531 196 688 b 724 324 596 688 724 535 l 724 288 l 207 288 b 419 103 218 188 293 103 b 611 178 486 103 563 129 l 678 82 b 406 -17 610 18 511 -17 m 583 392 b 393 568 579 471 525 568 b 206 392 269 568 211 472 l 583 392 m 396 779 b 314 861 351 779 314 815 b 396 943 314 906 351 943 b 478 861 440 943 478 906 b 396 779 478 815 440 779 "},"Ę":{"ha":801,"x_min":0,"x_max":0,"o":"m 815 -178 b 688 -258 792 -222 753 -258 b 554 -135 618 -258 554 -222 b 622 0 554 -83 579 -36 l 99 0 l 99 926 l 733 926 l 733 783 l 261 783 l 261 544 l 724 544 l 724 401 l 261 401 l 261 143 l 733 143 l 733 0 b 631 -129 665 -33 631 -76 b 688 -193 631 -174 656 -193 b 751 -140 721 -193 740 -172 "},"ę":{"ha":774,"x_min":0,"x_max":0,"o":"m 610 -178 b 482 -258 586 -222 547 -258 b 349 -135 413 -258 349 -222 b 399 -17 349 -90 367 -50 b 54 336 200 -14 54 125 b 394 688 54 531 196 688 b 724 324 596 688 724 535 l 724 288 l 207 288 b 419 103 218 188 293 103 b 611 178 486 103 563 129 l 678 82 b 525 0 636 43 583 15 b 425 -129 458 -33 425 -76 b 482 -193 425 -174 450 -193 b 546 -140 515 -193 535 -172 m 583 392 b 393 568 579 471 525 568 b 206 392 269 568 211 472 l 583 392 "},"Ě":{"ha":801,"x_min":0,"x_max":0,"o":"m 99 0 l 99 926 l 733 926 l 733 783 l 261 783 l 261 544 l 724 544 l 724 401 l 261 401 l 261 143 l 733 143 l 733 0 m 353 1011 l 219 1211 l 313 1211 l 419 1078 l 524 1211 l 615 1211 l 486 1011 "},"ě":{"ha":774,"x_min":0,"x_max":0,"o":"m 406 -17 b 54 336 203 -17 54 124 b 394 688 54 531 196 688 b 724 324 596 688 724 535 l 724 288 l 207 288 b 419 103 218 188 293 103 b 611 178 486 103 563 129 l 678 82 b 406 -17 610 18 511 -17 m 583 392 b 393 568 579 471 525 568 b 206 392 269 568 211 472 l 583 392 m 329 772 l 196 972 l 289 972 l 396 839 l 500 972 l 592 972 l 463 772 "},"Ĝ":{"ha":996,"x_min":0,"x_max":0,"o":"m 544 -18 b 58 463 275 -18 58 172 b 544 942 58 754 275 942 b 917 750 725 942 843 856 l 785 674 b 544 797 735 743 647 797 b 225 463 361 797 225 658 b 544 128 225 269 361 128 b 764 211 639 128 722 171 l 764 354 l 486 354 l 486 497 l 925 497 l 925 151 b 544 -18 835 50 704 -18 m 654 1011 l 546 1146 l 443 1011 l 350 1011 l 479 1211 l 613 1211 l 746 1011 "},"ĝ":{"ha":807,"x_min":0,"x_max":0,"o":"m 368 -272 b 86 -172 254 -272 169 -247 l 154 -67 b 368 -153 210 -129 279 -153 b 567 35 464 -153 567 -108 l 567 111 b 351 -1 515 43 439 -1 b 54 343 181 -1 54 122 b 351 688 54 561 178 688 b 567 578 436 688 513 650 l 567 671 l 713 671 l 713 35 b 368 -272 713 -207 532 -272 m 394 129 b 567 218 463 129 533 169 l 567 469 b 394 558 533 518 463 558 b 204 343 278 558 204 472 b 394 129 204 214 278 129 m 517 761 l 408 896 l 306 761 l 213 761 l 342 961 l 475 961 l 608 761 "},"Ğ":{"ha":996,"x_min":0,"x_max":0,"o":"m 544 -18 b 58 463 275 -18 58 172 b 544 942 58 754 275 942 b 917 750 725 942 843 856 l 785 674 b 544 797 735 743 647 797 b 225 463 361 797 225 658 b 544 128 225 269 361 128 b 764 211 639 128 722 171 l 764 354 l 486 354 l 486 497 l 925 497 l 925 151 b 544 -18 835 50 704 -18 m 790 1119 b 547 997 735 1044 647 997 b 303 1119 449 997 360 1044 l 371 1176 b 547 1083 410 1121 472 1083 b 725 1176 622 1083 683 1118 l 790 1119 "},"ğ":{"ha":807,"x_min":0,"x_max":0,"o":"m 368 -272 b 86 -172 254 -272 169 -247 l 154 -67 b 368 -153 210 -129 279 -153 b 567 35 464 -153 567 -108 l 567 111 b 351 -1 515 43 439 -1 b 54 343 181 -1 54 122 b 351 688 54 561 178 688 b 567 578 436 688 513 650 l 567 671 l 713 671 l 713 35 b 368 -272 713 -207 532 -272 m 394 129 b 567 218 463 129 533 169 l 567 469 b 394 558 533 518 463 558 b 204 343 278 558 204 472 b 394 129 204 214 278 129 m 644 899 b 401 776 589 824 501 776 b 157 899 303 776 214 824 l 225 956 b 401 863 264 900 326 863 b 579 956 476 863 538 897 l 644 899 "},"Ġ":{"ha":996,"x_min":0,"x_max":0,"o":"m 544 -18 b 58 463 275 -18 58 172 b 544 942 58 754 275 942 b 917 750 725 942 843 856 l 785 674 b 544 797 735 743 647 797 b 225 463 361 797 225 658 b 544 128 225 269 361 128 b 764 211 639 128 722 171 l 764 354 l 486 354 l 486 497 l 925 497 l 925 151 b 544 -18 835 50 704 -18 m 546 1003 b 464 1085 501 1003 464 1039 b 546 1167 464 1129 501 1167 b 628 1085 590 1167 628 1129 b 546 1003 628 1039 590 1003 "},"ġ":{"ha":807,"x_min":0,"x_max":0,"o":"m 368 -272 b 86 -172 254 -272 169 -247 l 154 -67 b 368 -153 210 -129 279 -153 b 567 35 464 -153 567 -108 l 567 111 b 351 -1 515 43 439 -1 b 54 343 181 -1 54 122 b 351 688 54 561 178 688 b 567 578 436 688 513 650 l 567 671 l 713 671 l 713 35 b 368 -272 713 -207 532 -272 m 394 129 b 567 218 463 129 533 169 l 567 469 b 394 558 533 518 463 558 b 204 343 278 558 204 472 b 394 129 204 214 278 129 m 408 779 b 326 861 364 779 326 815 b 408 943 326 906 364 943 b 490 861 453 943 490 906 b 408 779 490 815 453 779 "},"Ģ":{"ha":996,"x_min":0,"x_max":0,"o":"m 544 -18 b 58 463 275 -18 58 172 b 544 942 58 754 275 942 b 917 750 725 942 843 856 l 785 674 b 544 797 735 743 647 797 b 225 463 361 797 225 658 b 544 128 225 269 361 128 b 764 211 639 128 722 171 l 764 354 l 486 354 l 486 497 l 925 497 l 925 151 b 544 -18 835 50 704 -18 m 633 -192 b 525 -390 633 -272 588 -346 l 472 -347 b 556 -233 511 -324 550 -274 b 538 -236 554 -235 544 -236 b 469 -165 499 -236 469 -207 b 546 -87 469 -122 504 -87 b 633 -192 592 -87 633 -125 "},"ģ":{"ha":807,"x_min":0,"x_max":0,"o":"m 315 869 b 419 1078 315 956 357 1033 l 475 1033 b 392 925 439 1013 396 964 b 399 926 393 925 396 926 b 474 851 436 926 474 894 b 396 774 474 811 440 774 b 315 869 361 774 315 800 m 368 -272 b 86 -172 254 -272 169 -247 l 154 -67 b 368 -153 210 -129 279 -153 b 567 35 464 -153 567 -108 l 567 111 b 351 -1 515 43 439 -1 b 54 343 181 -1 54 122 b 351 688 54 561 178 688 b 567 578 436 688 513 650 l 567 671 l 713 671 l 713 35 b 368 -272 713 -207 532 -272 m 394 129 b 567 218 463 129 533 169 l 567 469 b 394 558 533 518 463 558 b 204 343 278 558 204 472 b 394 129 204 214 278 129 "},"Ĥ":{"ha":1004,"x_min":0,"x_max":0,"o":"m 743 0 l 743 406 l 261 406 l 261 0 l 99 0 l 99 926 l 261 926 l 261 549 l 743 549 l 743 926 l 906 926 l 906 0 m 607 1011 l 499 1146 l 396 1011 l 303 1011 l 432 1211 l 565 1211 l 699 1011 "},"ĥ":{"ha":789,"x_min":0,"x_max":0,"o":"m 549 0 l 549 422 b 414 558 549 528 496 558 b 242 469 339 558 275 514 l 242 0 l 96 0 l 96 926 l 242 926 l 242 581 b 478 688 286 633 372 688 b 694 475 622 688 694 613 l 694 0 m 276 1011 l 168 1146 l 65 1011 l -28 1011 l 101 1211 l 235 1211 l 368 1011 "},"Ħ":{"ha":1029,"x_min":0,"x_max":0,"o":"m 757 0 l 757 406 l 275 406 l 275 0 l 113 0 l 113 696 l 14 696 l 14 782 l 113 782 l 113 926 l 275 926 l 275 782 l 757 782 l 757 926 l 919 926 l 919 782 l 1017 782 l 1017 696 l 919 696 l 919 0 m 757 549 l 757 696 l 275 696 l 275 549 "},"ħ":{"ha":794,"x_min":0,"x_max":0,"o":"m 247 738 l 247 581 b 483 688 292 633 378 688 b 700 475 628 688 700 613 l 700 0 l 554 0 l 554 422 b 419 558 554 528 501 558 b 247 469 344 558 281 514 l 247 0 l 101 0 l 101 738 l 14 738 l 14 824 l 101 824 l 101 926 l 247 926 l 247 824 l 456 824 l 456 738 "},"Ĩ":{"ha":360,"x_min":0,"x_max":0,"o":"m 99 0 l 99 926 l 261 926 l 261 0 m 260 1008 b 94 1117 164 1008 153 1117 b 38 1017 63 1117 38 1086 l -43 1017 b 100 1203 -43 1131 7 1203 b 265 1094 197 1203 207 1094 b 324 1194 297 1094 324 1125 l 403 1194 b 260 1008 403 1081 353 1008 "},"ĩ":{"ha":335,"x_min":0,"x_max":0,"o":"m 94 0 l 94 671 l 240 671 l 240 0 m 247 749 b 82 857 151 749 140 857 b 25 757 50 857 25 826 l -56 757 b 88 943 -56 871 -6 943 b 253 835 185 943 194 835 b 311 935 285 835 311 865 l 390 935 b 247 749 390 821 340 749 "},"Ī":{"ha":360,"x_min":0,"x_max":0,"o":"m 99 0 l 99 926 l 261 926 l 261 0 m -72 1039 l -72 1125 l 432 1125 l 432 1039 "},"ī":{"ha":335,"x_min":0,"x_max":0,"o":"m 94 0 l 94 671 l 240 671 l 240 0 m -85 800 l -85 886 l 419 886 l 419 800 "},"Ĭ":{"ha":360,"x_min":0,"x_max":0,"o":"m 99 0 l 99 926 l 261 926 l 261 0 m 426 1119 b 183 997 371 1044 283 997 b -61 1119 85 997 -4 1044 l 7 1176 b 183 1083 46 1121 108 1083 b 361 1176 258 1083 319 1118 l 426 1119 "},"ĭ":{"ha":335,"x_min":0,"x_max":0,"o":"m 94 0 l 94 671 l 240 671 l 240 0 m 413 899 b 169 776 357 824 269 776 b -75 899 71 776 -18 824 l -7 956 b 169 863 32 900 94 863 b 347 956 244 863 306 897 l 413 899 "},"Į":{"ha":360,"x_min":0,"x_max":0,"o":"m 343 -178 b 215 -258 319 -222 281 -258 b 82 -135 146 -258 82 -222 b 150 0 82 -83 107 -36 l 99 0 l 99 926 l 261 926 l 261 0 b 158 -129 193 -33 158 -76 b 215 -193 158 -174 183 -193 b 279 -140 249 -193 268 -172 "},"į":{"ha":335,"x_min":0,"x_max":0,"o":"m 322 -178 b 194 -258 299 -222 260 -258 b 61 -135 125 -258 61 -222 b 129 0 61 -83 86 -36 l 94 0 l 94 671 l 240 671 l 240 0 b 138 -129 172 -33 138 -76 b 194 -193 138 -174 163 -193 b 258 -140 228 -193 247 -172 m 168 753 b 78 843 118 753 78 793 b 168 933 78 893 118 933 b 258 843 218 933 258 893 b 168 753 258 793 218 753 "},"İ":{"ha":360,"x_min":0,"x_max":0,"o":"m 99 0 l 99 926 l 261 926 l 261 0 m 182 1003 b 100 1085 138 1003 100 1039 b 182 1167 100 1129 138 1167 b 264 1085 226 1167 264 1129 b 182 1003 264 1039 226 1003 "},"Ĳ":{"ha":1029,"x_min":0,"x_max":0,"o":"m 99 0 l 99 926 l 261 926 l 261 0 m 618 -17 b 371 82 522 -17 438 13 l 447 206 b 606 128 483 164 535 128 b 768 296 704 128 768 196 l 768 926 l 931 926 l 931 294 b 618 -17 931 83 797 -17 "},"ĳ":{"ha":669,"x_min":0,"x_max":0,"o":"m 168 753 b 78 843 118 753 78 793 b 168 933 78 893 118 933 b 258 843 218 933 258 893 b 168 753 258 793 218 753 m 94 0 l 94 671 l 240 671 l 240 0 m 503 753 b 413 843 453 753 413 793 b 503 933 413 893 453 933 b 593 843 553 933 593 893 b 503 753 593 793 553 753 m 353 -272 b 194 -224 275 -272 240 -257 l 238 -115 b 331 -153 263 -137 289 -153 b 429 -39 389 -153 429 -118 l 429 671 l 575 671 l 575 -39 b 353 -272 575 -182 501 -272 "},"Ĵ":{"ha":669,"x_min":0,"x_max":0,"o":"m 258 -17 b 11 82 163 -17 78 13 l 88 206 b 246 128 124 164 175 128 b 408 296 344 128 408 196 l 408 926 l 571 926 l 571 294 b 258 -17 571 83 438 -17 m 596 1011 l 488 1146 l 385 1011 l 292 1011 l 421 1211 l 554 1211 l 688 1011 "},"ĵ":{"ha":335,"x_min":0,"x_max":0,"o":"m 18 -272 b -140 -224 -60 -272 -94 -257 l -97 -106 b -4 -143 -72 -128 -46 -143 b 94 -39 54 -143 94 -108 l 94 671 l 240 671 l 240 -39 b 18 -272 240 -182 167 -272 m 276 772 l 168 907 l 65 772 l -28 772 l 101 972 l 235 972 l 368 772 "},"Ķ":{"ha":875,"x_min":0,"x_max":0,"o":"m 653 0 l 343 392 l 261 296 l 261 0 l 99 0 l 99 926 l 261 926 l 261 486 l 624 926 l 825 926 l 449 490 l 854 0 m 528 -192 b 419 -390 528 -272 482 -346 l 367 -347 b 450 -233 406 -324 444 -274 b 432 -236 449 -235 439 -236 b 364 -165 393 -236 364 -207 b 440 -87 364 -122 399 -87 b 528 -192 486 -87 528 -125 "},"ķ":{"ha":732,"x_min":0,"x_max":0,"o":"m 539 0 l 335 278 l 240 181 l 240 0 l 94 0 l 94 926 l 240 926 l 240 347 l 536 671 l 717 671 l 439 367 l 722 0 m 457 -192 b 349 -390 457 -272 411 -346 l 296 -347 b 379 -233 335 -324 374 -274 b 361 -236 378 -235 368 -236 b 293 -165 322 -236 293 -207 b 369 -87 293 -122 328 -87 b 457 -192 415 -87 457 -125 "},"ĸ":{"ha":732,"x_min":0,"x_max":0,"o":"m 539 0 l 335 278 l 240 181 l 240 0 l 94 0 l 94 671 l 240 671 l 240 347 l 536 671 l 717 671 l 439 367 l 722 0 "},"Ĺ":{"ha":703,"x_min":0,"x_max":0,"o":"m 88 0 l 88 926 l 250 926 l 250 143 l 658 143 l 658 0 m 372 1011 l 268 1011 l 463 1211 l 601 1211 "},"ĺ":{"ha":335,"x_min":0,"x_max":0,"o":"m 94 0 l 94 926 l 240 926 l 240 0 m 168 1011 l 64 1011 l 258 1211 l 397 1211 "},"Ļ":{"ha":703,"x_min":0,"x_max":0,"o":"m 88 0 l 88 926 l 250 926 l 250 143 l 658 143 l 658 0 m 439 -192 b 331 -390 439 -272 393 -346 l 278 -347 b 361 -233 317 -324 356 -274 b 343 -236 360 -235 350 -236 b 275 -165 304 -236 275 -207 b 351 -87 275 -122 310 -87 b 439 -192 397 -87 439 -125 "},"ļ":{"ha":335,"x_min":0,"x_max":0,"o":"m 94 0 l 94 926 l 240 926 l 240 0 m 258 -192 b 150 -390 258 -272 213 -346 l 97 -347 b 181 -233 136 -324 175 -274 b 163 -236 179 -235 169 -236 b 94 -165 124 -236 94 -207 b 171 -87 94 -122 129 -87 b 258 -192 217 -87 258 -125 "},"Ľ":{"ha":703,"x_min":0,"x_max":0,"o":"m 88 0 l 88 926 l 250 926 l 250 143 l 658 143 l 658 0 m 533 840 b 425 642 533 760 488 686 l 372 685 b 456 799 411 708 450 758 b 438 796 454 797 444 796 b 369 867 399 796 369 825 b 446 944 369 910 404 944 b 533 840 492 944 533 907 "},"ľ":{"ha":456,"x_min":0,"x_max":0,"o":"m 94 0 l 94 926 l 240 926 l 240 0 m 482 840 b 374 642 482 760 436 686 l 321 685 b 404 799 360 708 399 758 b 386 796 403 797 393 796 b 318 867 347 796 318 825 b 394 944 318 910 353 944 b 482 840 440 944 482 907 "},"Ŀ":{"ha":746,"x_min":0,"x_max":0,"o":"m 88 0 l 88 926 l 250 926 l 250 143 l 658 143 l 658 0 m 643 476 b 547 379 643 424 600 379 b 450 476 494 379 450 424 b 547 572 450 528 494 572 b 643 476 600 572 643 528 "},"ŀ":{"ha":488,"x_min":0,"x_max":0,"o":"m 94 0 l 94 926 l 240 926 l 240 0 m 508 340 b 413 243 508 288 465 243 b 315 340 360 243 315 288 b 413 436 315 392 360 436 b 508 340 465 436 508 392 "},"Ń":{"ha":1000,"x_min":0,"x_max":0,"o":"m 744 0 l 261 663 l 261 0 l 99 0 l 99 926 l 265 926 l 739 285 l 739 926 l 901 926 l 901 0 m 500 1011 l 396 1011 l 590 1211 l 729 1211 "},"ń":{"ha":789,"x_min":0,"x_max":0,"o":"m 556 0 l 556 419 b 419 558 556 525 501 558 b 247 469 346 558 282 514 l 247 0 l 101 0 l 101 671 l 247 671 l 247 581 b 485 688 292 633 379 688 b 701 472 629 688 701 610 l 701 0 m 394 772 l 290 772 l 485 972 l 624 972 "},"Ņ":{"ha":1000,"x_min":0,"x_max":0,"o":"m 744 0 l 261 663 l 261 0 l 99 0 l 99 926 l 265 926 l 739 285 l 739 926 l 901 926 l 901 0 m 590 -192 b 482 -390 590 -272 544 -346 l 429 -347 b 513 -233 468 -324 507 -274 b 494 -236 511 -235 501 -236 b 426 -165 456 -236 426 -207 b 503 -87 426 -122 461 -87 b 590 -192 549 -87 590 -125 "},"ņ":{"ha":789,"x_min":0,"x_max":0,"o":"m 556 0 l 556 419 b 419 558 556 525 501 558 b 247 469 346 558 282 514 l 247 0 l 101 0 l 101 671 l 247 671 l 247 581 b 485 688 292 633 379 688 b 701 472 629 688 701 610 l 701 0 m 485 -192 b 376 -390 485 -272 439 -346 l 324 -347 b 407 -233 363 -324 401 -274 b 389 -236 406 -235 396 -236 b 321 -165 350 -236 321 -207 b 397 -87 321 -122 356 -87 b 485 -192 443 -87 485 -125 "},"Ň":{"ha":1000,"x_min":0,"x_max":0,"o":"m 744 0 l 261 663 l 261 0 l 99 0 l 99 926 l 265 926 l 739 285 l 739 926 l 901 926 l 901 0 m 435 1011 l 301 1211 l 394 1211 l 501 1078 l 606 1211 l 697 1211 l 568 1011 "},"ň":{"ha":789,"x_min":0,"x_max":0,"o":"m 556 0 l 556 419 b 419 558 556 525 501 558 b 247 469 346 558 282 514 l 247 0 l 101 0 l 101 671 l 247 671 l 247 581 b 485 688 292 633 379 688 b 701 472 629 688 701 610 l 701 0 m 329 772 l 196 972 l 289 972 l 396 839 l 500 972 l 592 972 l 463 772 "},"ŉ":{"ha":789,"x_min":0,"x_max":0,"o":"m 556 0 l 556 419 b 419 558 556 525 501 558 b 247 469 346 558 282 514 l 247 0 l 101 0 l 101 671 l 247 671 l 247 581 b 485 688 292 633 379 688 b 701 472 629 688 701 610 l 701 0 m 235 944 b 126 746 235 864 189 790 l 74 789 b 157 903 113 813 151 863 b 139 900 156 901 146 900 b 71 971 100 900 71 929 b 147 1049 71 1014 106 1049 b 235 944 193 1049 235 1011 "},"Ŋ":{"ha":1000,"x_min":0,"x_max":0,"o":"m 589 -272 b 343 -175 493 -272 408 -244 l 418 -51 b 576 -128 456 -92 506 -128 b 736 10 667 -128 725 -74 l 261 663 l 261 0 l 99 0 l 99 926 l 265 926 l 739 285 l 739 926 l 901 926 l 901 36 b 589 -272 901 -175 768 -272 "},"ŋ":{"ha":789,"x_min":0,"x_max":0,"o":"m 472 -272 b 314 -224 394 -272 360 -257 l 357 -106 b 450 -143 382 -128 408 -143 b 549 -39 507 -143 549 -108 l 549 419 b 413 558 549 525 494 558 b 240 469 339 558 275 514 l 240 0 l 94 0 l 94 671 l 240 671 l 240 581 b 478 688 285 633 372 688 b 694 472 622 688 694 610 l 694 -39 b 472 -272 694 -182 619 -272 "},"Ō":{"ha":1063,"x_min":0,"x_max":0,"o":"m 532 -17 b 58 463 254 -17 58 186 b 532 942 58 739 254 942 b 1006 463 808 942 1006 739 b 532 -17 1006 186 808 -17 m 532 128 b 839 463 718 128 839 272 b 532 797 839 654 718 797 b 225 463 344 797 225 654 b 532 128 225 272 344 128 m 279 1039 l 279 1125 l 783 1125 l 783 1039 "},"ō":{"ha":797,"x_min":0,"x_max":0,"o":"m 399 -17 b 54 336 185 -17 54 144 b 399 688 54 529 185 688 b 743 336 613 688 743 529 b 399 -17 743 144 613 -17 m 399 113 b 592 336 524 113 592 217 b 399 558 592 454 524 558 b 206 336 275 558 206 454 b 399 113 206 217 275 113 m 146 800 l 146 886 l 650 886 l 650 800 "},"Ŏ":{"ha":1063,"x_min":0,"x_max":0,"o":"m 532 -17 b 58 463 254 -17 58 186 b 532 942 58 739 254 942 b 1006 463 808 942 1006 739 b 532 -17 1006 186 808 -17 m 532 128 b 839 463 718 128 839 272 b 532 797 839 654 718 797 b 225 463 344 797 225 654 b 532 128 225 272 344 128 m 774 1119 b 531 997 718 1044 631 997 b 286 1119 432 997 343 1044 l 354 1176 b 531 1083 393 1121 456 1083 b 708 1176 606 1083 667 1118 l 774 1119 "},"ŏ":{"ha":797,"x_min":0,"x_max":0,"o":"m 399 -17 b 54 336 185 -17 54 144 b 399 688 54 529 185 688 b 743 336 613 688 743 529 b 399 -17 743 144 613 -17 m 399 113 b 592 336 524 113 592 217 b 399 558 592 454 524 558 b 206 336 275 558 206 454 b 399 113 206 217 275 113 m 642 899 b 399 776 586 824 499 776 b 154 899 300 776 211 824 l 222 956 b 399 863 261 900 324 863 b 576 956 474 863 535 897 l 642 899 "},"Ő":{"ha":1063,"x_min":0,"x_max":0,"o":"m 532 -17 b 58 463 254 -17 58 186 b 532 942 58 739 254 942 b 1006 463 808 942 1006 739 b 532 -17 1006 186 808 -17 m 532 128 b 839 463 718 128 839 272 b 532 797 839 654 718 797 b 225 463 344 797 225 654 b 532 128 225 272 344 128 m 456 1011 l 368 1011 l 493 1211 l 615 1211 m 658 1011 l 571 1011 l 696 1211 l 818 1211 "},"ő":{"ha":797,"x_min":0,"x_max":0,"o":"m 399 -17 b 54 336 185 -17 54 144 b 399 688 54 529 185 688 b 743 336 613 688 743 529 b 399 -17 743 144 613 -17 m 399 113 b 592 336 524 113 592 217 b 399 558 592 454 524 558 b 206 336 275 558 206 454 b 399 113 206 217 275 113 m 324 772 l 236 772 l 361 972 l 483 972 m 526 772 l 439 772 l 564 972 l 686 972 "},"Ŕ":{"ha":874,"x_min":0,"x_max":0,"o":"m 628 0 l 424 346 l 261 346 l 261 0 l 99 0 l 99 926 l 506 926 b 810 636 689 926 810 808 b 589 364 810 472 701 382 l 817 0 m 485 489 b 643 638 576 489 643 547 b 485 783 643 726 576 783 l 261 783 l 261 489 l 485 489 m 439 1011 l 335 1011 l 529 1211 l 668 1211 "},"ŕ":{"ha":482,"x_min":0,"x_max":0,"o":"m 94 0 l 94 671 l 240 671 l 240 574 b 458 688 292 638 372 688 l 458 543 b 414 547 446 546 432 547 b 240 457 351 547 269 506 l 240 0 m 275 772 l 171 772 l 365 972 l 504 972 "},"Ŗ":{"ha":874,"x_min":0,"x_max":0,"o":"m 628 0 l 424 346 l 261 346 l 261 0 l 99 0 l 99 926 l 506 926 b 810 636 689 926 810 808 b 589 364 810 472 701 382 l 817 0 m 485 489 b 643 638 576 489 643 547 b 485 783 643 726 576 783 l 261 783 l 261 489 l 485 489 m 529 -192 b 421 -390 529 -272 483 -346 l 368 -347 b 451 -233 407 -324 446 -274 b 433 -236 450 -235 440 -236 b 365 -165 394 -236 365 -207 b 442 -87 365 -122 400 -87 b 529 -192 488 -87 529 -125 "},"ŗ":{"ha":482,"x_min":0,"x_max":0,"o":"m 94 0 l 94 671 l 240 671 l 240 574 b 458 688 292 638 372 688 l 458 543 b 414 547 446 546 432 547 b 240 457 351 547 269 506 l 240 0 m 332 -192 b 224 -390 332 -272 286 -346 l 171 -347 b 254 -233 210 -324 249 -274 b 236 -236 253 -235 243 -236 b 168 -165 197 -236 168 -207 b 244 -87 168 -122 203 -87 b 332 -192 290 -87 332 -125 "},"Ř":{"ha":874,"x_min":0,"x_max":0,"o":"m 628 0 l 424 346 l 261 346 l 261 0 l 99 0 l 99 926 l 506 926 b 810 636 689 926 810 808 b 589 364 810 472 701 382 l 817 0 m 485 489 b 643 638 576 489 643 547 b 485 783 643 726 576 783 l 261 783 l 261 489 l 485 489 m 375 1011 l 242 1211 l 335 1211 l 442 1078 l 546 1211 l 638 1211 l 508 1011 "},"ř":{"ha":482,"x_min":0,"x_max":0,"o":"m 94 0 l 94 671 l 240 671 l 240 574 b 458 688 292 638 372 688 l 458 543 b 414 547 446 546 432 547 b 240 457 351 547 269 506 l 240 0 m 210 772 l 76 972 l 169 972 l 276 839 l 381 972 l 472 972 l 343 772 "},"Ś":{"ha":825,"x_min":0,"x_max":0,"o":"m 417 -17 b 39 131 246 -17 122 44 l 131 257 b 424 128 193 189 294 128 b 608 256 557 128 608 193 b 69 669 608 450 69 329 b 407 942 69 824 203 942 b 753 811 550 942 668 894 l 661 690 b 392 797 588 764 489 797 b 236 682 297 797 236 750 b 775 271 236 508 775 615 b 417 -17 775 117 665 -17 m 410 1011 l 306 1011 l 500 1211 l 639 1211 "},"ś":{"ha":656,"x_min":0,"x_max":0,"o":"m 325 -17 b 38 89 210 -17 107 21 l 104 193 b 331 100 151 144 244 100 b 464 189 418 100 464 136 b 58 485 464 321 58 226 b 322 688 58 594 153 688 b 582 594 436 688 522 647 l 521 492 b 322 572 481 536 407 572 b 199 489 246 572 199 536 b 604 193 199 371 604 460 b 325 -17 604 74 506 -17 m 331 772 l 226 772 l 421 972 l 560 972 "},"Ŝ":{"ha":825,"x_min":0,"x_max":0,"o":"m 508 1011 l 400 1146 l 297 1011 l 204 1011 l 333 1211 l 467 1211 l 600 1011 m 417 -17 b 39 131 246 -17 122 44 l 131 257 b 424 128 193 189 294 128 b 608 256 557 128 608 193 b 69 669 608 450 69 329 b 407 942 69 824 203 942 b 753 811 550 942 668 894 l 661 690 b 392 797 588 764 489 797 b 236 682 297 797 236 750 b 775 271 236 508 775 615 b 417 -17 775 117 665 -17 "},"ŝ":{"ha":656,"x_min":0,"x_max":0,"o":"m 325 -17 b 38 89 210 -17 107 21 l 104 193 b 331 100 151 144 244 100 b 464 189 418 100 464 136 b 58 485 464 321 58 226 b 322 688 58 594 153 688 b 582 594 436 688 522 647 l 521 492 b 322 572 481 536 407 572 b 199 489 246 572 199 536 b 604 193 199 371 604 460 b 325 -17 604 74 506 -17 m 431 772 l 322 907 l 219 772 l 126 772 l 256 972 l 389 972 l 522 772 "},"Ş":{"ha":825,"x_min":0,"x_max":0,"o":"m 403 -269 b 256 -226 340 -269 285 -249 l 288 -162 b 400 -203 322 -190 361 -203 b 476 -153 440 -203 476 -186 b 432 -111 476 -126 461 -111 b 383 -132 413 -111 394 -119 l 328 -100 l 358 -14 b 39 131 218 -1 113 54 l 131 257 b 424 128 193 189 294 128 b 608 256 557 128 608 193 b 69 669 608 450 69 329 b 407 942 69 824 203 942 b 753 811 550 942 668 894 l 661 690 b 392 797 588 764 489 797 b 236 682 297 797 236 750 b 775 271 236 508 775 615 b 433 -17 775 119 669 -10 l 411 -74 b 461 -58 425 -64 443 -58 b 553 -154 513 -58 553 -97 b 403 -269 553 -225 486 -269 "},"ş":{"ha":656,"x_min":0,"x_max":0,"o":"m 324 -269 b 176 -226 261 -269 206 -249 l 208 -162 b 321 -203 243 -190 282 -203 b 397 -153 361 -203 397 -186 b 353 -111 397 -126 382 -111 b 304 -132 333 -111 315 -119 l 249 -100 l 279 -14 b 38 89 183 -6 97 29 l 104 193 b 331 100 151 144 244 100 b 464 189 418 100 464 136 b 58 485 464 321 58 226 b 322 688 58 594 153 688 b 582 594 436 688 522 647 l 521 492 b 322 572 481 536 407 572 b 199 489 246 572 199 536 b 604 193 199 371 604 460 b 354 -15 604 81 515 -6 l 332 -74 b 382 -58 346 -64 364 -58 b 474 -154 433 -58 474 -97 b 324 -269 474 -225 407 -269 "},"Ţ":{"ha":801,"x_min":0,"x_max":0,"o":"m 319 0 l 319 783 l 39 783 l 39 926 l 763 926 l 763 783 l 482 783 l 482 0 m 492 -192 b 383 -390 492 -272 446 -346 l 331 -347 b 414 -233 369 -324 408 -274 b 396 -236 413 -235 403 -236 b 328 -165 357 -236 328 -207 b 404 -87 328 -122 363 -87 b 492 -192 450 -87 492 -125 "},"ţ":{"ha":443,"x_min":0,"x_max":0,"o":"m 297 -17 b 125 157 183 -17 125 44 l 125 544 l 14 544 l 14 671 l 125 671 l 125 854 l 271 854 l 271 671 l 407 671 l 407 544 l 271 544 l 271 193 b 335 113 271 147 293 113 b 399 138 363 113 388 125 l 433 26 b 297 -17 407 3 364 -17 m 313 -192 b 204 -390 313 -272 267 -346 l 151 -347 b 235 -233 190 -324 229 -274 b 217 -236 233 -235 224 -236 b 149 -165 178 -236 149 -207 b 225 -87 149 -122 183 -87 b 313 -192 271 -87 313 -125 "},"Ť":{"ha":801,"x_min":0,"x_max":0,"o":"m 319 0 l 319 783 l 39 783 l 39 926 l 763 926 l 763 783 l 482 783 l 482 0 m 336 1011 l 203 1211 l 296 1211 l 403 1078 l 507 1211 l 599 1211 l 469 1011 "},"ť":{"ha":489,"x_min":0,"x_max":0,"o":"m 297 -17 b 125 157 183 -17 125 44 l 125 544 l 14 544 l 14 671 l 125 671 l 125 854 l 271 854 l 271 671 l 407 671 l 407 544 l 271 544 l 271 193 b 335 113 271 147 293 113 b 399 138 363 113 388 125 l 433 26 b 297 -17 407 3 364 -17 m 513 944 b 404 746 513 864 467 790 l 351 789 b 435 903 390 813 429 863 b 417 900 433 901 424 900 b 349 971 378 900 349 929 b 425 1049 349 1014 383 1049 b 513 944 471 1049 513 1011 "},"Ŧ":{"ha":801,"x_min":0,"x_max":0,"o":"m 319 0 l 319 383 l 125 383 l 125 469 l 319 469 l 319 783 l 39 783 l 39 926 l 763 926 l 763 783 l 482 783 l 482 469 l 679 469 l 679 383 l 482 383 l 482 0 "},"ŧ":{"ha":443,"x_min":0,"x_max":0,"o":"m 271 300 l 271 193 b 335 113 271 147 293 113 b 399 138 363 113 388 125 l 433 26 b 297 -17 407 3 364 -17 b 125 157 183 -17 125 44 l 125 300 l 14 300 l 14 386 l 125 386 l 125 544 l 14 544 l 14 671 l 125 671 l 125 854 l 271 854 l 271 671 l 407 671 l 407 544 l 271 544 l 271 386 l 367 386 l 367 300 "},"Ũ":{"ha":1000,"x_min":0,"x_max":0,"o":"m 500 -17 b 99 367 232 -17 99 138 l 99 926 l 264 926 l 264 371 b 500 128 264 224 346 128 b 736 371 654 128 736 224 l 736 926 l 901 926 l 901 367 b 500 -17 901 138 769 -17 m 583 1008 b 418 1117 488 1008 476 1117 b 361 1017 386 1117 361 1086 l 281 1017 b 424 1203 281 1131 331 1203 b 589 1094 521 1203 531 1094 b 647 1194 621 1094 647 1125 l 726 1194 b 583 1008 726 1081 676 1008 "},"ũ":{"ha":788,"x_min":0,"x_max":0,"o":"m 547 0 l 547 89 b 311 -17 500 36 417 -17 b 94 196 167 -17 94 60 l 94 671 l 240 671 l 240 250 b 376 113 240 146 293 113 b 547 200 450 113 514 156 l 547 671 l 693 671 l 693 0 m 474 769 b 308 878 378 769 367 878 b 251 778 276 878 251 847 l 171 778 b 314 964 171 892 221 964 b 479 856 411 964 421 856 b 538 956 511 856 538 886 l 617 956 b 474 769 617 842 567 769 "},"Ū":{"ha":1000,"x_min":0,"x_max":0,"o":"m 500 -17 b 99 367 232 -17 99 138 l 99 926 l 264 926 l 264 371 b 500 128 264 224 346 128 b 736 371 654 128 736 224 l 736 926 l 901 926 l 901 367 b 500 -17 901 138 769 -17 m 250 1039 l 250 1125 l 754 1125 l 754 1039 "},"ū":{"ha":788,"x_min":0,"x_max":0,"o":"m 547 0 l 547 89 b 311 -17 500 36 417 -17 b 94 196 167 -17 94 60 l 94 671 l 240 671 l 240 250 b 376 113 240 146 293 113 b 547 200 450 113 514 156 l 547 671 l 693 671 l 693 0 m 142 800 l 142 886 l 646 886 l 646 800 "},"Ŭ":{"ha":1000,"x_min":0,"x_max":0,"o":"m 500 -17 b 99 367 232 -17 99 138 l 99 926 l 264 926 l 264 371 b 500 128 264 224 346 128 b 736 371 654 128 736 224 l 736 926 l 901 926 l 901 367 b 500 -17 901 138 769 -17 m 747 1119 b 504 997 692 1044 604 997 b 260 1119 406 997 317 1044 l 328 1176 b 504 1083 367 1121 429 1083 b 682 1176 579 1083 640 1118 l 747 1119 "},"ŭ":{"ha":788,"x_min":0,"x_max":0,"o":"m 547 0 l 547 89 b 311 -17 500 36 417 -17 b 94 196 167 -17 94 60 l 94 671 l 240 671 l 240 250 b 376 113 240 146 293 113 b 547 200 450 113 514 156 l 547 671 l 693 671 l 693 0 m 640 899 b 397 776 585 824 497 776 b 153 899 299 776 210 824 l 221 956 b 397 863 260 900 322 863 b 575 956 472 863 533 897 l 640 899 "},"Ů":{"ha":1000,"x_min":0,"x_max":0,"o":"m 500 -17 b 99 367 232 -17 99 138 l 99 926 l 264 926 l 264 371 b 500 128 264 224 346 128 b 736 371 654 128 736 224 l 736 926 l 901 926 l 901 367 b 500 -17 901 138 769 -17 m 503 963 b 360 1104 425 963 360 1026 b 503 1247 360 1182 425 1247 b 643 1104 581 1247 643 1182 b 503 963 643 1026 581 963 m 503 1032 b 574 1104 542 1032 574 1065 b 503 1176 574 1144 542 1176 b 431 1104 463 1176 431 1144 b 503 1032 431 1065 463 1032 "},"ů":{"ha":788,"x_min":0,"x_max":0,"o":"m 547 0 l 547 89 b 311 -17 500 36 417 -17 b 94 196 167 -17 94 60 l 94 671 l 240 671 l 240 250 b 376 113 240 146 293 113 b 547 200 450 113 514 156 l 547 671 l 693 671 l 693 0 m 396 760 b 253 901 318 760 253 824 b 396 1044 253 979 318 1044 b 536 901 474 1044 536 979 b 396 760 536 824 474 760 m 396 829 b 467 901 435 829 467 863 b 396 974 467 942 435 974 b 324 901 356 974 324 942 b 396 829 324 863 356 829 "},"Ű":{"ha":1000,"x_min":0,"x_max":0,"o":"m 500 -17 b 99 367 232 -17 99 138 l 99 926 l 264 926 l 264 371 b 500 128 264 224 346 128 b 736 371 654 128 736 224 l 736 926 l 901 926 l 901 367 b 500 -17 901 138 769 -17 m 426 1011 l 339 1011 l 464 1211 l 586 1211 m 629 1011 l 542 1011 l 667 1211 l 789 1211 "},"ű":{"ha":788,"x_min":0,"x_max":0,"o":"m 547 0 l 547 89 b 311 -17 500 36 417 -17 b 94 196 167 -17 94 60 l 94 671 l 240 671 l 240 250 b 376 113 240 146 293 113 b 547 200 450 113 514 156 l 547 671 l 693 671 l 693 0 m 318 772 l 231 772 l 356 972 l 478 972 m 521 772 l 433 772 l 558 972 l 681 972 "},"Ų":{"ha":1000,"x_min":0,"x_max":0,"o":"m 500 -17 b 99 367 232 -17 99 138 l 99 926 l 264 926 l 264 371 b 500 128 264 224 346 128 b 736 371 654 128 736 224 l 736 926 l 901 926 l 901 367 b 640 0 901 181 815 46 b 538 -129 572 -33 538 -76 b 594 -193 538 -174 563 -193 b 658 -140 628 -193 647 -172 l 722 -178 b 594 -258 699 -222 660 -258 b 461 -135 525 -258 461 -222 b 511 -17 461 -90 479 -50 l 500 -17 "},"ų":{"ha":788,"x_min":0,"x_max":0,"o":"m 775 -178 b 647 -258 751 -222 713 -258 b 514 -135 578 -258 514 -222 b 582 0 514 -83 539 -36 l 547 0 l 547 89 b 311 -17 500 36 417 -17 b 94 196 167 -17 94 60 l 94 671 l 240 671 l 240 250 b 376 113 240 146 293 113 b 547 200 450 113 514 156 l 547 671 l 693 671 l 693 0 b 590 -129 625 -33 590 -76 b 647 -193 590 -174 615 -193 b 711 -140 681 -193 700 -172 "},"Ŵ":{"ha":1254,"x_min":0,"x_max":0,"o":"m 807 0 l 628 685 l 447 0 l 274 0 l 10 926 l 190 926 l 371 214 l 563 926 l 692 926 l 883 214 l 1064 926 l 1246 926 l 981 0 m 735 1011 l 626 1146 l 524 1011 l 431 1011 l 560 1211 l 693 1211 l 826 1011 "},"ŵ":{"ha":1049,"x_min":0,"x_max":0,"o":"m 681 0 l 524 492 l 368 0 l 215 0 l 7 671 l 158 671 l 300 183 l 460 671 l 589 671 l 747 183 l 889 671 l 1042 671 l 833 0 m 631 772 l 522 907 l 419 772 l 326 772 l 456 972 l 589 972 l 722 772 "},"Ŷ":{"ha":885,"x_min":0,"x_max":0,"o":"m 551 1011 l 443 1146 l 340 1011 l 247 1011 l 376 1211 l 510 1211 l 643 1011 m 363 0 l 363 385 l 3 926 l 189 926 l 443 531 l 697 926 l 883 926 l 525 385 l 525 0 "},"ŷ":{"ha":699,"x_min":0,"x_max":0,"o":"m 88 -132 b 143 -143 103 -139 126 -143 b 240 -85 190 -143 221 -129 l 274 -8 l -3 671 l 154 671 l 350 168 l 546 671 l 701 671 l 378 -121 b 149 -272 332 -235 253 -271 b 67 -262 128 -272 86 -268 m 457 772 l 349 907 l 246 772 l 153 772 l 282 972 l 415 972 l 549 772 "},"Ź":{"ha":818,"x_min":0,"x_max":0,"o":"m 63 0 l 63 132 l 535 783 l 63 783 l 63 926 l 747 926 l 747 796 l 272 143 l 757 143 l 757 0 m 408 1011 l 304 1011 l 499 1211 l 638 1211 "},"ź":{"ha":661,"x_min":0,"x_max":0,"o":"m 65 0 l 65 111 l 396 544 l 65 544 l 65 671 l 592 671 l 592 565 l 256 128 l 597 128 l 597 0 m 331 772 l 226 772 l 421 972 l 560 972 "},"Ż":{"ha":818,"x_min":0,"x_max":0,"o":"m 63 0 l 63 132 l 535 783 l 63 783 l 63 926 l 747 926 l 747 796 l 272 143 l 757 143 l 757 0 m 404 1003 b 322 1085 360 1003 322 1039 b 404 1167 322 1129 360 1167 b 486 1085 449 1167 486 1129 b 404 1003 486 1039 449 1003 "},"ż":{"ha":661,"x_min":0,"x_max":0,"o":"m 65 0 l 65 111 l 396 544 l 65 544 l 65 671 l 592 671 l 592 565 l 256 128 l 597 128 l 597 0 m 329 779 b 247 861 285 779 247 815 b 329 943 247 906 285 943 b 411 861 374 943 411 906 b 329 779 411 815 374 779 "},"ſ":{"ha":429,"x_min":0,"x_max":0,"o":"m 131 0 l 131 544 l 19 544 l 19 671 l 131 671 l 131 708 b 342 940 131 854 215 940 b 503 882 403 940 463 925 l 446 792 b 369 821 426 810 401 821 b 276 708 311 821 276 783 l 276 0 "},"Ǽ":{"ha":1333,"x_min":0,"x_max":0,"o":"m 632 0 l 632 179 l 290 179 l 183 0 l -3 0 l 567 926 l 1267 926 l 1267 783 l 794 783 l 794 544 l 1257 544 l 1257 401 l 794 401 l 794 143 l 1267 143 l 1267 0 m 632 764 l 367 322 l 632 322 m 708 1011 l 604 1011 l 799 1211 l 938 1211 "},"ǽ":{"ha":1219,"x_min":0,"x_max":0,"o":"m 653 288 b 865 106 664 188 739 106 b 1057 181 932 106 1008 133 l 1124 82 b 851 -17 1056 18 957 -17 b 574 113 728 -17 632 38 b 299 -17 522 47 431 -17 b 56 204 179 -17 56 57 b 288 425 56 351 167 425 b 506 340 376 425 454 397 l 506 439 b 349 564 506 517 440 564 b 150 478 274 564 207 536 l 89 579 b 371 688 167 654 264 688 b 600 563 492 688 568 646 b 847 688 647 632 722 688 b 1169 324 1042 688 1169 535 l 1169 288 m 1029 392 b 839 568 1025 471 971 568 b 651 392 715 568 657 474 m 522 179 b 506 253 514 194 506 228 b 346 325 471 300 408 325 b 201 204 264 325 201 276 b 346 83 201 131 264 83 b 522 179 408 83 481 107 m 590 772 l 486 772 l 681 972 l 819 972 "},"Ǿ":{"ha":1063,"x_min":0,"x_max":0,"o":"m 533 1011 l 429 1011 l 624 1211 l 763 1211 m 532 -17 b 283 47 438 -17 354 6 l 249 0 l 128 0 l 204 106 b 58 463 113 192 58 317 b 532 942 58 739 254 942 b 768 883 619 942 700 921 l 799 926 l 919 926 l 849 828 b 1006 463 947 742 1006 613 b 532 -17 1006 186 808 -17 m 532 128 b 839 463 718 128 839 272 b 756 701 839 557 808 642 l 372 169 b 532 128 417 143 471 128 m 225 463 b 297 235 225 374 250 294 l 679 761 b 532 797 636 785 588 797 b 225 463 344 797 225 654 "},"ǿ":{"ha":797,"x_min":0,"x_max":0,"o":"m 399 772 l 294 772 l 489 972 l 628 972 m 71 0 l 144 89 b 54 336 86 153 54 240 b 399 688 54 529 185 688 b 592 633 474 688 539 667 l 624 671 l 719 671 l 649 586 b 743 336 710 522 743 433 b 399 -17 743 144 613 -17 b 200 42 319 -17 253 4 l 165 0 m 399 113 b 592 336 524 113 592 217 b 556 472 592 386 579 433 l 288 149 b 399 113 318 126 354 113 m 206 336 b 239 203 206 288 217 240 l 504 526 b 399 558 476 546 440 558 b 206 336 275 558 206 454 "},"Ș":{"ha":840,"x_min":0,"x_max":0,"o":"m 428 -17 b 50 131 257 -17 133 44 l 142 257 b 435 128 204 189 306 128 b 619 256 568 128 619 193 b 81 669 619 450 81 329 b 418 942 81 824 214 942 b 764 811 561 942 679 894 l 672 690 b 403 797 599 764 500 797 b 247 682 308 797 247 750 b 786 271 247 508 786 615 b 428 -17 786 117 676 -17 m 508 -192 b 400 -390 508 -272 463 -346 l 347 -347 b 431 -233 386 -324 425 -274 b 413 -236 429 -235 419 -236 b 344 -165 374 -236 344 -207 b 421 -87 344 -122 379 -87 b 508 -192 467 -87 508 -125 "},"ș":{"ha":663,"x_min":0,"x_max":0,"o":"m 325 -17 b 38 89 210 -17 107 21 l 104 193 b 331 100 151 144 244 100 b 464 189 418 100 464 136 b 58 485 464 321 58 226 b 322 688 58 594 153 688 b 582 594 436 688 522 647 l 521 492 b 322 572 481 536 407 572 b 199 489 246 572 199 536 b 604 193 199 371 604 460 b 325 -17 604 74 506 -17 m 422 -192 b 314 -390 422 -272 376 -346 l 261 -347 b 344 -233 300 -324 339 -274 b 326 -236 343 -235 333 -236 b 258 -165 288 -236 258 -207 b 335 -87 258 -122 293 -87 b 422 -192 381 -87 422 -125 "},"ʰ":{"ha":564,"x_min":0,"x_max":0,"o":"m 381 453 l 381 722 b 292 810 381 790 346 810 b 183 756 244 810 204 782 l 183 453 l 76 453 l 76 1056 l 183 1056 l 183 832 b 342 900 213 865 268 900 b 488 756 440 900 488 849 l 488 453 "},"⁰":{"ha":547,"x_min":0,"x_max":0,"o":"m 507 863 b 274 575 507 721 436 575 b 40 863 111 575 40 721 b 274 1149 40 1004 111 1149 b 507 863 436 1149 507 1004 m 393 863 b 274 1058 393 974 360 1058 b 154 863 186 1058 154 974 b 274 665 154 753 188 665 b 393 863 360 665 393 753 "},"⁴":{"ha":547,"x_min":0,"x_max":0,"o":"m 431 713 l 431 585 l 319 585 l 319 713 l 46 713 l 46 792 l 275 1140 l 431 1140 l 431 801 l 506 801 l 506 713 m 319 1044 l 157 801 l 319 801 "},"⁵":{"ha":547,"x_min":0,"x_max":0,"o":"m 493 765 b 269 575 493 651 403 575 b 54 664 171 575 99 610 l 115 738 b 269 665 154 690 208 665 b 383 761 340 665 383 708 b 272 858 383 819 340 858 b 149 806 224 858 185 842 l 71 832 l 71 1140 l 456 1140 l 456 1050 l 183 1050 l 183 893 b 311 942 210 919 257 942 b 493 765 407 942 493 882 "},"⁶":{"ha":547,"x_min":0,"x_max":0,"o":"m 503 764 b 288 575 503 658 417 575 b 46 863 117 575 46 706 b 306 1149 46 1028 138 1149 b 472 1090 375 1149 432 1126 l 422 1011 b 306 1058 390 1043 358 1058 b 157 889 208 1058 158 978 b 158 871 157 883 157 876 b 308 947 186 910 243 947 b 503 764 413 947 503 883 m 390 760 b 278 860 390 829 336 860 b 160 799 233 860 188 838 b 283 665 164 735 197 665 b 390 760 351 665 390 715 "},"⁷":{"ha":510,"x_min":0,"x_max":0,"o":"m 247 585 l 122 585 l 340 1050 l 40 1050 l 40 1140 l 463 1140 l 463 1064 "},"⁸":{"ha":547,"x_min":0,"x_max":0,"o":"m 499 729 b 274 575 499 621 390 575 b 47 729 157 575 47 621 b 183 871 47 797 108 853 b 57 1001 114 888 57 933 b 274 1149 57 1107 169 1149 b 490 1001 376 1149 490 1107 b 364 871 490 933 433 888 b 499 729 438 853 499 797 m 378 988 b 274 1063 378 1036 335 1063 b 168 988 213 1063 168 1036 b 274 907 168 931 249 913 b 378 988 300 913 378 931 m 388 739 b 274 831 388 804 300 828 b 158 739 247 828 158 804 b 274 661 158 689 210 661 b 388 739 336 661 388 689 "},"⁹":{"ha":547,"x_min":0,"x_max":0,"o":"m 46 960 b 261 1149 46 1067 131 1149 b 503 863 432 1149 503 1019 b 242 575 503 696 410 575 b 76 633 172 575 117 599 l 126 713 b 243 665 157 682 190 665 b 390 836 336 665 389 743 b 390 853 390 842 390 847 b 240 776 361 815 304 776 b 46 960 138 776 46 842 m 158 964 b 269 865 158 896 213 865 b 389 928 315 865 360 888 b 267 1058 383 990 350 1058 b 158 964 197 1058 158 1008 "},"⁽":{"ha":249,"x_min":0,"x_max":0,"o":"m 168 494 b 35 863 86 583 35 728 b 168 1231 35 996 86 1140 l 235 1203 b 149 863 178 1094 149 999 b 235 522 149 728 178 631 "},"⁾":{"ha":249,"x_min":0,"x_max":0,"o":"m 228 863 b 93 494 228 728 175 585 l 26 522 b 113 863 83 631 113 728 b 26 1203 113 999 83 1094 l 93 1231 b 228 863 175 1140 228 996 "},"ⁿ":{"ha":564,"x_min":0,"x_max":0,"o":"m 381 453 l 381 721 b 293 810 381 788 346 810 b 183 756 246 810 206 782 l 183 453 l 76 453 l 76 889 l 183 889 l 183 832 b 342 900 214 865 269 900 b 489 754 451 900 489 839 l 489 453 "},"₀":{"ha":547,"x_min":0,"x_max":0,"o":"m 507 75 b 274 -212 507 -67 436 -212 b 40 75 111 -212 40 -67 b 274 361 40 217 111 361 b 507 75 436 361 507 217 m 393 75 b 274 271 393 186 360 271 b 154 75 186 271 154 186 b 274 -122 154 -35 188 -122 b 393 75 360 -122 393 -35 "},"₁":{"ha":367,"x_min":0,"x_max":0,"o":"m 171 -203 l 171 210 l 79 114 l 14 182 l 186 353 l 283 353 l 283 -203 "},"₂":{"ha":547,"x_min":0,"x_max":0,"o":"m 67 -203 l 67 -119 b 374 185 294 42 374 111 b 269 271 374 244 326 271 b 117 201 204 271 144 238 l 57 272 b 272 361 110 333 196 361 b 486 193 389 361 486 306 b 229 -112 486 93 392 4 l 490 -112 l 490 -203 "},"₃":{"ha":547,"x_min":0,"x_max":0,"o":"m 493 -50 b 271 -212 493 -144 407 -212 b 51 -124 168 -212 90 -174 l 108 -51 b 268 -122 147 -97 211 -122 b 381 -43 340 -122 381 -90 b 249 38 381 18 324 38 b 190 36 225 38 199 38 l 190 125 b 249 124 200 124 225 124 b 372 199 324 124 372 144 b 261 271 372 247 322 271 b 111 208 203 271 153 251 l 58 274 b 272 361 103 324 174 361 b 483 211 403 361 483 303 b 360 85 483 138 419 94 b 493 -50 415 79 493 36 "},"₄":{"ha":547,"x_min":0,"x_max":0,"o":"m 431 -75 l 431 -203 l 319 -203 l 319 -75 l 46 -75 l 46 4 l 275 353 l 431 353 l 431 14 l 506 14 l 506 -75 m 319 257 l 157 14 l 319 14 "},"₅":{"ha":547,"x_min":0,"x_max":0,"o":"m 493 -22 b 269 -212 493 -136 403 -212 b 54 -124 171 -212 99 -178 l 115 -50 b 269 -122 154 -97 208 -122 b 383 -26 340 -122 383 -79 b 272 71 383 32 340 71 b 149 18 224 71 185 54 l 71 44 l 71 353 l 456 353 l 456 263 l 183 263 l 183 106 b 311 154 210 132 257 154 b 493 -22 407 154 493 94 "},"₆":{"ha":547,"x_min":0,"x_max":0,"o":"m 503 -24 b 288 -212 503 -129 417 -212 b 46 75 117 -212 46 -82 b 306 361 46 240 138 361 b 472 303 375 361 432 339 l 422 224 b 306 271 390 256 358 271 b 157 101 208 271 158 190 b 158 83 157 96 157 89 b 308 160 186 122 243 160 b 503 -24 413 160 503 96 m 390 -28 b 278 72 390 42 336 72 b 160 11 233 72 188 50 b 283 -122 164 -53 197 -122 b 390 -28 351 -122 390 -72 "},"₇":{"ha":510,"x_min":0,"x_max":0,"o":"m 247 -203 l 122 -203 l 340 263 l 40 263 l 40 353 l 463 353 l 463 276 "},"₈":{"ha":547,"x_min":0,"x_max":0,"o":"m 499 -58 b 274 -212 499 -167 390 -212 b 47 -58 157 -212 47 -167 b 183 83 47 10 108 65 b 57 214 114 100 57 146 b 274 361 57 319 169 361 b 490 214 376 361 490 319 b 364 83 490 146 433 100 b 499 -58 438 65 499 10 m 378 200 b 274 275 378 249 335 275 b 168 200 213 275 168 249 b 274 119 168 143 249 125 b 378 200 300 125 378 143 m 388 -49 b 274 43 388 17 300 40 b 158 -49 247 40 158 17 b 274 -126 158 -99 210 -126 b 388 -49 336 -126 388 -99 "},"₉":{"ha":547,"x_min":0,"x_max":0,"o":"m 46 172 b 261 361 46 279 131 361 b 503 75 432 361 503 232 b 242 -212 503 -92 410 -212 b 76 -154 172 -212 117 -189 l 126 -75 b 243 -122 157 -106 190 -122 b 390 49 336 -122 389 -44 b 390 65 390 54 390 60 b 240 -11 361 28 304 -11 b 46 172 138 -11 46 54 m 158 176 b 269 78 158 108 213 78 b 389 140 315 78 360 100 b 267 271 383 203 350 271 b 158 176 197 271 158 221 "},"₍":{"ha":249,"x_min":0,"x_max":0,"o":"m 168 -293 b 35 75 86 -204 35 -60 b 168 443 35 208 86 353 l 235 415 b 149 75 178 307 149 211 b 235 -265 149 -60 178 -157 "},"₎":{"ha":249,"x_min":0,"x_max":0,"o":"m 228 75 b 93 -293 228 -60 175 -203 l 26 -265 b 113 75 83 -157 113 -60 b 26 415 113 211 83 307 l 93 443 b 228 75 175 353 228 208 "},"₡":{"ha":958,"x_min":0,"x_max":0,"o":"m 553 -17 b 532 -15 546 -17 539 -15 l 492 -139 l 404 -139 l 447 -7 b 351 21 414 0 382 8 l 299 -139 l 211 -139 l 276 60 b 67 463 149 142 67 285 b 553 942 67 749 279 942 l 569 942 l 611 1067 l 699 1067 l 653 931 b 749 899 688 924 719 913 l 804 1067 l 892 1067 l 821 853 b 924 735 863 818 897 778 l 786 663 b 767 690 781 672 774 682 l 581 129 b 786 263 668 139 746 193 l 925 193 b 553 -17 854 82 739 -17 m 233 463 b 329 218 233 363 269 278 l 521 796 b 233 463 354 781 233 647 m 400 165 b 494 132 429 150 460 138 l 700 753 b 607 792 672 771 640 785 l 400 165 "},"₣":{"ha":794,"x_min":0,"x_max":0,"o":"m 113 0 l 113 168 l 14 168 l 14 254 l 113 254 l 113 926 l 747 926 l 747 783 l 275 783 l 275 544 l 738 544 l 738 401 l 275 401 l 275 254 l 518 254 l 518 168 l 275 168 l 275 0 "},"₤":{"ha":744,"x_min":0,"x_max":0,"o":"m 31 539 l 99 539 b 65 660 79 574 65 613 b 390 940 65 826 225 940 b 694 778 533 940 640 885 l 565 701 b 408 807 543 761 482 807 b 242 657 317 807 242 749 b 279 539 242 608 257 572 l 532 539 l 532 460 l 335 460 b 371 376 350 435 364 408 l 532 376 l 532 297 l 371 297 b 278 165 360 240 322 196 b 347 178 299 174 325 178 b 539 126 432 178 467 126 b 664 179 599 126 646 154 l 731 50 b 533 -18 692 11 628 -18 b 282 44 410 -18 375 44 b 121 -10 235 44 176 21 l 65 106 b 229 294 165 151 229 218 l 229 297 l 31 297 l 31 376 l 210 376 b 154 460 194 406 175 432 l 31 460 "},"₦":{"ha":1026,"x_min":0,"x_max":0,"o":"m 758 0 l 519 326 l 275 326 l 275 0 l 113 0 l 113 326 l 14 326 l 14 413 l 113 413 l 113 521 l 14 521 l 14 607 l 113 607 l 113 926 l 279 926 l 514 607 l 753 607 l 753 926 l 915 926 l 915 607 l 1014 607 l 1014 521 l 915 521 l 915 413 l 1014 413 l 1014 326 l 915 326 l 915 0 m 275 413 l 457 413 l 275 663 m 753 285 l 753 521 l 578 521 "},"₧":{"ha":919,"x_min":0,"x_max":0,"o":"m 818 592 b 521 347 800 454 694 347 l 275 347 l 275 0 l 113 0 l 113 592 l 14 592 l 14 682 l 113 682 l 113 926 l 521 926 b 818 682 696 926 800 818 l 914 682 l 914 592 m 499 490 b 649 592 574 490 631 529 l 275 592 l 275 490 l 499 490 m 275 682 l 649 682 b 499 783 631 744 574 783 l 275 783 "},"₨":{"ha":1457,"x_min":0,"x_max":0,"o":"m 628 0 l 424 346 l 261 346 l 261 0 l 99 0 l 99 926 l 506 926 b 810 636 689 926 810 808 b 589 364 810 472 701 382 l 817 0 m 485 489 b 643 638 576 489 643 547 b 485 783 643 726 576 783 l 261 783 l 261 489 l 485 489 m 1126 -17 b 839 89 1011 -17 908 21 l 906 193 b 1132 100 953 144 1046 100 b 1265 189 1219 100 1265 136 b 860 485 1265 321 860 226 b 1124 688 860 594 954 688 b 1383 594 1238 688 1324 647 l 1322 492 b 1124 572 1282 536 1208 572 b 1000 489 1047 572 1000 536 b 1406 193 1000 371 1406 460 b 1126 -17 1406 74 1307 -17 "},"₩":{"ha":1254,"x_min":0,"x_max":0,"o":"m 807 0 l 721 326 l 533 326 l 447 0 l 274 0 l 181 326 l 22 326 l 22 413 l 156 413 l 125 521 l 22 521 l 22 607 l 101 607 l 10 926 l 190 926 l 271 607 l 476 607 l 563 926 l 692 926 l 778 607 l 982 607 l 1064 926 l 1246 926 l 1154 607 l 1232 607 l 1232 521 l 1129 521 l 1099 413 l 1232 413 l 1232 326 l 1074 326 l 981 0 m 883 214 l 961 521 l 800 521 m 371 214 l 453 521 l 293 521 m 556 413 l 699 413 l 628 685 "},"₪":{"ha":1160,"x_min":0,"x_max":0,"o":"m 469 764 b 789 464 703 764 789 654 l 789 236 l 650 236 l 650 453 b 469 638 650 575 599 638 l 233 638 l 233 0 l 94 0 l 94 764 l 469 764 m 371 0 l 371 526 l 510 526 l 510 126 l 746 126 b 926 313 875 126 926 189 l 926 764 l 1065 764 l 1065 300 b 746 0 1065 111 978 0 "},"ℓ":{"ha":700,"x_min":0,"x_max":0,"o":"m 96 688 b 390 940 96 831 217 940 b 661 751 538 940 661 863 b 468 513 661 653 568 579 l 242 363 l 242 181 b 306 100 242 135 263 100 b 369 125 331 100 353 108 l 404 26 b 268 -17 372 -4 322 -17 b 96 157 167 -17 96 33 m 418 617 b 522 744 486 663 522 694 b 388 838 522 801 456 838 b 242 686 304 838 242 781 l 242 500 "},"№":{"ha":1563,"x_min":0,"x_max":0,"o":"m 744 0 l 261 663 l 261 0 l 99 0 l 99 926 l 265 926 l 739 285 l 739 926 l 901 926 l 901 0 m 1281 486 b 1047 715 1138 486 1047 592 b 1281 944 1047 840 1138 944 b 1515 715 1426 944 1515 840 b 1281 486 1515 592 1426 486 m 1281 574 b 1406 715 1360 574 1406 633 b 1281 856 1406 799 1360 856 b 1160 715 1204 856 1160 799 b 1281 574 1160 633 1204 574 "},"℗":{"ha":1081,"x_min":0,"x_max":0,"o":"m 1019 464 b 540 -15 1019 200 804 -15 b 61 464 276 -15 61 200 b 540 943 61 728 276 943 b 1019 464 804 943 1019 728 m 972 464 b 540 896 972 701 778 896 b 108 464 304 896 108 701 b 540 32 108 228 304 32 b 972 464 778 32 972 228 m 768 581 b 592 418 768 482 686 418 l 436 418 l 436 182 l 379 182 l 379 744 l 592 744 b 768 581 685 744 768 683 m 708 581 b 592 692 708 649 657 692 l 436 692 l 436 472 l 592 472 b 708 581 657 472 708 515 "},"℠":{"ha":661,"x_min":0,"x_max":0,"o":"m 571 621 l 571 874 l 467 621 l 456 621 l 351 874 l 351 621 l 313 621 l 313 926 l 372 926 l 461 704 l 550 926 l 610 926 l 610 621 m 261 703 b 140 610 261 647 219 610 b 21 660 86 610 46 631 l 46 689 b 140 646 67 665 100 646 b 215 699 192 646 215 668 b 26 847 215 781 26 735 b 138 935 26 899 74 935 b 251 890 192 935 228 918 l 226 864 b 139 901 206 889 174 901 b 72 851 100 901 72 881 b 261 703 72 778 261 821 "},"℮":{"ha":1169,"x_min":0,"x_max":0,"o":"m 249 450 b 242 443 244 450 242 447 l 242 179 b 254 147 242 167 246 156 b 588 4 338 60 457 4 b 935 164 728 4 850 65 l 1014 164 b 585 -25 915 49 760 -25 b 43 463 286 -25 43 193 b 585 950 43 732 286 950 b 1126 463 883 950 1126 732 l 1126 450 m 928 750 b 914 783 928 763 922 775 b 588 921 831 868 715 921 b 256 779 457 921 339 865 b 242 746 247 771 242 758 l 242 485 b 249 476 242 481 244 476 l 922 476 b 928 485 926 476 928 481 "},"⅓":{"ha":1168,"x_min":0,"x_max":0,"o":"m 267 0 l 174 0 l 767 926 l 860 926 m 1115 153 b 893 -10 1115 58 1029 -10 b 674 79 790 -10 713 29 l 731 151 b 890 81 769 106 833 81 b 1003 160 963 81 1003 113 b 871 240 1003 221 946 240 b 813 239 847 240 821 240 l 813 328 b 871 326 822 326 847 326 b 994 401 946 326 994 347 b 883 474 994 450 944 474 b 733 411 825 474 775 454 l 681 476 b 894 564 725 526 796 564 b 1106 414 1025 564 1106 506 b 982 288 1106 340 1042 297 b 1115 153 1038 282 1115 239 m 171 371 l 171 783 l 79 688 l 14 756 l 186 926 l 283 926 l 283 371 "},"⅔":{"ha":1303,"x_min":0,"x_max":0,"o":"m 401 0 l 308 0 l 901 926 l 994 926 m 1249 153 b 1026 -10 1249 58 1163 -10 b 807 79 924 -10 846 29 l 864 151 b 1024 81 903 106 967 81 b 1136 160 1096 81 1136 113 b 1004 240 1136 221 1079 240 b 946 239 981 240 954 240 l 946 328 b 1004 326 956 326 981 326 b 1128 401 1079 326 1128 347 b 1017 474 1128 450 1078 474 b 867 411 958 474 908 454 l 814 476 b 1028 564 858 526 929 564 b 1239 414 1158 564 1239 506 b 1115 288 1239 340 1175 297 b 1249 153 1171 282 1249 239 m 67 371 l 67 454 b 374 758 294 615 374 685 b 269 844 374 818 326 844 b 117 775 204 844 144 811 l 57 846 b 272 935 110 907 196 935 b 486 767 389 935 486 879 b 229 461 486 667 392 578 l 490 461 l 490 371 "},"⅛":{"ha":1168,"x_min":0,"x_max":0,"o":"m 267 0 l 174 0 l 767 926 l 860 926 m 1121 144 b 896 -10 1121 36 1013 -10 b 669 144 779 -10 669 36 b 806 286 669 213 731 268 b 679 417 736 303 679 349 b 896 564 679 522 792 564 b 1113 417 999 564 1113 522 b 986 286 1113 349 1056 303 b 1121 144 1060 268 1121 213 m 1000 403 b 896 478 1000 451 957 478 b 790 403 835 478 790 451 b 896 322 790 346 871 328 b 1000 403 922 328 1000 346 m 1010 154 b 896 246 1010 219 922 243 b 781 154 869 243 781 219 b 896 76 781 104 832 76 b 1010 154 958 76 1010 104 m 171 371 l 171 783 l 79 688 l 14 756 l 186 926 l 283 926 l 283 371 "},"⅜":{"ha":1303,"x_min":0,"x_max":0,"o":"m 401 0 l 308 0 l 901 926 l 994 926 m 1254 144 b 1029 -10 1254 36 1146 -10 b 803 144 913 -10 803 36 b 939 286 803 213 864 268 b 813 417 869 303 813 349 b 1029 564 813 522 925 564 b 1246 417 1132 564 1246 522 b 1119 286 1246 349 1189 303 b 1254 144 1193 268 1254 213 m 1133 403 b 1029 478 1133 451 1090 478 b 924 403 968 478 924 451 b 1029 322 924 346 1004 328 b 1133 403 1056 328 1133 346 m 1143 154 b 1029 246 1143 219 1056 243 b 914 154 1003 243 914 219 b 1029 76 914 104 965 76 b 1143 154 1092 76 1143 104 m 493 524 b 271 361 493 429 407 361 b 51 450 168 361 90 400 l 108 522 b 268 451 147 476 211 451 b 381 531 340 451 381 483 b 249 611 381 592 324 611 b 190 610 225 611 199 611 l 190 699 b 249 697 200 697 225 697 b 372 772 324 697 372 718 b 261 844 372 821 322 844 b 111 782 203 844 153 825 l 58 847 b 272 935 103 897 174 935 b 483 785 403 935 483 876 b 360 658 483 711 419 668 b 493 524 415 653 493 610 "},"⅝":{"ha":1296,"x_min":0,"x_max":0,"o":"m 394 0 l 301 0 l 894 926 l 988 926 m 1247 144 b 1022 -10 1247 36 1139 -10 b 796 144 906 -10 796 36 b 932 286 796 213 857 268 b 806 417 863 303 806 349 b 1022 564 806 522 918 564 b 1239 417 1125 564 1239 522 b 1113 286 1239 349 1182 303 b 1247 144 1186 268 1247 213 m 1126 403 b 1022 478 1126 451 1083 478 b 917 403 961 478 917 451 b 1022 322 917 346 997 328 b 1126 403 1049 328 1126 346 m 1136 154 b 1022 246 1136 219 1049 243 b 907 154 996 243 907 219 b 1022 76 907 104 958 76 b 1136 154 1085 76 1136 104 m 493 551 b 269 361 493 438 403 361 b 54 450 171 361 99 396 l 115 524 b 269 451 154 476 208 451 b 383 547 340 451 383 494 b 272 644 383 606 340 644 b 149 592 224 644 185 628 l 71 618 l 71 926 l 456 926 l 456 836 l 183 836 l 183 679 b 311 728 210 706 257 728 b 493 551 407 728 493 668 "},"⅞":{"ha":1188,"x_min":0,"x_max":0,"o":"m 286 0 l 193 0 l 786 926 l 879 926 m 1139 144 b 914 -10 1139 36 1031 -10 b 688 144 797 -10 688 36 b 824 286 688 213 749 268 b 697 417 754 303 697 349 b 914 564 697 522 810 564 b 1131 417 1017 564 1131 522 b 1004 286 1131 349 1074 303 b 1139 144 1078 268 1139 213 m 1018 403 b 914 478 1018 451 975 478 b 808 403 853 478 808 451 b 914 322 808 346 889 328 b 1018 403 940 328 1018 346 m 1028 154 b 914 246 1028 219 940 243 b 799 154 888 243 799 219 b 914 76 799 104 850 76 b 1028 154 976 76 1028 104 m 247 371 l 122 371 l 340 836 l 40 836 l 40 926 l 463 926 l 463 850 "},"←":{"ha":808,"x_min":0,"x_max":0,"o":"m 374 293 l 390 113 l 0 397 l 390 681 l 374 501 l 747 501 l 747 293 "},"↑":{"ha":808,"x_min":0,"x_max":0,"o":"m 300 397 l 119 381 l 404 771 l 688 381 l 508 397 l 508 24 l 300 24 "},"→":{"ha":808,"x_min":0,"x_max":0,"o":"m 421 113 l 438 293 l 65 293 l 65 501 l 438 501 l 421 681 l 811 397 "},"↓":{"ha":808,"x_min":0,"x_max":0,"o":"m 508 397 l 689 414 l 404 24 l 121 414 l 300 397 l 300 771 l 508 771 "},"⊲":{"ha":815,"x_min":0,"x_max":0,"o":"m 75 -32 l 75 826 l 818 397 "},"⊳":{"ha":815,"x_min":0,"x_max":0,"o":"m 743 -32 l 0 397 l 743 826 "},"■":{"ha":918,"x_min":0,"x_max":0,"o":"m 65 0 l 65 794 l 858 794 l 858 0 "},"▲":{"ha":856,"x_min":0,"x_max":0,"o":"m -3 42 l 426 785 l 857 40 "},"▼":{"ha":856,"x_min":0,"x_max":0,"o":"m 426 -35 l -3 708 l 857 708 "},"●":{"ha":965,"x_min":0,"x_max":0,"o":"m 894 396 b 482 -17 894 168 710 -17 b 69 396 254 -17 69 168 b 482 808 69 624 254 808 b 894 396 710 808 894 624 "},"★":{"ha":1054,"x_min":0,"x_max":0,"o":"m 728 347 l 853 -35 l 526 201 l 201 -35 l 325 347 l 0 585 l 403 585 l 526 968 l 651 585 l 1054 585 "},"☐":{"ha":918,"x_min":0,"x_max":0,"o":"m 63 0 l 63 794 l 856 794 l 856 0 m 754 701 l 165 701 l 165 94 l 754 94 "},"☑":{"ha":918,"x_min":0,"x_max":0,"o":"m 63 0 l 63 794 l 747 794 l 871 1021 l 951 969 l 856 792 l 856 0 m 754 606 l 494 126 l 214 468 l 288 538 l 481 301 l 697 701 l 165 701 l 165 94 l 754 94 "},"♦":{"ha":696,"x_min":0,"x_max":0,"o":"m 347 49 l 0 396 l 347 744 l 696 396 "},"✓":{"ha":738,"x_min":0,"x_max":0,"o":"m 281 126 l 0 468 l 74 538 l 267 301 l 657 1021 l 738 969 "},"":{"ha":1192,"x_min":0,"x_max":0,"o":"m 131 0 l 131 544 l 19 544 l 19 671 l 131 671 l 131 708 b 342 940 131 854 215 940 b 503 882 403 940 463 925 l 446 792 b 369 821 426 810 401 821 b 276 708 311 821 276 783 l 276 671 l 413 671 l 413 544 l 276 544 l 276 0 m 560 0 l 560 544 l 449 544 l 449 671 l 560 671 l 560 708 b 771 940 560 858 649 940 b 889 915 818 940 858 932 l 857 806 b 799 821 842 815 822 821 b 706 708 740 821 706 783 l 706 671 l 842 671 l 842 544 l 706 544 l 706 0 m 1025 753 b 935 843 975 753 935 793 b 1025 933 935 893 975 933 b 1115 843 1075 933 1115 893 b 1025 753 1115 793 1075 753 m 875 -272 b 717 -224 797 -272 763 -257 l 760 -115 b 853 -153 785 -137 811 -153 b 951 -39 911 -153 951 -118 l 951 671 l 1097 671 l 1097 -39 b 875 -272 1097 -182 1024 -272 "},"":{"ha":764,"x_min":0,"x_max":0,"o":"m 131 0 l 131 544 l 19 544 l 19 671 l 131 671 l 131 708 b 342 940 131 858 219 940 b 460 915 389 940 429 932 l 428 806 b 369 821 413 815 393 821 b 276 708 311 821 276 783 l 276 671 l 413 671 l 413 544 l 276 544 l 276 0 m 597 753 b 507 843 547 753 507 793 b 597 933 507 893 547 933 b 688 843 647 933 688 893 b 597 753 688 793 647 753 m 447 -272 b 289 -224 369 -272 335 -257 l 332 -115 b 425 -153 357 -137 383 -153 b 524 -39 483 -153 524 -118 l 524 671 l 669 671 l 669 -39 b 447 -272 669 -182 596 -272 "},"":{"ha":1242,"x_min":0,"x_max":0,"o":"m 407 589 b 219 399 407 482 332 399 b 35 589 110 399 35 482 b 219 781 35 696 110 781 b 407 589 332 781 407 696 m 804 176 b 619 -15 804 69 729 -15 b 435 176 508 -15 435 69 b 619 368 435 283 508 368 b 804 176 729 368 804 283 m 197 0 l 110 0 l 640 764 l 731 764 m 315 589 b 219 703 315 654 276 703 b 126 589 165 703 126 654 b 219 478 126 524 165 478 b 315 589 276 478 315 524 m 714 176 b 619 289 714 242 675 289 b 525 176 563 289 525 242 b 619 65 525 111 563 65 b 714 176 675 65 714 111 m 1207 176 b 1021 -15 1207 69 1132 -15 b 836 176 911 -15 836 72 b 1021 368 836 283 911 368 b 1207 176 1132 368 1207 283 m 1115 176 b 1021 289 1115 242 1078 289 b 926 176 965 289 926 242 b 1021 65 926 111 965 65 b 1115 176 1078 65 1115 111 "},"":{"ha":867,"x_min":0,"x_max":0,"o":"m 435 -17 b 228 51 350 -17 282 10 l 194 0 l 78 0 l 158 125 b 64 463 93 217 64 342 b 435 940 64 696 174 940 b 638 874 517 940 585 915 l 672 926 l 789 926 l 708 800 b 804 463 774 708 804 585 b 435 -17 804 231 694 -17 m 435 128 b 639 463 585 128 639 286 b 613 651 639 531 631 597 l 310 179 b 435 128 340 147 382 128 m 229 463 b 254 276 229 394 236 331 l 557 747 b 435 796 526 778 486 796 b 229 463 283 796 229 640 "},"":{"ha":851,"x_min":0,"x_max":0,"o":"m 426 -17 b 56 463 165 -17 56 231 b 426 940 56 696 165 940 b 796 463 686 940 796 696 b 426 -17 796 231 686 -17 m 426 128 b 631 463 576 128 631 286 b 426 796 631 640 578 796 b 221 463 275 796 221 640 b 426 128 221 286 275 128 "},"":{"ha":851,"x_min":0,"x_max":0,"o":"m 94 0 l 94 129 b 596 656 454 401 596 521 b 426 796 596 753 511 796 b 176 686 318 796 236 753 l 82 792 b 425 940 164 892 294 940 b 760 656 604 940 760 840 b 356 143 760 483 603 331 l 765 143 l 765 0 "},"":{"ha":851,"x_min":0,"x_max":0,"o":"m 424 -17 b 74 133 260 -17 138 50 l 163 240 b 418 128 222 171 319 128 b 611 269 540 128 611 185 b 406 401 611 361 539 401 b 300 399 367 401 314 400 l 300 546 b 406 544 315 544 369 544 b 597 667 515 544 597 582 b 410 796 597 751 513 796 b 169 693 314 796 236 761 l 86 794 b 425 940 158 879 271 940 b 758 692 625 940 758 846 b 558 479 758 567 653 494 b 774 254 647 469 774 397 b 424 -17 774 96 639 -17 "},"":{"ha":851,"x_min":0,"x_max":0,"o":"m 500 0 l 500 210 l 58 210 l 58 340 l 439 926 l 663 926 l 663 353 l 786 353 l 786 210 l 663 210 l 663 0 m 500 781 l 218 353 l 500 353 "},"":{"ha":851,"x_min":0,"x_max":0,"o":"m 429 -17 b 86 126 271 -17 161 39 l 179 239 b 428 128 240 167 325 128 b 618 292 546 128 618 200 b 432 456 618 390 546 456 b 229 376 354 456 289 432 l 114 410 l 114 926 l 721 926 l 721 783 l 276 783 l 276 517 b 486 596 322 560 397 596 b 783 297 643 596 783 488 b 429 -17 783 106 636 -17 "},"":{"ha":851,"x_min":0,"x_max":0,"o":"m 453 -17 b 71 463 181 -17 71 204 b 479 940 71 729 211 940 b 744 838 593 940 682 900 l 669 715 b 479 796 621 765 567 796 b 235 490 324 796 235 653 b 235 464 235 482 235 474 b 483 594 278 526 375 594 b 794 294 650 594 794 492 b 453 -17 794 124 660 -17 m 443 128 b 629 289 565 128 629 215 b 440 454 629 403 540 454 b 238 346 361 454 283 413 b 443 128 246 246 301 128 "},"":{"ha":851,"x_min":0,"x_max":0,"o":"m 224 0 l 574 783 l 93 783 l 93 926 l 761 926 l 761 814 l 403 0 "},"":{"ha":851,"x_min":0,"x_max":0,"o":"m 426 -17 b 71 239 236 -17 71 72 b 279 478 71 356 167 440 b 86 697 175 511 86 581 b 426 940 86 869 263 940 b 767 697 590 940 767 869 b 574 478 767 581 678 511 b 782 239 686 440 782 356 b 426 -17 782 72 615 -17 m 426 543 b 601 672 483 553 601 586 b 426 796 601 751 526 796 b 251 672 326 796 251 751 b 426 543 251 586 371 553 m 426 128 b 617 260 529 128 617 178 b 426 406 617 356 483 397 b 236 260 368 397 236 356 b 426 128 236 178 321 128 "},"":{"ha":851,"x_min":0,"x_max":0,"o":"m 376 -15 b 110 88 261 -15 172 26 l 186 211 b 376 129 235 160 288 129 b 621 435 544 129 621 283 b 619 461 621 443 621 453 b 371 332 578 399 481 332 b 61 631 204 332 61 433 b 403 942 61 803 196 942 b 785 464 675 942 785 721 b 376 -15 785 196 644 -15 m 415 471 b 618 581 494 471 571 514 b 411 797 608 681 554 797 b 225 636 289 797 225 711 b 415 471 225 522 314 471 "},"":{"ha":839,"x_min":0,"x_max":0,"o":"m 407 589 b 219 399 407 482 332 399 b 35 589 110 399 35 482 b 219 781 35 696 110 781 b 407 589 332 781 407 696 m 804 176 b 619 -15 804 69 729 -15 b 435 176 508 -15 435 69 b 619 368 435 283 508 368 b 804 176 729 368 804 283 m 197 0 l 110 0 l 640 764 l 731 764 m 315 589 b 219 703 315 654 276 703 b 126 589 165 703 126 654 b 219 478 126 525 165 478 b 315 589 276 478 315 525 m 714 176 b 619 289 714 242 675 289 b 525 176 563 289 525 242 b 619 65 525 111 563 65 b 714 176 675 65 714 111 "},"":{"ha":851,"x_min":0,"x_max":0,"o":"m 796 382 b 426 -17 796 178 681 -17 b 56 382 171 -17 56 178 b 426 781 56 588 171 781 b 796 382 681 781 796 588 m 631 382 b 426 636 631 517 568 636 b 221 382 285 636 221 517 b 426 128 221 249 285 128 b 631 382 567 128 631 249 "},"":{"ha":851,"x_min":0,"x_max":0,"o":"m 432 0 l 432 554 l 281 396 l 186 494 l 453 764 l 594 764 l 594 0 "},"":{"ha":851,"x_min":0,"x_max":0,"o":"m 106 0 l 106 129 b 585 503 454 257 585 393 b 425 636 585 583 514 636 b 174 526 324 636 235 597 l 79 632 b 428 781 161 732 297 781 b 750 529 619 781 750 683 b 400 143 750 374 589 224 l 735 143 l 735 0 "},"":{"ha":851,"x_min":0,"x_max":0,"o":"m 424 -183 b 74 -33 260 -183 138 -117 l 163 74 b 418 -39 222 4 319 -39 b 611 103 540 -39 611 18 b 406 235 611 194 539 235 b 300 232 367 235 314 233 l 300 379 b 406 378 315 378 369 378 b 597 500 515 378 597 415 b 410 629 597 585 513 629 b 169 526 314 629 236 594 l 86 628 b 425 774 158 713 271 774 b 758 525 625 774 758 679 b 558 313 758 400 653 328 b 774 88 647 303 774 231 b 424 -183 774 -71 639 -183 "},"":{"ha":851,"x_min":0,"x_max":0,"o":"m 663 54 l 663 -162 l 500 -162 l 500 54 l 58 54 l 58 185 l 439 764 l 663 764 l 663 197 l 786 197 l 786 54 m 500 618 l 218 197 l 500 197 "},"":{"ha":851,"x_min":0,"x_max":0,"o":"m 429 -179 b 86 -36 271 -179 161 -124 l 179 76 b 428 -35 240 4 325 -35 b 618 129 546 -35 618 38 b 432 293 618 228 546 293 b 229 214 354 293 289 269 l 114 247 l 114 764 l 721 764 l 721 621 l 276 621 l 276 354 b 486 433 322 397 397 433 b 783 135 643 433 783 325 b 429 -179 783 -57 636 -179 "},"":{"ha":851,"x_min":0,"x_max":0,"o":"m 453 -17 b 71 463 181 -17 71 204 b 479 940 71 729 211 940 b 744 838 593 940 682 900 l 669 715 b 479 796 621 765 567 796 b 235 490 324 796 235 653 b 235 464 235 482 235 474 b 483 594 278 526 375 594 b 794 294 650 594 794 492 b 453 -17 794 124 660 -17 m 443 128 b 629 289 565 128 629 215 b 440 454 629 403 540 454 b 238 346 361 454 283 413 b 443 128 246 246 301 128 "},"":{"ha":851,"x_min":0,"x_max":0,"o":"m 224 -162 l 574 621 l 93 621 l 93 764 l 761 764 l 761 651 l 403 -162 "},"":{"ha":851,"x_min":0,"x_max":0,"o":"m 426 -17 b 71 239 236 -17 71 72 b 279 478 71 356 167 440 b 86 697 175 511 86 581 b 426 940 86 869 263 940 b 767 697 590 940 767 869 b 574 478 767 581 678 511 b 782 239 686 440 782 356 b 426 -17 782 72 615 -17 m 426 543 b 601 672 483 553 601 586 b 426 796 601 751 526 796 b 251 672 326 796 251 751 b 426 543 251 586 371 553 m 426 128 b 617 260 529 128 617 178 b 426 406 617 356 483 397 b 236 260 368 397 236 356 b 426 128 236 178 321 128 "},"":{"ha":851,"x_min":0,"x_max":0,"o":"m 376 -176 b 110 -74 261 -176 172 -135 l 186 50 b 376 -32 235 -1 288 -32 b 621 274 544 -32 621 122 b 619 300 621 282 621 292 b 371 171 578 238 481 171 b 61 469 204 171 61 272 b 403 781 61 642 196 781 b 785 303 675 781 785 560 b 376 -176 785 35 644 -176 m 415 310 b 618 419 494 310 571 353 b 411 636 608 519 554 636 b 225 475 289 636 225 550 b 415 310 225 361 314 310 "},"":{"ha":811,"x_min":0,"x_max":0,"o":"m 357 -4 b 285 19 332 1 308 10 l 254 -74 l 182 -74 l 225 53 b 54 383 119 122 54 239 b 467 781 54 618 231 781 l 471 781 l 489 832 l 560 832 l 540 774 b 613 753 565 769 590 761 l 639 832 l 711 832 l 674 721 b 785 603 719 689 757 649 l 660 539 b 626 582 650 554 639 568 l 468 117 b 660 225 550 117 624 161 l 786 163 b 467 -17 724 63 618 -17 b 424 -14 451 -17 438 -15 l 404 -74 l 333 -74 m 208 383 b 275 200 208 310 233 247 l 425 643 b 208 383 297 625 208 521 m 331 153 b 400 124 351 140 375 131 l 568 624 b 496 644 546 635 522 642 l 331 153 "},"":{"ha":849,"x_min":0,"x_max":0,"o":"m 247 418 b 246 383 246 407 246 394 b 249 346 246 371 247 357 l 561 346 l 561 271 l 268 271 b 504 117 307 178 394 117 b 697 225 586 117 661 161 l 824 163 b 504 -17 761 63 656 -17 b 106 271 307 -17 153 96 l 36 271 l 36 346 l 93 346 b 92 383 92 358 92 371 b 93 418 92 394 92 407 l 36 418 l 36 492 l 106 492 b 504 781 150 667 306 781 b 822 603 657 781 761 703 l 697 539 b 504 647 660 604 586 647 b 267 492 393 647 304 586 l 561 492 l 561 418 "},"":{"ha":535,"x_min":0,"x_max":0,"o":"m 25 -165 l 125 289 l 63 289 l 63 394 l 149 394 l 185 556 b 414 779 217 700 293 779 b 549 729 463 779 511 767 l 493 614 b 439 636 481 629 463 636 b 346 532 386 636 358 590 l 314 394 l 444 394 l 444 289 l 292 289 l 189 -165 "},"":{"ha":706,"x_min":0,"x_max":0,"o":"m 656 472 l 540 472 l 481 297 l 599 297 l 572 214 l 453 214 l 382 0 l 281 0 l 351 214 l 238 214 l 167 0 l 65 0 l 138 214 l 26 214 l 53 297 l 167 297 l 225 472 l 110 472 l 135 554 l 251 554 l 324 764 l 425 764 l 353 554 l 465 554 l 538 764 l 639 764 l 567 554 l 679 554 m 325 472 l 267 297 l 379 297 l 438 472 "},"":{"ha":610,"x_min":0,"x_max":0,"o":"m 21 394 l 99 394 b 49 543 72 438 49 486 b 315 779 49 682 175 779 b 568 650 431 779 522 735 l 456 589 b 331 671 432 643 383 671 b 199 542 258 671 199 621 b 254 394 199 485 226 439 l 436 394 l 436 311 l 299 311 b 308 258 304 294 308 276 b 244 136 308 206 278 158 b 272 140 253 139 261 140 b 435 106 343 140 378 106 b 538 147 478 106 519 124 l 597 42 b 429 -15 564 8 503 -15 b 225 32 329 -15 308 32 b 97 -11 189 32 140 13 l 47 86 b 181 225 133 124 181 174 b 153 311 181 254 168 282 l 21 311 "},"":{"ha":774,"x_min":0,"x_max":0,"o":"m 314 0 l 314 153 l 35 153 l 35 235 l 314 235 l 314 317 l 35 317 l 35 399 l 257 399 l 0 764 l 174 764 l 390 447 l 603 764 l 774 764 l 519 399 l 738 399 l 738 317 l 464 317 l 464 235 l 738 235 l 738 153 l 464 153 l 464 0 "},"":{"ha":811,"x_min":0,"x_max":0,"o":"m 407 -12 b 54 383 201 11 54 167 b 407 776 54 597 201 751 l 407 864 l 517 864 l 517 778 b 785 603 642 763 731 692 l 660 539 b 517 642 629 590 578 628 l 517 122 b 660 225 578 136 631 174 l 786 163 b 517 -14 731 74 642 1 l 517 -121 l 407 -121 m 208 383 b 407 122 208 251 289 149 l 407 640 b 208 383 289 615 208 514 "},"":{"ha":547,"x_min":0,"x_max":0,"o":"m 507 278 b 274 -10 507 136 436 -10 b 40 278 111 -10 40 136 b 274 564 40 419 111 564 b 507 278 436 564 507 419 m 393 278 b 274 474 393 389 360 474 b 154 278 186 474 154 389 b 274 81 154 168 188 81 b 393 278 360 81 393 168 "},"":{"ha":367,"x_min":0,"x_max":0,"o":"m 171 0 l 171 413 l 79 317 l 14 385 l 186 556 l 283 556 l 283 0 "},"":{"ha":547,"x_min":0,"x_max":0,"o":"m 67 0 l 67 83 b 374 388 294 244 374 314 b 269 474 374 447 326 474 b 117 404 204 474 144 440 l 57 475 b 272 564 110 536 196 564 b 486 396 389 564 486 508 b 229 90 486 296 392 207 l 490 90 l 490 0 "},"":{"ha":547,"x_min":0,"x_max":0,"o":"m 493 153 b 271 -10 493 58 407 -10 b 51 79 168 -10 90 29 l 108 151 b 268 81 147 106 211 81 b 381 160 340 81 381 113 b 249 240 381 221 324 240 b 190 239 225 240 199 240 l 190 328 b 249 326 200 326 225 326 b 372 401 324 326 372 347 b 261 474 372 450 322 474 b 111 411 203 474 153 454 l 58 476 b 272 564 103 526 174 564 b 483 414 403 564 483 506 b 360 288 483 340 419 297 b 493 153 415 282 493 239 "},"":{"ha":547,"x_min":0,"x_max":0,"o":"m 431 128 l 431 0 l 319 0 l 319 128 l 46 128 l 46 207 l 275 556 l 431 556 l 431 217 l 506 217 l 506 128 m 319 460 l 157 217 l 319 217 "},"":{"ha":547,"x_min":0,"x_max":0,"o":"m 493 181 b 269 -10 493 67 403 -10 b 54 79 171 -10 99 25 l 115 153 b 269 81 154 106 208 81 b 383 176 340 81 383 124 b 272 274 383 235 340 274 b 149 221 224 274 185 257 l 71 247 l 71 556 l 456 556 l 456 465 l 183 465 l 183 308 b 311 357 210 335 257 357 b 493 181 407 357 493 297 "},"":{"ha":547,"x_min":0,"x_max":0,"o":"m 503 179 b 288 -10 503 74 417 -10 b 46 278 117 -10 46 121 b 306 564 46 443 138 564 b 472 506 375 564 432 542 l 422 426 b 306 474 390 458 358 474 b 157 304 208 474 158 393 b 158 286 157 299 157 292 b 308 363 186 325 243 363 b 503 179 413 363 503 299 m 390 175 b 278 275 390 244 336 275 b 160 214 233 275 188 253 b 283 81 164 150 197 81 b 390 175 351 81 390 131 "},"":{"ha":510,"x_min":0,"x_max":0,"o":"m 247 0 l 122 0 l 340 465 l 40 465 l 40 556 l 463 556 l 463 479 "},"":{"ha":547,"x_min":0,"x_max":0,"o":"m 499 144 b 274 -10 499 36 390 -10 b 47 144 157 -10 47 36 b 183 286 47 213 108 268 b 57 417 114 303 57 349 b 274 564 57 522 169 564 b 490 417 376 564 490 522 b 364 286 490 349 433 303 b 499 144 438 268 499 213 m 378 403 b 274 478 378 451 335 478 b 168 403 213 478 168 451 b 274 322 168 346 249 328 b 378 403 300 328 378 346 m 388 154 b 274 246 388 219 300 243 b 158 154 247 243 158 219 b 274 76 158 104 210 76 b 388 154 336 76 388 104 "},"":{"ha":547,"x_min":0,"x_max":0,"o":"m 46 375 b 261 564 46 482 131 564 b 503 278 432 564 503 435 b 242 -10 503 111 410 -10 b 76 49 172 -10 117 14 l 126 128 b 243 81 157 97 190 81 b 390 251 336 81 389 158 b 390 268 390 257 390 263 b 240 192 361 231 304 192 b 46 375 138 192 46 257 m 158 379 b 269 281 158 311 213 281 b 389 343 315 281 360 303 b 267 474 383 406 350 474 b 158 379 197 474 158 424 "},"":{"ha":547,"x_min":0,"x_max":0,"o":"m 507 649 b 274 361 507 507 436 361 b 40 649 111 361 40 507 b 274 935 40 790 111 935 b 507 649 436 935 507 790 m 393 649 b 274 844 393 760 360 844 b 154 649 186 844 154 760 b 274 451 154 539 188 451 b 393 649 360 451 393 539 "},"":{"ha":367,"x_min":0,"x_max":0,"o":"m 171 371 l 171 783 l 79 688 l 14 756 l 186 926 l 283 926 l 283 371 "},"":{"ha":547,"x_min":0,"x_max":0,"o":"m 67 371 l 67 454 b 374 758 294 615 374 685 b 269 844 374 818 326 844 b 117 775 204 844 144 811 l 57 846 b 272 935 110 907 196 935 b 486 767 389 935 486 879 b 229 461 486 667 392 578 l 490 461 l 490 371 "},"":{"ha":547,"x_min":0,"x_max":0,"o":"m 493 524 b 271 361 493 429 407 361 b 51 450 168 361 90 400 l 108 522 b 268 451 147 476 211 451 b 381 531 340 451 381 483 b 249 611 381 592 324 611 b 190 610 225 611 199 611 l 190 699 b 249 697 200 697 225 697 b 372 772 324 697 372 718 b 261 844 372 821 322 844 b 111 782 203 844 153 825 l 58 847 b 272 935 103 897 174 935 b 483 785 403 935 483 876 b 360 658 483 711 419 668 b 493 524 415 653 493 610 "},"":{"ha":547,"x_min":0,"x_max":0,"o":"m 431 499 l 431 371 l 319 371 l 319 499 l 46 499 l 46 578 l 275 926 l 431 926 l 431 588 l 506 588 l 506 499 m 319 831 l 157 588 l 319 588 "},"":{"ha":547,"x_min":0,"x_max":0,"o":"m 493 551 b 269 361 493 438 403 361 b 54 450 171 361 99 396 l 115 524 b 269 451 154 476 208 451 b 383 547 340 451 383 494 b 272 644 383 606 340 644 b 149 592 224 644 185 628 l 71 618 l 71 926 l 456 926 l 456 836 l 183 836 l 183 679 b 311 728 210 706 257 728 b 493 551 407 728 493 668 "},"":{"ha":547,"x_min":0,"x_max":0,"o":"m 503 550 b 288 361 503 444 417 361 b 46 649 117 361 46 492 b 306 935 46 814 138 935 b 472 876 375 935 432 913 l 422 797 b 306 844 390 829 358 844 b 157 675 208 844 158 764 b 158 657 157 669 157 663 b 308 733 186 696 243 733 b 503 550 413 733 503 669 m 390 546 b 278 646 390 615 336 646 b 160 585 233 646 188 624 b 283 451 164 521 197 451 b 390 546 351 451 390 501 "},"":{"ha":510,"x_min":0,"x_max":0,"o":"m 247 371 l 122 371 l 340 836 l 40 836 l 40 926 l 463 926 l 463 850 "},"":{"ha":547,"x_min":0,"x_max":0,"o":"m 499 515 b 274 361 499 407 390 361 b 47 515 157 361 47 407 b 183 657 47 583 108 639 b 57 788 114 674 57 719 b 274 935 57 893 169 935 b 490 788 376 935 490 893 b 364 657 490 719 433 674 b 499 515 438 639 499 583 m 378 774 b 274 849 378 822 335 849 b 168 774 213 849 168 822 b 274 693 168 717 249 699 b 378 774 300 699 378 717 m 388 525 b 274 617 388 590 300 614 b 158 525 247 614 158 590 b 274 447 158 475 210 447 b 388 525 336 447 388 475 "},"":{"ha":547,"x_min":0,"x_max":0,"o":"m 46 746 b 261 935 46 853 131 935 b 503 649 432 935 503 806 b 242 361 503 482 410 361 b 76 419 172 361 117 385 l 126 499 b 243 451 157 468 190 451 b 390 622 336 451 389 529 b 390 639 390 628 390 633 b 240 563 361 601 304 563 b 46 746 138 563 46 628 m 158 750 b 269 651 158 682 213 651 b 389 714 315 651 360 674 b 267 844 383 776 350 844 b 158 750 197 844 158 794 "},"":{"ha":814,"x_min":0,"x_max":0,"o":"m 499 764 l 814 0 l 644 0 l 586 144 l 229 144 l 171 0 l 0 0 l 317 764 m 408 610 l 274 276 l 542 276 m 653 954 b 410 832 597 879 510 832 b 165 954 311 832 222 879 l 233 1011 b 410 918 272 956 335 918 b 588 1011 485 918 546 953 l 653 954 "},"":{"ha":814,"x_min":0,"x_max":0,"o":"m 499 764 l 814 0 l 644 0 l 586 144 l 229 144 l 171 0 l 0 0 l 317 764 m 408 610 l 274 276 l 542 276 m 157 869 l 157 956 l 661 956 l 661 869 "},"":{"ha":814,"x_min":0,"x_max":0,"o":"m 499 764 l 814 0 b 711 -129 746 -33 711 -76 b 768 -193 711 -174 736 -193 b 832 -140 801 -193 821 -172 l 896 -178 b 768 -258 872 -222 833 -258 b 635 -135 699 -258 635 -222 b 703 0 635 -83 660 -36 l 644 0 l 586 144 l 229 144 l 171 0 l 0 0 l 317 764 m 408 610 l 274 276 l 542 276 "},"":{"ha":1160,"x_min":0,"x_max":0,"o":"m 604 842 l 500 842 l 694 1042 l 833 1042 m 539 0 l 539 144 l 258 144 l 171 0 l -1 0 l 481 764 l 1096 764 l 1096 632 l 690 632 l 690 456 l 1088 456 l 1088 324 l 690 324 l 690 132 l 1096 132 l 1096 0 m 539 610 l 332 276 l 539 276 "},"":{"ha":811,"x_min":0,"x_max":0,"o":"m 467 -17 b 54 383 231 -17 54 147 b 467 781 54 618 231 781 b 785 603 619 781 724 703 l 660 539 b 467 647 622 604 549 647 b 208 383 318 647 208 536 b 467 117 208 231 318 117 b 660 225 549 117 624 161 l 786 163 b 467 -17 724 63 618 -17 m 468 842 l 364 842 l 558 1042 l 697 1042 "},"":{"ha":811,"x_min":0,"x_max":0,"o":"m 467 -17 b 54 383 231 -17 54 147 b 467 781 54 618 231 781 b 785 603 619 781 724 703 l 660 539 b 467 647 622 604 549 647 b 208 383 318 647 208 536 b 467 117 208 231 318 117 b 660 225 549 117 624 161 l 786 163 b 467 -17 724 63 618 -17 m 404 842 l 271 1042 l 364 1042 l 471 908 l 575 1042 l 667 1042 l 538 842 "},"":{"ha":811,"x_min":0,"x_max":0,"o":"m 467 -17 b 54 383 231 -17 54 147 b 467 781 54 618 231 781 b 785 603 619 781 724 703 l 660 539 b 467 647 622 604 549 647 b 208 383 318 647 208 536 b 467 117 208 231 318 117 b 660 225 549 117 624 161 l 786 163 b 467 -17 724 63 618 -17 m 575 842 l 467 976 l 364 842 l 271 842 l 400 1042 l 533 1042 l 667 842 "},"":{"ha":811,"x_min":0,"x_max":0,"o":"m 467 -17 b 54 383 231 -17 54 147 b 467 781 54 618 231 781 b 785 603 619 781 724 703 l 660 539 b 467 647 622 604 549 647 b 208 383 318 647 208 536 b 467 117 208 231 318 117 b 660 225 549 117 624 161 l 786 163 b 467 -17 724 63 618 -17 m 469 863 b 388 944 425 863 388 899 b 469 1026 388 989 425 1026 b 551 944 514 1026 551 989 b 469 863 551 899 514 863 "},"":{"ha":864,"x_min":0,"x_max":0,"o":"m 79 0 l 79 764 l 382 764 b 794 382 633 764 794 606 b 382 0 794 157 633 0 m 382 132 b 640 382 550 132 640 246 b 382 632 640 521 556 632 l 232 632 l 232 132 l 382 132 m 357 842 l 224 1042 l 317 1042 l 424 908 l 528 1042 l 619 1042 l 490 842 "},"":{"ha":876,"x_min":0,"x_max":0,"o":"m 93 0 l 93 332 l 14 332 l 14 432 l 93 432 l 93 764 l 396 764 b 808 382 647 764 808 606 b 396 0 808 157 647 0 m 246 332 l 246 132 l 396 132 b 654 382 564 132 654 246 b 396 632 654 521 569 632 l 246 632 l 246 432 l 415 432 l 415 332 "},"":{"ha":715,"x_min":0,"x_max":0,"o":"m 94 0 l 94 764 l 651 764 l 651 632 l 247 632 l 247 456 l 644 456 l 644 324 l 247 324 l 247 132 l 651 132 l 651 0 m 617 954 b 374 832 561 879 474 832 b 129 954 275 832 186 879 l 197 1011 b 374 918 236 956 299 918 b 551 1011 449 918 510 953 l 617 954 "},"":{"ha":715,"x_min":0,"x_max":0,"o":"m 94 0 l 94 764 l 651 764 l 651 632 l 247 632 l 247 456 l 644 456 l 644 324 l 247 324 l 247 132 l 651 132 l 651 0 m 310 842 l 176 1042 l 269 1042 l 376 908 l 481 1042 l 572 1042 l 443 842 "},"":{"ha":715,"x_min":0,"x_max":0,"o":"m 94 0 l 94 764 l 651 764 l 651 632 l 247 632 l 247 456 l 644 456 l 644 324 l 247 324 l 247 132 l 651 132 l 651 0 m 381 863 b 299 944 336 863 299 899 b 381 1026 299 989 336 1026 b 463 944 425 1026 463 989 b 381 863 463 899 425 863 "},"":{"ha":715,"x_min":0,"x_max":0,"o":"m 94 0 l 94 764 l 651 764 l 651 632 l 247 632 l 247 456 l 644 456 l 644 324 l 247 324 l 247 132 l 651 132 l 651 0 m 119 869 l 119 956 l 624 956 l 624 869 "},"":{"ha":892,"x_min":0,"x_max":0,"o":"m 515 -272 b 306 -185 433 -272 360 -244 l 369 -72 b 504 -139 401 -110 446 -139 b 644 -1 590 -139 644 -83 l 644 0 l 643 0 l 246 529 l 246 0 l 94 0 l 94 764 l 257 764 l 646 250 l 646 764 l 797 764 l 797 -15 b 515 -272 797 -192 681 -272 "},"":{"ha":715,"x_min":0,"x_max":0,"o":"m 733 -178 b 606 -258 710 -222 671 -258 b 472 -135 536 -258 472 -222 b 540 0 472 -83 497 -36 l 94 0 l 94 764 l 651 764 l 651 632 l 247 632 l 247 456 l 644 456 l 644 324 l 247 324 l 247 132 l 651 132 l 651 0 b 549 -129 583 -33 549 -76 b 606 -193 549 -174 574 -193 b 669 -140 639 -193 658 -172 "},"":{"ha":861,"x_min":0,"x_max":0,"o":"m 468 -17 b 54 382 236 -17 54 143 b 468 781 54 622 236 781 b 782 628 611 781 717 713 l 660 553 b 468 647 618 608 550 647 b 208 382 318 647 208 536 b 468 117 208 229 318 117 b 642 182 547 117 607 150 l 642 292 l 436 292 l 436 417 l 793 417 l 793 124 b 468 -17 713 39 601 -17 m 714 954 b 471 832 658 879 571 832 b 226 954 372 832 283 879 l 294 1011 b 471 918 333 956 396 918 b 649 1011 546 918 607 953 l 714 954 "},"":{"ha":861,"x_min":0,"x_max":0,"o":"m 468 -17 b 54 382 236 -17 54 143 b 468 781 54 622 236 781 b 782 628 611 781 717 713 l 660 553 b 468 647 618 608 550 647 b 208 382 318 647 208 536 b 468 117 208 229 318 117 b 642 182 547 117 607 150 l 642 292 l 436 292 l 436 417 l 793 417 l 793 124 b 468 -17 713 39 601 -17 m 575 842 l 467 976 l 364 842 l 271 842 l 400 1042 l 533 1042 l 667 842 "},"":{"ha":861,"x_min":0,"x_max":0,"o":"m 468 -17 b 54 382 236 -17 54 143 b 468 781 54 622 236 781 b 782 628 611 781 717 713 l 660 553 b 468 647 618 608 550 647 b 208 382 318 647 208 536 b 468 117 208 229 318 117 b 642 182 547 117 607 150 l 642 292 l 436 292 l 436 417 l 793 417 l 793 124 b 468 -17 713 39 601 -17 m 558 -192 b 450 -390 558 -272 513 -346 l 397 -347 b 481 -233 436 -324 475 -274 b 463 -236 479 -235 469 -236 b 394 -165 424 -236 394 -207 b 471 -87 394 -122 429 -87 b 558 -192 517 -87 558 -125 "},"":{"ha":861,"x_min":0,"x_max":0,"o":"m 468 -17 b 54 382 236 -17 54 143 b 468 781 54 622 236 781 b 782 628 611 781 717 713 l 660 553 b 468 647 618 608 550 647 b 208 382 318 647 208 536 b 468 117 208 229 318 117 b 642 182 547 117 607 150 l 642 292 l 436 292 l 436 417 l 793 417 l 793 124 b 468 -17 713 39 601 -17 m 468 863 b 386 944 424 863 386 899 b 468 1026 386 989 424 1026 b 550 944 513 1026 550 989 b 468 863 550 899 513 863 "},"":{"ha":894,"x_min":0,"x_max":0,"o":"m 650 0 l 650 326 l 247 326 l 247 0 l 94 0 l 94 764 l 247 764 l 247 458 l 650 458 l 650 764 l 800 764 l 800 0 m 551 842 l 443 976 l 340 842 l 247 842 l 376 1042 l 510 1042 l 643 842 "},"":{"ha":919,"x_min":0,"x_max":0,"o":"m 664 0 l 664 326 l 261 326 l 261 0 l 108 0 l 108 571 l 14 571 l 14 657 l 108 657 l 108 764 l 261 764 l 261 657 l 664 657 l 664 764 l 814 764 l 814 657 l 907 657 l 907 571 l 814 571 l 814 0 m 664 458 l 664 571 l 261 571 l 261 458 "},"":{"ha":336,"x_min":0,"x_max":0,"o":"m 92 0 l 92 764 l 244 764 l 244 0 m 410 954 b 167 832 354 879 267 832 b -78 954 68 832 -21 879 l -10 1011 b 167 918 29 956 92 918 b 344 1011 242 918 303 953 l 410 954 "},"":{"ha":936,"x_min":0,"x_max":0,"o":"m 94 0 l 94 764 l 247 764 l 247 0 m 561 -17 b 350 71 479 -17 406 11 l 414 185 b 550 117 446 147 492 117 b 690 253 636 117 690 171 l 690 764 l 842 764 l 842 240 b 561 -17 842 64 725 -17 "},"":{"ha":336,"x_min":0,"x_max":0,"o":"m 92 0 l 92 764 l 244 764 l 244 0 m -82 869 l -82 956 l 422 956 l 422 869 "},"":{"ha":336,"x_min":0,"x_max":0,"o":"m 328 -178 b 200 -258 304 -222 265 -258 b 67 -135 131 -258 67 -222 b 135 0 67 -83 92 -36 l 93 0 l 93 764 l 246 764 l 246 0 b 143 -129 178 -33 143 -76 b 200 -193 143 -174 168 -193 b 264 -140 233 -193 253 -172 "},"":{"ha":336,"x_min":0,"x_max":0,"o":"m 93 0 l 93 764 l 246 764 l 246 0 m 250 818 b 85 926 154 818 143 926 b 28 826 53 926 28 896 l -53 826 b 90 1013 -53 940 -3 1013 b 256 904 188 1013 197 904 b 314 1004 288 904 314 935 l 393 1004 b 250 818 393 890 343 818 "},"":{"ha":594,"x_min":0,"x_max":0,"o":"m 219 -17 b 8 71 138 -17 64 11 l 72 185 b 208 117 104 147 150 117 b 349 253 294 117 349 171 l 349 764 l 500 764 l 500 240 b 219 -17 500 64 383 -17 m 531 842 l 422 976 l 319 842 l 226 842 l 356 1042 l 489 1042 l 622 842 "},"":{"ha":768,"x_min":0,"x_max":0,"o":"m 574 0 l 310 315 l 247 244 l 247 0 l 94 0 l 94 764 l 247 764 l 247 415 l 549 764 l 735 764 l 408 404 l 758 0 m 475 -192 b 367 -390 475 -272 429 -346 l 314 -347 b 397 -233 353 -324 392 -274 b 379 -236 396 -235 386 -236 b 311 -165 340 -236 311 -207 b 388 -87 311 -122 346 -87 b 475 -192 433 -87 475 -125 "},"":{"ha":644,"x_min":0,"x_max":0,"o":"m 94 0 l 94 764 l 247 764 l 247 132 l 597 132 l 597 0 m 351 842 l 247 842 l 442 1042 l 581 1042 "},"":{"ha":644,"x_min":0,"x_max":0,"o":"m 94 0 l 94 764 l 247 764 l 247 132 l 597 132 l 597 0 m 508 674 b 400 475 508 593 463 519 l 347 518 b 431 632 386 542 425 592 b 413 629 429 631 419 629 b 344 700 374 629 344 658 b 421 778 344 743 379 778 b 508 674 467 778 508 740 "},"":{"ha":644,"x_min":0,"x_max":0,"o":"m 94 0 l 94 764 l 247 764 l 247 132 l 597 132 l 597 0 m 432 -192 b 324 -390 432 -272 386 -346 l 271 -347 b 354 -233 310 -324 349 -274 b 336 -236 353 -235 343 -236 b 268 -165 297 -236 268 -207 b 344 -87 268 -122 303 -87 b 432 -192 390 -87 432 -125 "},"":{"ha":678,"x_min":0,"x_max":0,"o":"m 94 0 l 94 764 l 247 764 l 247 132 l 597 132 l 597 0 m 611 417 b 515 319 611 364 568 319 b 418 417 463 319 418 364 b 515 513 418 468 463 513 b 611 417 568 513 611 468 "},"":{"ha":892,"x_min":0,"x_max":0,"o":"m 643 0 l 246 529 l 246 0 l 94 0 l 94 764 l 257 764 l 646 250 l 646 764 l 797 764 l 797 0 m 444 842 l 340 842 l 535 1042 l 674 1042 "},"":{"ha":892,"x_min":0,"x_max":0,"o":"m 643 0 l 246 529 l 246 0 l 94 0 l 94 764 l 257 764 l 646 250 l 646 764 l 797 764 l 797 0 m 381 842 l 247 1042 l 340 1042 l 447 908 l 551 1042 l 643 1042 l 514 842 "},"":{"ha":892,"x_min":0,"x_max":0,"o":"m 643 0 l 246 529 l 246 0 l 94 0 l 94 764 l 257 764 l 646 250 l 646 764 l 797 764 l 797 0 m 532 -192 b 424 -390 532 -272 486 -346 l 371 -347 b 454 -233 410 -324 449 -274 b 436 -236 453 -235 443 -236 b 368 -165 397 -236 368 -207 b 444 -87 368 -122 403 -87 b 532 -192 490 -87 532 -125 "},"":{"ha":914,"x_min":0,"x_max":0,"o":"m 457 -17 b 54 382 217 -17 54 154 b 457 781 54 610 217 781 b 861 382 697 781 861 610 b 457 -17 861 154 697 -17 m 457 117 b 706 382 608 117 706 232 b 457 647 706 533 608 647 b 208 382 306 647 208 533 b 457 117 208 232 306 117 m 703 954 b 460 832 647 879 560 832 b 215 954 361 832 272 879 l 283 1011 b 460 918 322 956 385 918 b 638 1011 535 918 596 953 l 703 954 "},"":{"ha":914,"x_min":0,"x_max":0,"o":"m 457 -17 b 54 382 217 -17 54 154 b 457 781 54 610 217 781 b 861 382 697 781 861 610 b 457 -17 861 154 697 -17 m 457 117 b 706 382 608 117 706 232 b 457 647 706 533 608 647 b 208 382 306 647 208 533 b 457 117 208 232 306 117 m 385 842 l 297 842 l 422 1042 l 544 1042 m 588 842 l 500 842 l 625 1042 l 747 1042 "},"":{"ha":914,"x_min":0,"x_max":0,"o":"m 457 -17 b 54 382 217 -17 54 154 b 457 781 54 610 217 781 b 861 382 697 781 861 610 b 457 -17 861 154 697 -17 m 457 117 b 706 382 608 117 706 232 b 457 647 706 533 608 647 b 208 382 306 647 208 533 b 457 117 208 232 306 117 m 207 876 l 207 963 l 711 963 l 711 876 "},"":{"ha":914,"x_min":0,"x_max":0,"o":"m 457 -17 b 249 33 378 -17 307 1 l 222 0 l 101 0 l 171 92 b 54 382 97 163 54 264 b 457 781 54 610 217 781 b 661 732 533 781 603 763 l 686 764 l 807 764 l 739 675 b 861 382 817 604 861 500 b 457 -17 861 154 697 -17 m 457 117 b 706 382 608 117 706 232 b 649 557 706 450 685 511 l 335 146 b 457 117 369 126 411 117 m 208 382 b 261 210 208 315 226 256 l 575 619 b 457 647 542 638 501 647 b 208 382 306 647 208 533 m 460 842 l 356 842 l 550 1042 l 689 1042 "},"":{"ha":781,"x_min":0,"x_max":0,"o":"m 551 0 l 379 278 l 247 278 l 247 0 l 94 0 l 94 764 l 456 764 b 718 521 622 764 718 656 b 529 292 718 385 631 306 l 725 0 m 439 410 b 563 521 519 410 563 456 b 439 632 563 586 518 632 l 247 632 l 247 410 l 439 410 m 379 842 l 275 842 l 469 1042 l 608 1042 "},"":{"ha":781,"x_min":0,"x_max":0,"o":"m 551 0 l 379 278 l 247 278 l 247 0 l 94 0 l 94 764 l 456 764 b 718 521 622 764 718 656 b 529 292 718 385 631 306 l 725 0 m 439 410 b 563 521 519 410 563 456 b 439 632 563 586 518 632 l 247 632 l 247 410 l 439 410 m 315 842 l 182 1042 l 275 1042 l 382 908 l 486 1042 l 578 1042 l 449 842 "},"":{"ha":781,"x_min":0,"x_max":0,"o":"m 551 0 l 379 278 l 247 278 l 247 0 l 94 0 l 94 764 l 456 764 b 718 521 622 764 718 656 b 529 292 718 385 631 306 l 725 0 m 439 410 b 563 521 519 410 563 456 b 439 632 563 586 518 632 l 247 632 l 247 410 l 439 410 m 471 -192 b 363 -390 471 -272 425 -346 l 310 -347 b 393 -233 349 -324 388 -274 b 375 -236 392 -235 382 -236 b 307 -165 336 -236 307 -207 b 383 -87 307 -122 342 -87 b 471 -192 429 -87 471 -125 "},"":{"ha":710,"x_min":0,"x_max":0,"o":"m 353 -17 b 33 100 213 -17 99 35 l 107 217 b 358 114 158 164 254 114 b 515 217 469 114 515 161 b 58 553 515 372 58 269 b 353 781 58 681 178 781 b 653 671 481 781 581 739 l 579 563 b 351 651 521 621 431 651 b 214 557 268 651 214 611 b 671 222 214 421 671 514 b 353 -17 671 83 564 -17 m 357 842 l 253 842 l 447 1042 l 586 1042 "},"":{"ha":710,"x_min":0,"x_max":0,"o":"m 350 -269 b 203 -226 288 -269 232 -249 l 235 -162 b 347 -203 269 -190 308 -203 b 424 -153 388 -203 424 -186 b 379 -111 424 -126 408 -111 b 331 -132 360 -111 342 -119 l 275 -100 l 306 -14 b 33 100 186 -4 90 42 l 107 217 b 358 114 158 164 254 114 b 515 217 469 114 515 161 b 58 553 515 372 58 269 b 353 781 58 681 178 781 b 653 671 481 781 581 739 l 579 563 b 351 651 521 621 431 651 b 214 557 268 651 214 611 b 671 222 214 421 671 514 b 381 -15 671 89 574 -7 l 358 -74 b 408 -58 372 -64 390 -58 b 500 -154 460 -58 500 -97 b 350 -269 500 -225 433 -269 "},"":{"ha":710,"x_min":0,"x_max":0,"o":"m 353 -17 b 33 100 213 -17 99 35 l 107 217 b 358 114 158 164 254 114 b 515 217 469 114 515 161 b 58 553 515 372 58 269 b 353 781 58 681 178 781 b 653 671 481 781 581 739 l 579 563 b 351 651 521 621 431 651 b 214 557 268 651 214 611 b 671 222 214 421 671 514 b 353 -17 671 83 564 -17 m 465 842 l 357 976 l 254 842 l 161 842 l 290 1042 l 424 1042 l 557 842 "},"":{"ha":710,"x_min":0,"x_max":0,"o":"m 353 -17 b 33 100 213 -17 99 35 l 107 217 b 358 114 158 164 254 114 b 515 217 469 114 515 161 b 58 553 515 372 58 269 b 353 781 58 681 178 781 b 653 671 481 781 581 739 l 579 563 b 351 651 521 621 431 651 b 214 557 268 651 214 611 b 671 222 214 421 671 514 b 353 -17 671 83 564 -17 m 446 -192 b 338 -390 446 -272 400 -346 l 285 -347 b 368 -233 324 -324 363 -274 b 350 -236 367 -235 357 -236 b 282 -165 311 -236 282 -207 b 358 -87 282 -122 317 -87 b 446 -192 404 -87 446 -125 "},"":{"ha":667,"x_min":0,"x_max":0,"o":"m 258 0 l 258 307 l 108 307 l 108 393 l 258 393 l 258 632 l 32 632 l 32 764 l 635 764 l 635 632 l 410 632 l 410 393 l 563 393 l 563 307 l 410 307 l 410 0 "},"":{"ha":667,"x_min":0,"x_max":0,"o":"m 258 0 l 258 632 l 32 632 l 32 764 l 635 764 l 635 632 l 410 632 l 410 0 m 269 842 l 136 1042 l 229 1042 l 336 908 l 440 1042 l 532 1042 l 403 842 "},"":{"ha":667,"x_min":0,"x_max":0,"o":"m 258 0 l 258 632 l 32 632 l 32 764 l 635 764 l 635 632 l 410 632 l 410 0 m 419 -192 b 311 -390 419 -272 374 -346 l 258 -347 b 342 -233 297 -324 336 -274 b 324 -236 340 -235 331 -236 b 256 -165 285 -236 256 -207 b 332 -87 256 -122 290 -87 b 419 -192 378 -87 419 -125 "},"":{"ha":883,"x_min":0,"x_max":0,"o":"m 442 -17 b 94 300 210 -17 94 111 l 94 764 l 247 764 l 247 313 b 442 117 247 194 317 117 b 636 313 567 117 636 194 l 636 764 l 789 764 l 789 300 b 442 -17 789 111 675 -17 m 685 954 b 442 832 629 879 542 832 b 197 954 343 832 254 879 l 265 1011 b 442 918 304 956 367 918 b 619 1011 517 918 578 953 l 685 954 "},"":{"ha":883,"x_min":0,"x_max":0,"o":"m 442 -17 b 94 300 210 -17 94 111 l 94 764 l 247 764 l 247 313 b 442 117 247 194 317 117 b 636 313 567 117 636 194 l 636 764 l 789 764 l 789 300 b 442 -17 789 111 675 -17 m 368 842 l 281 842 l 406 1042 l 528 1042 m 571 842 l 483 842 l 608 1042 l 731 1042 "},"":{"ha":883,"x_min":0,"x_max":0,"o":"m 442 -17 b 94 300 210 -17 94 111 l 94 764 l 247 764 l 247 313 b 442 117 247 194 317 117 b 636 313 567 117 636 194 l 636 764 l 789 764 l 789 300 b 442 -17 789 111 675 -17 m 192 869 l 192 956 l 696 956 l 696 869 "},"":{"ha":883,"x_min":0,"x_max":0,"o":"m 442 -17 b 94 300 210 -17 94 111 l 94 764 l 247 764 l 247 313 b 442 117 247 194 317 117 b 636 313 567 117 636 194 l 636 764 l 789 764 l 789 300 b 574 0 789 150 718 40 b 471 -129 506 -33 471 -76 b 528 -193 471 -174 496 -193 b 592 -140 561 -193 581 -172 l 656 -178 b 528 -258 632 -222 593 -258 b 394 -135 458 -258 394 -222 b 444 -17 394 -90 413 -50 l 442 -17 "},"":{"ha":883,"x_min":0,"x_max":0,"o":"m 442 -17 b 94 300 210 -17 94 111 l 94 764 l 247 764 l 247 313 b 442 117 247 194 317 117 b 636 313 567 117 636 194 l 636 764 l 789 764 l 789 300 b 442 -17 789 111 675 -17 m 446 835 b 303 976 368 835 303 899 b 446 1119 303 1054 368 1119 b 586 976 524 1119 586 1054 b 446 835 586 899 524 835 m 446 904 b 517 976 485 904 517 938 b 446 1049 517 1017 485 1049 b 374 976 406 1049 374 1017 b 446 904 374 938 406 904 "},"":{"ha":883,"x_min":0,"x_max":0,"o":"m 442 -17 b 94 300 210 -17 94 111 l 94 764 l 247 764 l 247 313 b 442 117 247 194 317 117 b 636 313 567 117 636 194 l 636 764 l 789 764 l 789 300 b 442 -17 789 111 675 -17 m 522 839 b 357 947 426 839 415 947 b 300 847 325 947 300 917 l 219 847 b 363 1033 219 961 269 1033 b 528 925 460 1033 469 925 b 586 1025 560 925 586 956 l 665 1025 b 522 839 665 911 615 839 "},"":{"ha":1088,"x_min":0,"x_max":0,"o":"m 651 842 l 543 976 l 440 842 l 347 842 l 476 1042 l 610 1042 l 743 842 m 694 0 l 543 542 l 394 0 l 235 0 l 6 764 l 175 764 l 324 201 l 483 764 l 604 764 l 764 201 l 914 764 l 1082 764 l 853 0 "},"":{"ha":774,"x_min":0,"x_max":0,"o":"m 314 0 l 314 318 l 0 764 l 174 764 l 390 447 l 603 764 l 774 764 l 464 318 l 464 0 m 497 842 l 389 976 l 286 842 l 193 842 l 322 1042 l 456 1042 l 589 842 "},"":{"ha":724,"x_min":0,"x_max":0,"o":"m 53 0 l 53 111 l 454 631 l 53 631 l 53 764 l 663 764 l 663 653 l 260 133 l 671 133 l 671 0 m 360 842 l 256 842 l 450 1042 l 589 1042 "},"":{"ha":724,"x_min":0,"x_max":0,"o":"m 53 0 l 53 111 l 454 631 l 53 631 l 53 764 l 663 764 l 663 653 l 260 133 l 671 133 l 671 0 m 374 863 b 292 944 329 863 292 899 b 374 1026 292 989 329 1026 b 456 944 418 1026 456 989 b 374 863 456 899 418 863 "},"":{"ha":307,"x_min":0,"x_max":0,"o":"m 79 0 l 79 764 l 232 764 l 232 0 m 156 863 b 74 944 111 863 74 899 b 156 1026 74 989 111 1026 b 238 944 200 1026 238 989 b 156 863 238 899 200 863 "},"":{"ha":383,"x_min":0,"x_max":0,"o":"m 269 -151 b 58 463 138 8 58 239 b 269 1076 58 686 138 917 l 360 1008 b 217 463 267 836 217 682 b 360 -82 217 246 267 89 "},"":{"ha":385,"x_min":0,"x_max":0,"o":"m 25 -82 b 167 463 117 89 167 246 b 25 1008 167 682 117 836 l 115 1076 b 325 463 246 917 325 686 b 115 -151 325 239 246 8 "},"":{"ha":368,"x_min":0,"x_max":0,"o":"m 61 -139 l 61 1067 l 343 1067 l 343 967 l 169 967 l 169 -39 l 343 -39 l 343 -139 "},"":{"ha":368,"x_min":0,"x_max":0,"o":"m 25 -139 l 25 -39 l 199 -39 l 199 967 l 25 967 l 25 1067 l 307 1067 l 307 -139 "},"":{"ha":385,"x_min":0,"x_max":0,"o":"m 276 -139 b 79 67 175 -139 79 -61 l 79 326 b 7 421 79 378 56 421 l 7 507 b 79 601 56 507 79 550 l 79 860 b 276 1067 79 988 175 1067 l 361 1067 l 361 967 l 276 967 b 186 861 228 967 186 925 l 186 588 b 124 464 186 529 169 483 b 186 340 169 444 186 399 l 186 68 b 276 -39 186 6 228 -39 l 361 -39 l 361 -139 "},"":{"ha":385,"x_min":0,"x_max":0,"o":"m 24 -39 l 108 -39 b 199 68 157 -39 199 6 l 199 340 b 261 464 199 399 215 444 b 199 588 215 483 199 529 l 199 861 b 108 967 199 925 157 967 l 24 967 l 24 1067 l 108 1067 b 306 860 210 1067 306 988 l 306 601 b 378 507 306 550 329 507 l 378 421 b 306 326 329 421 306 378 l 306 67 b 108 -139 306 -61 210 -139 l 24 -139 "},"":{"ha":339,"x_min":0,"x_max":0,"o":"m 106 643 l 232 643 l 258 0 l 81 0 m 72 844 b 169 942 72 897 117 942 b 265 844 222 942 265 897 b 169 749 265 793 222 749 b 72 844 117 749 72 793 "},"":{"ha":638,"x_min":0,"x_max":0,"o":"m 375 653 b 424 533 408 621 424 579 b 200 228 424 364 200 347 b 332 128 200 174 243 128 b 525 225 418 128 479 167 l 619 121 b 317 -17 549 35 442 -17 b 35 201 142 -17 35 76 b 282 549 35 408 282 425 b 251 611 282 571 271 597 l 375 653 m 325 942 b 422 844 378 942 422 897 b 325 747 422 792 378 747 b 228 844 272 747 228 792 b 325 942 228 897 272 942 "},"":{"ha":681,"x_min":0,"x_max":0,"o":"m 500 225 l 278 475 l 500 721 l 639 721 l 417 475 l 639 225 m 264 225 l 42 475 l 264 721 l 403 721 l 181 475 l 403 225 "},"":{"ha":681,"x_min":0,"x_max":0,"o":"m 181 225 l 42 225 l 264 475 l 42 721 l 181 721 l 403 475 m 417 225 l 278 225 l 500 475 l 278 721 l 417 721 l 639 475 "},"":{"ha":444,"x_min":0,"x_max":0,"o":"m 264 225 l 42 475 l 264 721 l 403 721 l 181 475 l 403 225 "},"":{"ha":444,"x_min":0,"x_max":0,"o":"m 181 225 l 42 225 l 264 475 l 42 721 l 181 721 l 403 475 "},"":{"ha":417,"x_min":0,"x_max":0,"o":"m 42 411 l 42 536 l 375 536 l 375 411 "},"":{"ha":824,"x_min":0,"x_max":0,"o":"m 42 411 l 42 536 l 782 536 l 782 411 "},"":{"ha":1157,"x_min":0,"x_max":0,"o":"m 42 411 l 42 536 l 1115 536 l 1115 411 "},"":{"ha":342,"x_min":0,"x_max":0,"o":"m 267 476 b 171 379 267 424 224 379 b 74 476 118 379 74 424 b 171 572 74 528 118 572 b 267 476 224 572 267 528 "},"":{"ha":497,"x_min":0,"x_max":0,"o":"m 408 474 b 250 317 408 388 338 317 b 92 474 163 317 92 388 b 250 632 92 561 163 632 b 408 474 338 632 408 561 "},"":{"ha":692,"x_min":0,"x_max":0,"o":"m 342 114 b 54 463 169 139 54 279 b 342 810 54 644 169 783 l 342 911 l 450 911 l 450 811 b 657 694 551 799 615 750 l 561 607 b 450 681 532 647 494 671 l 450 243 b 561 319 494 253 532 278 l 657 229 b 450 113 615 175 551 125 l 450 -12 l 342 -12 m 204 463 b 342 249 204 357 257 275 l 342 675 b 204 463 257 647 204 568 "},"":{"ha":340,"x_min":0,"x_max":0,"o":"m 256 -192 b 147 -390 256 -272 210 -346 l 94 -347 b 178 -233 133 -324 172 -274 b 160 -236 176 -235 167 -236 b 92 -165 121 -236 92 -207 b 168 -87 92 -122 126 -87 b 256 -192 214 -87 256 -125 "},"":{"ha":851,"x_min":0,"x_max":0,"o":"m 432 0 l 432 717 l 281 558 l 186 657 l 453 926 l 594 926 l 594 0 "},"":{"ha":1606,"x_min":0,"x_max":0,"o":"m 628 0 l 424 346 l 261 346 l 261 0 l 99 0 l 99 926 l 506 926 b 810 636 689 926 810 808 b 589 364 810 472 701 382 l 817 0 m 485 489 b 643 638 576 489 643 547 b 485 783 643 726 576 783 l 261 783 l 261 489 l 485 489 m 1257 -17 b 1042 93 1172 -17 1097 22 l 1042 -256 l 896 -256 l 896 671 l 1042 671 l 1042 579 b 1257 688 1092 646 1169 688 b 1554 336 1431 688 1554 557 b 1257 -17 1554 115 1431 -17 m 1214 113 b 1404 336 1329 113 1404 206 b 1214 558 1404 467 1329 558 b 1042 469 1146 558 1075 519 l 1042 204 b 1214 113 1074 154 1146 113 "},"":{"ha":431,"x_min":0,"x_max":0,"o":"m 214 -133 b 33 75 107 -118 33 -36 b 214 283 33 186 107 268 l 214 344 l 288 344 l 288 283 b 414 210 350 275 390 243 l 344 156 b 288 200 329 178 311 193 l 288 -51 b 344 -6 311 -44 329 -28 l 414 -61 b 288 -133 390 -93 350 -125 l 288 -210 l 214 -210 m 138 75 b 214 -50 138 13 168 -33 l 214 199 b 138 75 167 182 138 138 "},"":{"ha":431,"x_min":0,"x_max":0,"o":"m 214 654 b 33 863 107 669 33 751 b 214 1071 33 974 107 1056 l 214 1132 l 288 1132 l 288 1071 b 414 997 350 1063 390 1031 l 344 943 b 288 988 329 965 311 981 l 288 735 b 344 782 311 743 329 760 l 414 726 b 288 653 390 693 350 663 l 288 578 l 214 578 m 138 863 b 214 738 138 800 168 754 l 214 986 b 138 863 167 969 138 925 "},"":{"ha":207,"x_min":0,"x_max":0,"o":"m 167 -157 b 86 -314 167 -221 138 -278 b 42 -278 71 -301 57 -290 b 104 -204 65 -265 100 -231 b 97 -206 103 -204 100 -206 b 36 -144 68 -206 36 -179 b 101 -81 36 -110 65 -81 b 167 -157 139 -81 167 -111 "},"":{"ha":207,"x_min":0,"x_max":0,"o":"m 167 631 b 86 474 167 567 138 510 b 42 510 71 486 57 497 b 104 583 65 522 100 557 b 97 582 103 583 100 582 b 36 643 68 582 36 608 b 101 707 36 678 65 707 b 167 631 139 707 167 676 "},"":{"ha":525,"x_min":0,"x_max":0,"o":"m 232 -211 b 29 -122 140 -206 72 -171 l 92 -50 b 232 -125 125 -83 175 -115 l 232 33 b 40 200 140 54 40 83 b 232 360 40 281 114 353 l 232 438 l 307 438 l 307 358 b 478 281 385 349 442 321 l 414 215 b 307 272 388 243 349 264 l 307 128 b 496 -40 397 107 496 75 b 307 -210 496 -135 431 -197 l 307 -286 l 232 -286 m 382 -54 b 307 15 382 -17 350 1 l 307 -124 b 382 -54 357 -114 382 -86 m 154 210 b 232 146 154 175 186 158 l 232 275 b 154 210 185 268 154 242 "},"":{"ha":525,"x_min":0,"x_max":0,"o":"m 232 575 b 29 665 140 582 72 615 l 92 738 b 232 663 125 703 175 671 l 232 821 b 40 988 140 842 40 871 b 232 1147 40 1068 114 1140 l 232 1225 l 307 1225 l 307 1146 b 478 1068 385 1136 442 1108 l 414 1003 b 307 1060 388 1031 349 1051 l 307 915 b 496 747 397 894 496 863 b 307 576 496 653 431 589 l 307 501 l 232 501 m 382 733 b 307 803 382 771 350 789 l 307 663 b 382 733 357 672 382 701 m 154 997 b 232 933 154 963 186 946 l 232 1063 b 154 997 185 1056 154 1029 "},"":{"ha":256,"x_min":0,"x_max":0,"o":"m 25 32 l 25 117 l 231 117 l 231 32 "},"":{"ha":256,"x_min":0,"x_max":0,"o":"m 25 821 l 25 906 l 231 906 l 231 821 "},"":{"ha":211,"x_min":0,"x_max":0,"o":"m 169 -144 b 106 -208 169 -179 140 -208 b 42 -144 71 -208 42 -179 b 106 -81 42 -110 71 -81 b 169 -144 140 -81 169 -110 "},"":{"ha":211,"x_min":0,"x_max":0,"o":"m 169 643 b 106 579 169 608 140 579 b 42 643 71 579 42 608 b 106 707 42 678 71 707 b 169 643 140 707 169 678 "},"":{"ha":531,"x_min":0,"x_max":0,"o":"m 349 453 l 349 500 b 203 442 319 468 272 442 b 49 586 129 442 49 492 b 203 728 49 683 129 728 b 349 674 272 728 319 704 l 349 738 b 246 818 349 788 304 818 b 115 758 200 818 151 800 l 72 829 b 263 900 125 878 193 900 b 456 735 364 900 456 860 l 456 453 m 247 511 b 349 556 286 511 326 526 l 349 617 b 247 661 326 646 286 661 b 156 586 196 661 156 633 b 247 511 156 538 196 511 "},"":{"ha":572,"x_min":0,"x_max":0,"o":"m 293 528 b 415 671 365 528 415 585 b 293 814 415 757 365 814 b 183 764 251 814 206 793 l 183 576 b 293 528 206 549 251 528 m 76 453 l 76 1056 l 185 1056 l 185 831 b 325 900 221 876 271 900 b 525 671 440 900 525 814 b 325 442 525 526 438 442 b 183 511 269 442 219 468 l 183 453 "},"":{"ha":572,"x_min":0,"x_max":0,"o":"m 390 453 l 390 511 b 247 442 354 468 304 442 b 47 671 135 442 47 526 b 247 900 47 814 133 900 b 389 831 303 900 353 876 l 389 1056 l 497 1056 l 497 453 m 279 528 b 390 576 322 528 368 549 l 390 764 b 279 814 368 793 322 814 b 158 671 207 814 158 757 b 279 528 158 585 207 528 "},"":{"ha":547,"x_min":0,"x_max":0,"o":"m 285 442 b 47 671 150 442 47 532 b 278 900 47 797 144 900 b 500 660 410 900 500 801 l 500 636 l 160 636 b 296 522 169 574 217 522 b 419 567 338 522 389 539 l 467 504 b 285 442 424 463 356 442 m 397 711 b 278 822 394 761 360 822 b 160 711 200 822 164 764 l 397 711 "},"":{"ha":243,"x_min":0,"x_max":0,"o":"m 122 940 b 57 1006 86 940 57 969 b 122 1071 57 1040 86 1071 b 186 1006 157 1071 186 1040 b 122 940 186 969 157 940 m 68 453 l 68 889 l 175 889 l 175 453 "},"":{"ha":260,"x_min":0,"x_max":0,"o":"m 76 453 l 76 1056 l 183 1056 l 183 453 "},"":{"ha":813,"x_min":0,"x_max":0,"o":"m 631 453 l 631 733 b 560 810 631 778 610 810 b 460 756 518 810 478 782 l 460 453 l 353 453 l 353 733 b 282 810 353 778 333 810 b 183 756 240 810 203 782 l 183 453 l 76 453 l 76 889 l 183 889 l 183 832 b 331 900 203 857 261 900 b 454 821 396 900 438 868 b 607 900 479 860 538 900 b 738 763 689 900 738 856 l 738 453 "},"":{"ha":563,"x_min":0,"x_max":0,"o":"m 281 442 b 47 671 138 442 47 547 b 281 900 47 796 138 900 b 515 671 426 900 515 796 b 281 442 515 547 426 442 m 281 529 b 406 671 360 529 406 589 b 281 811 406 754 360 811 b 160 671 204 811 160 754 b 281 529 160 589 204 529 "},"":{"ha":347,"x_min":0,"x_max":0,"o":"m 76 453 l 76 889 l 183 889 l 183 829 b 328 900 217 868 272 900 l 328 803 l 297 806 b 183 753 256 806 203 782 l 183 453 "},"":{"ha":464,"x_min":0,"x_max":0,"o":"m 225 442 b 32 515 139 442 76 472 l 78 582 b 226 517 110 549 169 517 b 313 574 282 517 313 539 b 43 771 313 665 43 601 b 224 900 43 838 108 900 b 399 838 311 900 367 871 l 357 775 b 226 825 329 803 279 825 b 147 772 176 825 147 803 b 417 582 147 689 417 756 b 225 442 417 504 349 442 "},"":{"ha":310,"x_min":0,"x_max":0,"o":"m 207 442 b 86 560 129 442 86 483 l 86 813 l 11 813 l 11 889 l 86 889 l 86 1008 l 193 1008 l 193 889 l 285 889 l 285 813 l 193 813 l 193 578 b 235 528 193 550 208 528 b 276 543 253 528 271 535 b 301 471 285 519 293 494 b 207 442 283 456 254 442 "},"":{"ha":668,"x_min":0,"x_max":0,"o":"m 14 349 l 118 408 l 118 764 l 271 764 l 271 497 l 389 565 l 389 431 l 271 363 l 271 132 l 621 132 l 621 0 l 118 0 l 118 274 l 14 214 "},"":{"ha":1306,"x_min":0,"x_max":0,"o":"m 683 0 l 683 113 b 431 -17 626 25 538 -17 b 54 382 206 -17 54 154 b 431 781 54 611 206 781 b 683 653 535 781 626 739 l 683 764 l 1242 764 l 1242 632 l 836 632 l 836 456 l 1233 456 l 1233 324 l 836 324 l 836 132 l 1242 132 l 1242 0 m 683 493 b 460 647 644 601 554 647 b 208 382 306 647 208 533 b 460 117 208 232 306 117 b 683 274 558 117 644 165 "},"":{"ha":710,"x_min":0,"x_max":0,"o":"m 353 -17 b 33 100 213 -17 99 35 l 107 217 b 358 114 158 164 254 114 b 515 217 469 114 515 161 b 58 553 515 372 58 269 b 353 781 58 681 178 781 b 653 671 481 781 581 739 l 579 563 b 351 651 521 621 431 651 b 214 557 268 651 214 611 b 671 222 214 421 671 514 b 353 -17 671 83 564 -17 m 294 842 l 161 1042 l 254 1042 l 361 908 l 465 1042 l 557 1042 l 428 842 "},"":{"ha":724,"x_min":0,"x_max":0,"o":"m 53 0 l 53 111 l 454 631 l 53 631 l 53 764 l 663 764 l 663 653 l 260 133 l 671 133 l 671 0 m 293 842 l 160 1042 l 253 1042 l 360 908 l 464 1042 l 556 1042 l 426 842 "},"":{"ha":272,"x_min":0,"x_max":0,"o":"m 194 263 l 79 263 l 56 764 l 217 764 m 233 82 b 136 -15 233 31 189 -15 b 40 82 83 -15 40 31 b 136 179 40 135 83 179 b 233 82 189 179 233 135 "},"":{"ha":710,"x_min":0,"x_max":0,"o":"m 306 -14 b 33 100 186 -4 90 42 l 107 217 b 306 118 149 172 222 131 l 306 332 b 58 553 185 361 58 403 b 306 778 58 668 157 763 l 306 872 l 415 872 l 415 776 b 653 671 514 765 593 726 l 579 563 b 415 644 536 606 475 633 l 415 454 b 671 222 538 425 671 379 b 415 -14 671 97 585 4 l 415 -103 l 306 -103 m 515 217 b 415 304 515 264 474 288 l 415 118 b 515 217 485 132 515 171 m 214 557 b 306 482 214 518 251 497 l 306 647 b 214 557 249 635 214 600 "},"":{"ha":782,"x_min":0,"x_max":0,"o":"m 590 0 b 519 65 568 19 543 42 b 294 -15 456 15 382 -15 b 33 207 146 -15 33 65 b 206 431 33 325 114 385 b 150 596 171 488 150 542 b 371 781 150 701 246 781 b 572 619 479 781 572 724 b 375 407 572 503 474 451 b 451 319 399 376 425 347 b 528 233 479 288 504 260 b 604 392 561 282 588 338 l 714 344 b 606 153 683 274 647 208 b 765 0 653 106 703 58 m 310 88 b 444 140 358 88 403 108 b 350 243 408 178 375 214 b 261 350 317 281 288 315 b 172 218 208 318 172 279 b 310 88 172 143 231 88 m 281 593 b 319 482 281 560 296 521 b 454 614 394 517 454 551 b 376 685 454 660 421 685 b 281 593 319 685 281 644 "},"":{"ha":857,"x_min":0,"x_max":0,"o":"m 799 382 b 429 -17 799 178 683 -17 b 58 382 174 -17 58 178 b 429 781 58 588 174 781 b 799 382 683 781 799 588 m 633 382 b 429 636 633 517 571 636 b 224 382 288 636 224 517 b 429 128 224 249 288 128 b 633 382 569 128 633 249 "},"":{"ha":528,"x_min":0,"x_max":0,"o":"m 267 0 l 267 554 l 115 396 l 21 494 l 288 764 l 429 764 l 429 0 "},"":{"ha":807,"x_min":0,"x_max":0,"o":"m 76 0 l 76 129 b 556 503 425 257 556 393 b 396 636 556 583 485 636 b 144 526 294 636 206 597 l 50 632 b 399 781 132 732 268 781 b 721 529 590 781 721 683 b 371 143 721 374 560 224 l 706 143 l 706 0 "},"":{"ha":789,"x_min":0,"x_max":0,"o":"m 375 -179 b 25 -29 211 -179 89 -112 l 114 78 b 369 -35 174 8 271 -35 b 563 107 492 -35 563 22 b 357 239 563 199 490 239 b 251 236 318 239 265 238 l 251 383 b 357 382 267 382 321 382 b 549 504 467 382 549 419 b 361 633 549 589 464 633 b 121 531 265 633 188 599 l 38 632 b 376 778 110 717 222 778 b 710 529 576 778 710 683 b 510 317 710 404 604 332 b 725 92 599 307 725 235 b 375 -179 725 -67 590 -179 "},"":{"ha":806,"x_min":0,"x_max":0,"o":"m 643 54 l 643 -162 l 481 -162 l 481 54 l 39 54 l 39 185 l 419 764 l 643 764 l 643 197 l 767 197 l 767 54 m 481 618 l 199 197 l 481 197 "},"":{"ha":833,"x_min":0,"x_max":0,"o":"m 422 -179 b 79 -36 264 -179 154 -124 l 172 76 b 421 -35 233 4 318 -35 b 611 129 539 -35 611 38 b 425 293 611 228 539 293 b 222 214 347 293 282 269 l 107 247 l 107 764 l 714 764 l 714 621 l 269 621 l 269 354 b 479 433 315 397 390 433 b 776 135 636 433 776 325 b 422 -179 776 -57 629 -179 "},"":{"ha":835,"x_min":0,"x_max":0,"o":"m 440 -17 b 58 463 168 -17 58 204 b 467 940 58 729 199 940 b 732 838 581 940 669 900 l 657 715 b 467 796 608 765 554 796 b 222 490 311 796 222 653 b 222 464 222 482 222 474 b 471 594 265 526 363 594 b 782 294 638 594 782 492 b 440 -17 782 124 647 -17 m 431 128 b 617 289 553 128 617 215 b 428 454 617 403 528 454 b 225 346 349 454 271 413 b 431 128 233 246 289 128 "},"":{"ha":739,"x_min":0,"x_max":0,"o":"m 168 -162 l 518 621 l 38 621 l 38 764 l 706 764 l 706 651 l 347 -162 "},"":{"ha":828,"x_min":0,"x_max":0,"o":"m 414 -17 b 58 239 224 -17 58 72 b 267 478 58 356 154 440 b 74 697 163 511 74 581 b 414 940 74 869 250 940 b 754 697 578 940 754 869 b 561 478 754 581 665 511 b 769 239 674 440 769 356 b 414 -17 769 72 603 -17 m 414 543 b 589 672 471 553 589 586 b 414 796 589 751 514 796 b 239 672 314 796 239 751 b 414 543 239 586 358 553 m 414 128 b 604 260 517 128 604 178 b 414 406 604 356 471 397 b 224 260 356 397 224 356 b 414 128 224 178 308 128 "},"":{"ha":835,"x_min":0,"x_max":0,"o":"m 369 -178 b 103 -75 254 -178 165 -136 l 179 49 b 369 -33 228 -3 281 -33 b 614 272 538 -33 614 121 b 613 299 614 281 614 290 b 364 169 571 236 474 169 b 54 468 197 169 54 271 b 396 779 54 640 189 779 b 778 301 668 779 778 558 b 369 -178 778 33 638 -178 m 408 308 b 611 418 488 308 564 351 b 404 635 601 518 547 635 b 218 474 282 635 218 549 b 408 308 218 360 307 308 "},"":{"ha":550,"x_min":0,"x_max":0,"o":"m 525 606 b 311 333 525 442 311 422 b 340 282 311 317 318 299 l 226 246 b 183 338 194 275 183 310 b 376 575 183 468 376 483 b 263 654 376 621 336 654 b 83 571 182 654 125 621 l 10 663 b 276 779 74 736 168 779 b 525 606 431 779 525 701 m 367 83 b 269 -15 367 31 322 -15 b 172 83 217 -15 172 31 b 269 179 172 135 217 179 b 367 83 322 179 367 135 "},"":{"ha":814,"x_min":0,"x_max":0,"o":"m 499 764 l 814 0 l 644 0 l 586 144 l 229 144 l 171 0 l 0 0 l 317 764 m 408 610 l 274 276 l 542 276 "},"":{"ha":796,"x_min":0,"x_max":0,"o":"m 94 0 l 94 764 l 493 764 b 725 568 642 764 725 676 b 594 394 725 478 665 414 b 742 208 678 375 742 299 b 503 0 742 89 657 0 m 476 132 b 586 228 543 132 586 168 b 476 324 586 279 547 324 l 247 324 l 247 132 l 476 132 m 471 457 b 569 544 533 457 569 494 b 471 632 569 597 533 632 l 247 632 l 247 457 l 471 457 "},"":{"ha":811,"x_min":0,"x_max":0,"o":"m 467 -17 b 54 383 231 -17 54 147 b 467 781 54 618 231 781 b 785 603 619 781 724 703 l 660 539 b 467 647 622 604 549 647 b 208 383 318 647 208 536 b 467 117 208 231 318 117 b 660 225 549 117 624 161 l 786 163 b 467 -17 724 63 618 -17 "},"":{"ha":864,"x_min":0,"x_max":0,"o":"m 94 0 l 94 764 l 397 764 b 810 382 649 764 810 606 b 397 0 810 157 649 0 m 397 132 b 656 382 565 132 656 246 b 397 632 656 521 571 632 l 247 632 l 247 132 l 397 132 "},"":{"ha":715,"x_min":0,"x_max":0,"o":"m 94 0 l 94 764 l 651 764 l 651 632 l 247 632 l 247 456 l 644 456 l 644 324 l 247 324 l 247 132 l 651 132 l 651 0 "},"":{"ha":696,"x_min":0,"x_max":0,"o":"m 94 0 l 94 764 l 651 764 l 651 632 l 247 632 l 247 456 l 644 456 l 644 324 l 247 324 l 247 0 "},"":{"ha":861,"x_min":0,"x_max":0,"o":"m 468 -17 b 54 382 236 -17 54 143 b 468 781 54 622 236 781 b 782 628 611 781 717 713 l 660 553 b 468 647 618 608 550 647 b 208 382 318 647 208 536 b 468 117 208 229 318 117 b 642 182 547 117 607 150 l 642 292 l 436 292 l 436 417 l 793 417 l 793 124 b 468 -17 713 39 601 -17 "},"":{"ha":894,"x_min":0,"x_max":0,"o":"m 650 0 l 650 326 l 247 326 l 247 0 l 94 0 l 94 764 l 247 764 l 247 458 l 650 458 l 650 764 l 800 764 l 800 0 "},"":{"ha":342,"x_min":0,"x_max":0,"o":"m 94 0 l 94 764 l 247 764 l 247 0 "},"":{"ha":594,"x_min":0,"x_max":0,"o":"m 219 -17 b 8 71 138 -17 64 11 l 72 185 b 208 117 104 147 150 117 b 349 253 294 117 349 171 l 349 764 l 500 764 l 500 240 b 219 -17 500 64 383 -17 "},"":{"ha":768,"x_min":0,"x_max":0,"o":"m 574 0 l 310 315 l 247 244 l 247 0 l 94 0 l 94 764 l 247 764 l 247 415 l 549 764 l 735 764 l 408 404 l 758 0 "},"":{"ha":644,"x_min":0,"x_max":0,"o":"m 94 0 l 94 764 l 247 764 l 247 132 l 597 132 l 597 0 "},"":{"ha":1029,"x_min":0,"x_max":0,"o":"m 783 0 l 783 560 l 549 0 l 481 0 l 247 560 l 247 0 l 94 0 l 94 764 l 299 764 l 514 243 l 731 764 l 935 764 l 935 0 "},"":{"ha":892,"x_min":0,"x_max":0,"o":"m 643 0 l 246 529 l 246 0 l 94 0 l 94 764 l 257 764 l 646 250 l 646 764 l 797 764 l 797 0 "},"":{"ha":914,"x_min":0,"x_max":0,"o":"m 457 -17 b 54 382 217 -17 54 154 b 457 781 54 610 217 781 b 861 382 697 781 861 610 b 457 -17 861 154 697 -17 m 457 117 b 706 382 608 117 706 232 b 457 647 706 533 608 647 b 208 382 306 647 208 533 b 457 117 208 232 306 117 "},"":{"ha":751,"x_min":0,"x_max":0,"o":"m 94 0 l 94 764 l 456 764 b 717 521 625 764 717 651 b 456 278 717 390 631 278 l 247 278 l 247 0 m 439 410 b 563 521 519 410 563 457 b 439 632 563 586 518 632 l 247 632 l 247 410 l 439 410 "},"":{"ha":914,"x_min":0,"x_max":0,"o":"m 457 -17 b 54 382 217 -17 54 154 b 457 781 54 610 217 781 b 861 382 697 781 861 610 b 753 101 861 269 822 172 l 815 31 l 724 -44 l 658 31 b 457 -17 600 0 532 -17 m 457 117 b 564 139 496 117 532 124 l 475 240 l 565 315 l 654 213 b 706 382 688 258 706 317 b 457 647 706 533 608 647 b 208 382 306 647 208 533 b 457 117 208 232 306 117 "},"":{"ha":781,"x_min":0,"x_max":0,"o":"m 551 0 l 379 278 l 247 278 l 247 0 l 94 0 l 94 764 l 456 764 b 718 521 622 764 718 656 b 529 292 718 385 631 306 l 725 0 m 439 410 b 563 521 519 410 563 456 b 439 632 563 586 518 632 l 247 632 l 247 410 l 439 410 "},"":{"ha":710,"x_min":0,"x_max":0,"o":"m 353 -17 b 33 100 213 -17 99 35 l 107 217 b 358 114 158 164 254 114 b 515 217 469 114 515 161 b 58 553 515 372 58 269 b 353 781 58 681 178 781 b 653 671 481 781 581 739 l 579 563 b 351 651 521 621 431 651 b 214 557 268 651 214 611 b 671 222 214 421 671 514 b 353 -17 671 83 564 -17 "},"":{"ha":667,"x_min":0,"x_max":0,"o":"m 258 0 l 258 632 l 32 632 l 32 764 l 635 764 l 635 632 l 410 632 l 410 0 "},"":{"ha":883,"x_min":0,"x_max":0,"o":"m 442 -17 b 94 300 210 -17 94 111 l 94 764 l 247 764 l 247 313 b 442 117 247 194 317 117 b 636 313 567 117 636 194 l 636 764 l 789 764 l 789 300 b 442 -17 789 111 675 -17 "},"":{"ha":814,"x_min":0,"x_max":0,"o":"m 317 0 l 0 764 l 172 764 l 408 165 l 646 764 l 814 764 l 499 0 "},"":{"ha":1088,"x_min":0,"x_max":0,"o":"m 694 0 l 543 542 l 394 0 l 235 0 l 6 764 l 175 764 l 324 201 l 483 764 l 604 764 l 764 201 l 914 764 l 1082 764 l 853 0 "},"":{"ha":801,"x_min":0,"x_max":0,"o":"m 621 0 l 400 290 l 182 0 l 3 0 l 303 392 l 21 764 l 200 764 l 400 493 l 601 764 l 781 764 l 500 393 l 800 0 "},"":{"ha":774,"x_min":0,"x_max":0,"o":"m 314 0 l 314 318 l 0 764 l 174 764 l 390 447 l 603 764 l 774 764 l 464 318 l 464 0 "},"":{"ha":724,"x_min":0,"x_max":0,"o":"m 53 0 l 53 111 l 454 631 l 53 631 l 53 764 l 663 764 l 663 653 l 260 133 l 671 133 l 671 0 "},"":{"ha":272,"x_min":0,"x_max":0,"o":"m 78 501 l 193 501 l 217 0 l 56 0 m 39 682 b 136 779 39 733 83 779 b 232 682 189 779 232 733 b 136 585 232 629 189 585 b 39 682 83 585 39 629 "}}}
